<svg width="128" height="128" viewBox="0 0 128 128" fill="none" xmlns="http://www.w3.org/2000/svg">
<path d="M118.002 0H10.0021C4.4789 0 0.00146484 4.47744 0.00146484 10.0006V118.001C0.00146484 123.524 4.4789 128.001 10.0021 128.001H118.002C123.525 128.001 128.003 123.524 128.003 118.001V10.0006C128.003 4.47744 123.525 0 118.002 0Z" fill="black"/>
<path d="M16.556 114.433C15.4373 113.677 13.9292 111.938 13.2036 110.566C11.8051 107.913 9.07254 105.014 6.29459 103.23C4.37459 101.998 3.3201 98.3056 4.48797 96.8996C4.87726 96.4309 6.52515 95.6902 8.15034 95.2517C9.77554 94.8171 11.3743 94.2161 11.7031 93.9213C12.0319 93.6227 12.3305 91.4873 12.3683 89.1742C12.5913 75.0086 12.7009 74.6608 17.036 74.6608C22.1762 74.6608 25.6533 80.8026 23.9639 86.8952C22.7658 91.2152 23.0039 92.1487 25.3094 92.1336C28.8319 92.1185 29.0209 91.7141 29.1796 83.9472C29.4215 72.2306 31.9878 68.504 37.8801 71.3122C41.6143 73.0961 42.1661 77.9264 39.6112 86.5248C38.7721 89.3368 40.4313 100.981 42.1661 104.496C43.145 106.477 42.0981 109.259 40.2726 109.519C39.4411 109.637 38.0804 109.058 36.9579 108.113C35.9072 107.229 34.83 106.507 34.5579 106.507C34.2896 106.507 33.288 105.385 32.3356 104.013C30.6801 101.616 28.7828 100.808 27.9626 102.138C27.751 102.478 26.3034 103.083 24.75 103.472C22.0212 104.16 21.9305 104.258 22.2744 106.129C23.3025 111.67 23.31 113.877 22.3198 114.871C20.9667 116.228 19.0089 116.081 16.5598 114.433H16.556ZM79.8254 105.763C78.4723 104.976 75.8342 102.04 74.6663 100.018C74.2506 99.292 73.8953 97.3494 73.8839 95.6939C73.8537 91.2719 75.7094 88.4864 76.6732 91.5175C77.5841 94.39 80.9668 95.6826 82.558 93.7588C83.843 92.2092 81.6924 88.5884 76.3633 83.3273C71.5709 78.6029 71.363 78.2816 71.363 75.5604C71.363 71.3386 72.5724 69.5887 76.9075 67.5138C80.5132 65.7941 80.8231 65.7449 83.3705 66.5613C86.8288 67.6725 90.8918 71.5881 90.6121 73.5383C90.442 74.7591 90.0452 74.9745 87.9135 74.9745C86.5378 74.9745 85.0638 75.2013 84.6329 75.4772C83.3592 76.3049 83.7447 78.1909 85.4153 79.287C86.9535 80.2923 86.9762 80.2848 86.9762 78.5349C86.9762 76.819 87.1387 76.7282 92.4414 75.5566L97.9028 74.3471L98.3488 69.4338C99.101 61.1641 101.49 59.5314 106.21 64.0668C107.65 65.4539 108.875 66.9279 108.928 67.3437C108.981 67.7594 109.052 68.5229 109.086 69.0407C109.136 69.8117 110.088 69.9402 114.533 69.7588C119.718 69.5509 119.99 69.6076 121.865 71.3197C123.203 72.5405 123.861 73.7689 123.97 75.2391C124.106 77.0457 123.812 77.5975 122.05 78.7994C120.909 79.5818 117.182 81.1125 113.777 82.201C108.886 83.7582 107.582 84.4196 107.582 85.3267C107.582 85.9617 107.903 89.2876 108.293 92.7232C109.098 99.7909 108.584 102.104 105.949 103.306C103.629 104.364 103.017 104.198 100.828 101.938C98.2657 99.2958 97.472 96.5103 97.986 91.922C98.4584 87.6776 98.1825 87.3563 94.2972 87.6662L91.5306 87.8854L92.4376 90.482C93.0235 92.1601 93.2238 94.2993 93.0046 96.5141C92.7211 99.4168 92.3469 100.226 90.6008 101.73C85.4266 106.178 82.4559 107.286 79.8291 105.763H79.8254ZM54.3891 105.241C51.3919 104.723 47.0379 101.356 44.4149 97.5232C42.5441 94.7868 42.3324 94.0385 42.374 90.3421C42.4345 85.5308 43.9311 79.9371 45.802 77.5598C47.2836 75.6738 51.8001 73.4098 54.0792 73.4098C55.4625 73.4098 58.6638 74.5853 63.5583 76.8945C67.7838 78.8826 68.517 80.1223 69.4468 86.8083L70.1346 91.7405L67.8556 96.5972C66.6008 99.2656 64.9453 102.044 64.1743 102.765C62.3601 104.47 57.3145 105.747 54.3891 105.241ZM55.9652 93.4338C58.2102 92.5796 59.3365 88.8794 57.9797 86.812C57.4278 85.9654 56.6115 85.2738 56.1655 85.2738C53.6786 85.2738 51.048 91.1774 52.6694 93.1276C53.5387 94.1746 53.9167 94.2124 55.9652 93.43V93.4338ZM20.7211 62.0145C19.5267 61.2208 17.9129 59.2366 17.036 57.4867C15.6149 54.6445 15.4902 53.7563 15.6451 47.5654L15.8115 40.7622L12.0546 37.1566C9.9872 35.1685 8.29396 33.43 8.29396 33.2939C8.29396 33.1578 7.73082 30.4139 7.04672 27.2013C6.35885 23.9887 5.79569 19.869 5.79569 18.0473C5.79569 15.1975 6.0149 14.5966 7.37553 13.7008C9.84735 12.0869 12.5497 13.1717 14.9535 16.7471C16.5485 19.1207 17.0133 20.5833 17.3648 24.3629C17.8297 29.2914 18.6499 30.686 20.7059 30.0322C21.9343 29.6466 25.4946 25.9503 26.7645 23.7506C27.407 22.6356 27.5582 22.6545 30.3022 24.2646C32.3771 25.4778 33.3749 26.5588 33.9003 28.1462C34.5504 30.1115 34.4559 30.6369 33.0348 33.0596C31.9354 34.8242 30.6059 36.4346 29.0814 37.8482C27.7812 38.9896 26.6814 40.5052 26.6436 41.212C26.3412 46.5109 25.0259 62.0108 24.8218 62.6419C24.4439 63.7947 23.1022 63.5906 20.7211 62.0145ZM43.5494 57.5471C40.6467 56.281 36.6593 51.3676 35.7636 47.9585C34.8187 44.3452 34.8792 29.4426 35.8505 25.5723C36.2285 24.0605 36.8672 22.8284 37.2603 22.8284C38.4546 22.8284 42.5592 25.8822 43.3604 27.3676C43.8064 28.1878 44.1655 31.8123 44.2373 36.1852C44.3431 42.5878 44.5132 43.6989 45.4732 44.2356C46.3198 44.7119 46.7885 44.5871 47.4234 43.7178C47.8845 43.0867 48.2625 42.1342 48.2663 41.6013C48.2738 41.0646 48.973 38.4378 49.8272 35.7619C50.6814 33.0898 51.4108 29.5748 51.4449 27.9572C51.5771 21.7399 52.9453 20.349 56.2184 23.1043C60.0433 26.3207 60.2436 33.5849 56.8987 47.8073C55.5683 53.4841 54.2342 55.4268 50.3223 57.4111C47.9261 58.6205 46.1044 58.6583 43.5456 57.5471H43.5494ZM65.0096 56.2205C61.676 54.4819 61.06 53.2234 61.9028 49.8709C63.7737 42.4328 64.1365 33.5925 62.8855 26.0221C62.4849 23.5918 62.602 23.161 63.9324 22.1367C64.7564 21.5018 66.0301 20.9764 66.7595 20.9688C68.5283 20.9499 72.614 25.4589 74.3866 29.3859C76.9756 35.1307 77.9167 36.7673 78.4723 36.5103C78.7746 36.3704 79.0959 32.0353 79.1866 26.88C79.3302 18.6142 79.5116 17.1931 80.7287 14.8611C81.4846 13.4022 82.4975 12.2155 82.9699 12.2155C83.4461 12.2155 84.6102 13.406 85.5551 14.8687C86.5 16.3276 87.5356 17.7033 87.8493 17.9301C88.163 18.1569 88.3142 21.3884 88.1857 25.1112C88.05 29.1362 87.9996 33.1635 88.0345 37.1906C88.3368 54.7238 88.2386 55.7216 86.1372 56.5191C84.1453 57.275 81.0046 55.7405 77.225 52.1651C75.4146 50.4567 73.6912 49.0583 73.3888 49.0583C73.0864 49.0583 72.3381 50.6722 71.722 52.6489C69.9192 58.4164 69.5753 58.5979 65.0096 56.2205ZM98.5302 50.8309C92.7098 47.6788 90.7331 44.795 90.2644 38.7742C89.8902 33.9893 91.9274 25.4967 94.1422 22.594C95.0115 21.4564 95.7183 20.2129 95.7183 19.835C95.7183 19.4533 96.9655 18.2854 98.4849 17.2385C102.038 14.7969 105.326 14.691 108.603 16.9134C113.199 20.0315 113.868 22.4429 114.06 36.567C114.136 42.0284 114 42.7389 112.378 45.498C111.407 47.1497 109.99 48.7333 109.23 49.0243C108.467 49.3153 107.499 49.9654 107.08 50.4719C106.161 51.5793 100.36 51.8249 98.5302 50.8309ZM104.721 35.7355C106.792 31.5855 106.516 28.9248 103.977 28.5619C102.85 28.3994 102.359 28.8832 101.414 31.0829C99.6528 35.195 99.2332 37.7197 100.133 38.8044C101.475 40.4183 102.835 39.5074 104.721 35.7355Z" fill="white"/>
</svg>
