<svg width="129" height="128" viewBox="0 0 129 128" fill="none" xmlns="http://www.w3.org/2000/svg">
<path d="M64.0229 128C99.3692 128 128.023 99.3462 128.023 64C128.023 28.6538 99.3692 0 64.0229 0C28.6767 0 0.0229492 28.6538 0.0229492 64C0.0229492 99.3462 28.6767 128 64.0229 128Z" fill="black"/>
<path d="M55.04 11.1499L78.082 22.5719L55.04 11.1499Z" fill="#6E8375"/>
<path d="M55.04 11.1499L78.082 22.5719" stroke="#123859"/>
<path d="M67.8462 17.6299L76.9762 22.2149L67.8462 17.6299Z" fill="#6E8375"/>
<path d="M67.8462 17.6299L76.9762 22.2149" stroke="white" stroke-width="0.5"/>
<path d="M7.2334 51.26L38.9174 72.162" stroke="#152E44" stroke-width="0.65"/>
<path d="M4.12305 42.8701C6.12805 45.6561 12.461 53.5131 14.763 55.8551" stroke="#E5B828" stroke-width="0.5"/>
<path d="M126.813 53.99L107.13 59.128L126.813 53.99Z" fill="#0F212E"/>
<path d="M126.813 53.99L107.13 59.128" stroke="#1B344C" stroke-width="0.3"/>
<path d="M124.703 43.5399L104.065 72.1149L91.6304 42.4819" stroke="#326A9C"/>
<path d="M89.9033 39.5701L102.424 70.2011" stroke="#E5B828" stroke-width="0.514"/>
<path d="M73.9893 105.73L103.323 72.4331L73.9893 105.73Z" fill="#1B344B"/>
<path d="M73.9893 105.73L103.323 72.4331" stroke="#326A9C" stroke-width="0.6"/>
<path d="M83.896 80.96L99.11 106.492L83.896 80.96Z" fill="#326A9C"/>
<path d="M83.896 80.96L99.11 106.492" stroke="#326A9C" stroke-width="0.8"/>
<path d="M85.5534 124.66L74.1704 106.005" stroke="#19344E" stroke-width="0.6"/>
<path d="M99.1095 106.49L74.4375 116.875L99.1095 106.49Z" fill="#0A2035"/>
<path d="M99.1095 106.49L74.4375 116.875" stroke="#0A2035" stroke-width="0.8"/>
<path d="M62.0684 122.24L74.4374 116.882L62.0684 122.24Z" fill="#0A2035"/>
<path d="M62.0684 122.24L74.4374 116.882" stroke="#0A2035" stroke-width="0.4"/>
<path d="M106.914 111.52L98.9756 107.154L106.914 111.52Z" fill="#0A2035"/>
<path d="M106.914 111.52L98.9756 107.154" stroke="#0A2035" stroke-width="0.8"/>
<path d="M99.2422 106.63L121.599 55.4331L99.2422 106.63Z" fill="#0A2035"/>
<path d="M99.2422 106.63L121.599 55.4331" stroke="#10273C" stroke-width="0.8"/>
<path d="M38.6561 73.29L18.8711 101.143" stroke="#152E44" stroke-width="0.64"/>
<path d="M18.8081 67.27L38.4531 72.033" stroke="#152E44" stroke-width="0.8"/>
<path d="M21.8223 66.5701L34.9573 103.964" stroke="#6E8475" stroke-width="0.5"/>
<path d="M11.4854 100.19L21.8404 65.9231" stroke="#D0D0D0" stroke-width="0.5"/>
<path d="M35.4613 104.13L31.7163 67.1831" stroke="#33526D" stroke-width="0.5"/>
<path d="M18.2134 45.77L39.1814 72.03" stroke="#152E44" stroke-width="0.65"/>
<path d="M6.57129 55.3601L19.1393 66.6051" stroke="#0C2135" stroke-width="0.61"/>
<path d="M0.379395 61.58L25.7144 52.885" stroke="#E5B828" stroke-width="0.5"/>
<path d="M0.300293 61.1801L29.3653 51.1421" stroke="#D0D0D0" stroke-width="0.5"/>
<path d="M22.4375 65.23L29.0455 51.72L22.4375 65.23Z" stroke="#E5B828" stroke-width="0.6"/>
<path d="M3.88037 43.0701L21.8234 65.4501" stroke="#D0D0D0" stroke-width="0.5"/>
<path d="M29.3154 51.23L35.3494 101.563" stroke="#D9D9D9" stroke-width="0.5"/>
<path d="M35.9081 104.97V105.417L22.9961 68.47" fill="#6E8375"/>
<path d="M35.9081 104.97V105.417L22.9961 68.47" stroke="#3C5B75" stroke-width="0.5"/>
<path d="M38.917 72.5L42.357 87.581" stroke="#152E44" stroke-width="0.65"/>
<path d="M42.621 87.8401L44.87 97.2991L50.434 126.351M39.314 72.8901L71.99 64.8201" stroke="#152E44" stroke-width="0.55"/>
<path d="M43.9258 67.0801L73.9238 105.519" stroke="#19344E" stroke-width="0.748"/>
<path d="M41.917 103.75V98.405C44.907 97.995 47.668 97.311 50.937 97.235V55.975C47.257 55.913 43.793 55.105 42.051 54.505V49.375L60.523 49.22V97.294C63.082 97.109 66.536 97.999 69.665 98.499V103.767L41.917 103.75Z" fill="white"/>
<path d="M61.8032 14.95L69.7412 48.684" stroke="#081A26" stroke-width="0.714"/>
<path d="M114.973 35.66L86.4663 26.353L114.973 35.66Z" fill="#6E8375"/>
<path d="M114.973 35.66L86.4663 26.353" stroke="#0F2C48" stroke-width="0.5"/>
<path d="M61.7754 36.5799L62.1754 24.7029C67.8024 21.4759 87.6474 19.1689 89.7644 32.6619C90.4774 37.2079 90.9624 44.7589 79.8044 50.4949C88.4444 52.8289 91.3324 58.3879 91.4324 63.8579C91.6684 76.7019 79.1994 84.5559 67.9764 83.3019L68.0604 76.8199C77.9974 77.9599 82.8234 71.4839 83.0384 65.3999C83.2584 59.1639 77.7974 54.8629 68.0604 55.0539L67.9104 48.9579C80.0994 48.0539 83.5334 39.6139 82.0154 34.9269C79.9374 28.5079 73.3054 27.3229 67.4424 29.5809L66.4394 36.7309L61.7754 36.5799Z" fill="white"/>
<path d="M93.534 120.92L75.959 107.02" stroke="#19344E" stroke-width="0.95"/>
<path d="M61.4761 64.8301L70.3001 64.6411" stroke="#0B1620" stroke-width="0.5"/>
<path d="M61.9692 60.52L70.2042 63.232" stroke="#0B1620" stroke-width="0.748"/>
<path d="M71.229 55.74L72.407 61.838" stroke="#0B1620" stroke-width="0.713"/>
<path d="M77.337 58.1799L74.437 62.0149" stroke="#0B1620" stroke-width="0.348"/>
<path d="M74.063 63.84L78.085 58.929" stroke="#0B1620" stroke-width="0.248"/>
<path d="M75.9341 63.4201L81.5941 62.2041" stroke="#0B1620" stroke-width="0.348"/>
<path d="M9.05029 83.8698L18.8103 67.3298" stroke="#0C2135" stroke-width="0.825"/>
<path d="M18.6843 68.78L15.7583 85.53" stroke="#0C2135" stroke-width="0.41"/>
<path d="M0.0131836 67.0098L21.7112 65.5698" stroke="#E5B828" stroke-width="0.4"/>
<path d="M0.322266 67.3999L19.5023 66.1689" stroke="#78A657" stroke-width="0.5"/>
<path d="M4.55322 41.0601L14.9732 44.1811" stroke="#0C2135" stroke-width="0.31"/>
<path d="M17.1553 46.0999L18.4783 57.7419" stroke="#081725" stroke-width="0.31"/>
<path d="M84.9844 49.0798L104.883 22.8088" stroke="#0F2C48" stroke-width="0.714"/>
<path d="M84.228 24.41L91.832 12.77" stroke="#123859" stroke-width="0.814"/>
<path d="M65.5073 12.96L95.0743 14.812" stroke="#123859" stroke-width="0.814" stroke-dasharray="6.51 0.81"/>
<path d="M62.4604 13.2L67.1764 13.468" stroke="#123859" stroke-width="0.348" stroke-dasharray="2.09 2.09"/>
<path d="M61.4062 12.7L27.4072 36.645" stroke="#123859" stroke-width="0.714"/>
<path d="M53.7383 10.3999L67.8243 17.6099" stroke="#E5B828" stroke-width="0.714"/>
<path d="M53.4032 10.1699L31.1572 47.8989" stroke="#E5B828" stroke-width="0.314"/>
<path d="M29.312 51.5701L48.342 19.644" stroke="#D0D0D0" stroke-width="0.514"/>
<path d="M55.9824 6.47998L62.2004 12.565" stroke="#081A26" stroke-width="0.714"/>
<path d="M68.6231 5.93994L61.9312 13.1409" stroke="#173149" stroke-width="0.714"/>
<path d="M115.083 35.0499L86.604 25.9109L115.083 35.0499Z" fill="#6E8375"/>
<path d="M115.083 35.0499L86.604 25.9109" stroke="white" stroke-width="0.7"/>
<path d="M27.1763 109.09L36.3863 105.651L27.1763 109.09Z" fill="#6E8375"/>
<path d="M27.1763 109.09L36.3863 105.651" stroke="#11385E" stroke-width="0.6"/>
<path d="M36.3552 105.98L43.9152 67.3298M36.1362 106.19L72.6872 105.861" stroke="#D9D9D9" stroke-width="0.714"/>
<path d="M46.7773 2.63989L53.8643 10.2469" stroke="#E5B828" stroke-width="0.714"/>
<path d="M52.4785 12.45L48.2305 19.828" stroke="#123859" stroke-width="0.514"/>
<path d="M54.4092 10.56L84.2662 3.89404L54.4092 10.56Z" fill="#06111B"/>
<path d="M54.4092 10.56L84.2662 3.89404" stroke="#E5B828" stroke-width="0.514"/>
<path d="M6.65039 36L26.0304 49.084" stroke="#E5B828" stroke-width="0.4"/>
<path d="M6.67334 35.6101L29.2713 50.8271" stroke="#D0D0D0" stroke-width="0.4"/>
<path d="M11.8804 100.27L20.7334 70.8252" stroke="#79A6CC" stroke-width="0.5"/>
<path d="M21.8013 65.6501L43.6583 66.9151" stroke="white" stroke-width="0.5"/>
<path d="M21.9985 66.0901L42.2945 67.3451" stroke="#32556E" stroke-width="0.5"/>
<path d="M15.1855 56.4202L21.7665 65.0092" stroke="#E5B828" stroke-width="0.5"/>
<path d="M14.7231 56.6201L21.9331 65.5631" stroke="white" stroke-width="0.5"/>
<path d="M29.6323 51.46L43.6623 66.216L29.6323 51.46Z" fill="#6E8375"/>
<path d="M29.6323 51.46L43.6623 66.216" stroke="#405C74" stroke-width="0.5"/>
<path d="M43.5412 66.97L29.3672 51.957L43.5412 66.97Z" fill="#6E8375"/>
<path d="M43.5412 66.97L29.3672 51.957" stroke="white" stroke-width="0.6"/>
<path d="M21.2974 111.9L34.6064 106.947L21.2974 111.9Z" fill="#6E8375"/>
<path d="M21.2974 111.9L34.6064 106.947" stroke="#C4C32D" stroke-width="0.6"/>
<path d="M78.8341 72.49L74.7241 65.929L78.8341 72.49Z" fill="#0F212E"/>
<path d="M78.8341 72.49L74.7241 65.929" stroke="#11385E" stroke-width="0.3"/>
<path d="M64.023 125.336C97.8979 125.336 125.359 97.875 125.359 64.0001C125.359 30.1251 97.8979 2.66406 64.023 2.66406C30.1481 2.66406 2.68701 30.1251 2.68701 64.0001C2.68701 97.875 30.1481 125.336 64.023 125.336Z" stroke="url(#paint0_linear_3_7310)" stroke-width="5.328"/>
<defs>
<linearGradient id="paint0_linear_3_7310" x1="64.0248" y1="-0.549637" x2="64.0248" y2="128.564" gradientUnits="userSpaceOnUse">
<stop stop-color="white" stop-opacity="0.918"/>
<stop offset="1" stop-color="white" stop-opacity="0.559"/>
</linearGradient>
</defs>
</svg>
