<svg width="129" height="129" viewBox="0 0 129 129" fill="none" xmlns="http://www.w3.org/2000/svg">
<path d="M116.452 6.669C114.659 10.9697 112.364 15.0433 109.615 18.805C97.569 6.7659 81.2358 0.00206861 64.205 0C28.984 0 5.95073e-08 29.008 5.95073e-08 64.268C-0.000374473 72.9751 1.7672 81.5915 5.19561 89.5952C8.62401 97.5989 13.6418 104.823 19.945 110.83L22.313 112.93C33.8859 122.687 48.5336 128.043 63.671 128.052C97.158 128.052 125.308 101.812 127.692 68.369C129.443 51.998 124.641 31.292 116.452 6.669ZM29.067 111.196C28.5515 111.831 27.9008 112.343 27.1623 112.695C26.4237 113.047 25.616 113.23 24.798 113.23C21.78 113.23 19.311 110.746 19.311 107.728C19.311 104.711 21.796 102.227 24.798 102.227C26.048 102.227 27.283 102.66 28.25 103.461C30.601 105.361 30.968 108.845 29.067 111.196ZM116.186 91.958C100.343 113.08 66.506 105.961 44.81 106.978C44.81 106.978 40.958 107.212 37.089 107.845C37.089 107.845 38.539 107.228 40.424 106.511C55.65 101.21 62.854 100.176 72.109 95.425C89.536 86.556 106.763 67.151 110.349 46.962C103.712 66.384 83.599 83.072 65.272 89.857C52.715 94.492 30.034 98.993 30.034 98.993L29.117 98.509C13.675 90.991 13.207 57.532 41.274 46.729C53.565 41.994 65.322 44.595 78.597 41.427C92.772 38.06 109.165 27.423 115.835 13.553C123.306 35.743 132.295 70.485 116.185 91.958H116.186Z" fill="#77BC1F"/>
</svg>
