<svg width="128" height="128" viewBox="0 0 128 128" fill="none" xmlns="http://www.w3.org/2000/svg">
<path d="M69.3359 59.3445H102.425M74.8422 66.1932H107.929" stroke="#3C6EB4" stroke-width="2.74564"/>
<path d="M98.4891 73.884C91.5793 62.7317 93.1287 51.9729 89.8622 36.6005C88.0735 27.1082 82.0253 19.27 74.1493 16.4C67.6524 14.1409 54.159 14.138 48.4398 16.4C40.5669 19.27 34.5156 27.1082 32.7209 36.6005C29.4574 51.9729 31.0039 62.7317 24.1001 73.884" stroke="black" stroke-width="2.06017"/>
<path d="M82.2599 51.5181C82.2599 49.5841 80.7679 48.0181 78.9239 48.0181C77.0799 48.0181 75.5839 49.5841 75.5839 51.5181C75.5839 53.4511 77.0799 55.0181 78.9239 55.0181C80.7679 55.0181 82.2599 53.4511 82.2599 51.5181ZM48.5329 51.5181C48.5329 49.5841 47.0369 48.0181 45.1929 48.0181C43.3499 48.0181 41.8569 49.5841 41.8569 51.5181C41.8569 53.4511 43.3499 55.0181 45.1929 55.0181C47.0369 55.0181 48.5329 53.4511 48.5329 51.5181Z" fill="#E7E8E9"/>
<path d="M50.9821 49.593L38.5791 52.9034M52.3871 51.5168L39.915 58.6933M53.4414 53.7899L40.7941 66.399M53.97 56.7669L47.5055 67.9232" stroke="#A7A9AC" stroke-width="1.37324"/>
<path d="M74.1196 49.593L86.5254 52.9034M72.7147 51.5168L85.1867 58.6933M71.6604 53.7899L84.3077 66.399M71.1317 56.7669L77.5963 67.9232" stroke="#A7A9AC" stroke-width="1.37324"/>
<path d="M73.1294 49.0672C73.1294 43.4582 68.3315 38.9163 62.4088 38.9163C56.4922 38.9163 51.6943 43.4582 51.6943 49.0672C51.6943 54.6731 56.4922 59.2151 62.4088 59.2151C68.3315 59.2151 73.1294 54.6731 73.1294 49.0672Z" fill="white" stroke="#60605B" stroke-width="2.06017" stroke-linecap="square"/>
<path d="M73.6558 40.3883C73.6558 37.4766 75.968 35.1191 78.8156 35.1191C81.6662 35.1191 83.9756 37.4766 83.9756 40.3883C83.9756 43.303 81.6662 45.6634 78.8156 45.6634C75.968 45.6634 73.6558 43.303 73.6558 40.3883Z" fill="black" stroke="#892CA0" stroke-width="2.06017" stroke-linecap="square"/>
<path d="M83.4458 29.3524C82.9238 28.6852 82.2634 28.1382 81.5096 27.7488C80.7559 27.3594 79.9266 27.1368 79.0785 27.0963C78.2793 27.0669 77.4824 27.1998 76.7363 27.4867C75.9902 27.7736 75.3105 28.2086 74.7383 28.7652" stroke="black" stroke-width="2.06017" stroke-linecap="square"/>
<path d="M62.3978 47.3132L62.6635 52.5686C62.6635 52.5686 66.8783 56.3288 69.3403 52.4786C69.3403 52.4786 69.0747 50.2902 68.8994 49.5916M62.3527 47.3132L62.087 52.5686C62.087 52.5686 57.8722 56.3288 55.4102 52.4786C55.4102 52.4786 55.6758 50.2902 55.8511 49.5916" stroke="black" stroke-width="2.05986"/>
<path d="M66.9852 47.237C66.6262 46.3072 66.6262 44.4534 65.5463 44.4534C64.4695 44.4534 63.4734 43.759 62.4085 43.759C61.3496 43.759 60.3535 44.4534 59.2767 44.4534C58.1999 44.4534 58.1999 46.3072 57.841 47.237C57.482 48.1609 62.4085 51.171 62.4085 51.171C62.4085 51.171 67.3441 48.1609 66.9852 47.237Z" fill="#808080" stroke="black" stroke-width="2.06017" stroke-linecap="square"/>
<path d="M50.5722 40.3883C50.5722 37.4766 48.2659 35.1191 45.4122 35.1191C42.5616 35.1191 40.2524 37.4766 40.2524 40.3883C40.2524 43.303 42.5616 45.6634 45.4122 45.6634C48.2659 45.6634 50.5722 43.303 50.5722 40.3883Z" fill="black" stroke="#892CA0" stroke-width="2.06017" stroke-linecap="square"/>
<path d="M46.2288 38.9081C46.2288 37.4551 45.0918 36.2791 43.6888 36.2791C42.2868 36.2791 41.1538 37.4551 41.1538 38.9091C41.1538 40.3571 42.2868 41.5331 43.6888 41.5331C45.0918 41.5331 46.2288 40.3571 46.2288 38.9081Z" fill="white"/>
<path d="M40.7881 29.3524C41.3094 28.686 41.9689 28.1394 42.7215 27.7501C43.4742 27.3607 44.3021 27.1377 45.1491 27.0963C45.9489 27.0659 46.7466 27.1982 47.4933 27.4851C48.2401 27.7721 48.9203 28.2077 49.4925 28.7653" stroke="black" stroke-width="2.06017" stroke-linecap="square"/>
<path d="M79.615 38.9081C79.615 37.4551 78.479 36.2791 77.08 36.2791C75.678 36.2791 74.541 37.4551 74.541 38.9091C74.541 40.3571 75.678 41.5331 77.081 41.5331C78.479 41.5331 79.615 40.3571 79.615 38.9081Z" fill="white"/>
<path d="M28.3164 73.7358H113.958" stroke="#3C6EB4" stroke-width="2.74564"/>
<path d="M60.0672 88.4756C59.4991 84.6437 59.2226 80.4762 58.1793 75.5691C57.0345 69.5094 53.1637 64.5097 48.1243 62.6776C43.9726 61.2369 35.3388 61.2326 31.6797 62.6776C26.6446 64.5097 22.7737 69.5094 21.6289 75.5691C20.5812 80.4741 20.3091 84.6437 19.7432 88.4756" stroke="black" stroke-width="2.06038"/>
<path d="M53.3178 85.088C53.3178 83.854 52.3648 82.854 51.1858 82.854C50.0058 82.854 49.0488 83.854 49.0488 85.088C49.0488 86.322 50.0058 87.322 51.1858 87.322C52.3658 87.322 53.3178 86.322 53.3178 85.088Z" fill="#E7E8E9"/>
<path d="M31.7442 85.088C31.7442 83.854 30.7872 82.854 29.6072 82.854C28.4272 82.854 27.4712 83.854 27.4712 85.088C27.4712 86.322 28.4282 87.322 29.6072 87.322C30.7872 87.322 31.7442 86.322 31.7442 85.088Z" fill="#E7E8E9"/>
<path d="M33.313 83.8572L25.3789 85.9697" stroke="#A7A9AC" stroke-width="1.37368"/>
<path d="M34.2147 85.0881L26.2349 89.6645" stroke="#A7A9AC" stroke-width="1.37368"/>
<path d="M34.886 86.5405L26.7974 94.5787" stroke="#A7A9AC" stroke-width="1.37368"/>
<path d="M35.2256 88.4385L31.0903 95.5563" stroke="#A7A9AC" stroke-width="1.37368"/>
<path d="M48.1088 83.8572L56.043 85.9697" stroke="#A7A9AC" stroke-width="1.37368"/>
<path d="M47.2072 85.0881L55.187 89.6645" stroke="#A7A9AC" stroke-width="1.37368"/>
<path d="M46.5364 86.5405L54.625 94.5787" stroke="#A7A9AC" stroke-width="1.37368"/>
<path d="M46.1963 88.4385L50.3315 95.5563" stroke="#A7A9AC" stroke-width="1.37368"/>
<path d="M47.4752 83.5219C47.4752 79.9429 44.4082 77.0449 40.6192 77.0449C36.8342 77.0449 33.7642 79.9429 33.7642 83.5219C33.7642 87.0999 36.8342 90.0019 40.6192 90.0019C44.4092 90.0019 47.4752 87.0999 47.4752 83.5219Z" fill="white"/>
<path d="M47.4717 83.5213C47.4717 79.9431 44.4044 77.0444 40.6178 77.0444C36.8312 77.0444 33.7617 79.9431 33.7617 83.5213C33.7617 87.0996 36.8312 90.0026 40.6178 90.0026C44.4065 90.0026 47.4717 87.0996 47.4717 83.5213Z" stroke="#60605B" stroke-width="2.06038" stroke-linecap="square"/>
<path d="M47.8149 77.986C47.8149 76.127 49.2909 74.623 51.1149 74.623C52.9399 74.623 54.4159 76.127 54.4159 77.986C54.4159 79.846 52.9389 81.35 51.1159 81.35C49.2909 81.35 47.8149 79.846 47.8149 77.986Z" fill="black"/>
<path d="M47.8129 77.9862C47.8129 76.1262 49.2882 74.623 51.1135 74.623C52.9365 74.623 54.4141 76.1283 54.4141 77.9862C54.4141 79.8463 52.9365 81.3494 51.1135 81.3494C49.2882 81.3494 47.8129 79.8441 47.8129 77.9862Z" stroke="#892CA0" stroke-width="2.06038" stroke-linecap="square"/>
<path d="M54.0753 70.9437C53.7411 70.5178 53.3186 70.1686 52.8366 69.92C52.3547 69.6714 51.8245 69.5291 51.2823 69.5029C50.2627 69.4599 49.2302 69.8535 48.5044 70.5695" stroke="black" stroke-width="2.06038" stroke-linecap="square"/>
<path d="M40.6172 82.4045L40.7888 85.7566C40.7888 85.7566 43.485 88.1579 45.0582 85.7009C45.0582 85.7009 44.8901 84.306 44.778 83.8568" stroke="black" stroke-width="2.05968"/>
<path d="M40.587 82.4045L40.4172 85.7566C40.4172 85.7566 37.7226 88.1579 36.1494 85.7009C36.1494 85.7009 36.316 84.306 36.4298 83.8568" stroke="black" stroke-width="2.05968"/>
<path d="M43.5451 82.354C43.3151 81.764 43.3151 80.58 42.6271 80.58C41.9361 80.58 41.2991 80.135 40.6191 80.135C39.9431 80.135 39.3071 80.58 38.6151 80.58C37.9241 80.58 37.9241 81.764 37.6971 82.354C37.4671 82.947 40.6191 84.869 40.6191 84.869C40.6191 84.869 43.7751 82.947 43.5451 82.354Z" fill="#808080"/>
<path d="M43.5429 82.3537C43.3118 81.7645 43.3118 80.5796 42.6249 80.5796C41.9337 80.5796 41.2965 80.1345 40.6161 80.1345C39.9421 80.1345 39.3049 80.5796 38.6137 80.5796C37.9225 80.5796 37.9225 81.7624 37.6957 82.3537C37.4646 82.9472 40.6182 84.8696 40.6182 84.8696C40.6182 84.8696 43.7719 82.9472 43.5429 82.3537V82.3537Z" stroke="black" stroke-width="2.06038" stroke-linecap="square"/>
<path d="M33.0488 77.986C33.0488 76.127 31.5718 74.623 29.7488 74.623C27.9238 74.623 26.4468 76.127 26.4468 77.986C26.4468 79.846 27.9238 81.35 29.7478 81.35C31.5718 81.35 33.0478 79.846 33.0478 77.986H33.0488Z" fill="black"/>
<path d="M33.0469 77.9862C33.0469 76.1262 31.5695 74.623 29.7464 74.623C27.9212 74.623 26.4458 76.1283 26.4458 77.9862C26.4458 79.8463 27.9212 81.3494 29.7464 81.3494C31.5695 81.3494 33.0469 79.8441 33.0469 77.9862Z" stroke="#892CA0" stroke-width="2.06038" stroke-linecap="square"/>
<path d="M30.268 77.0421C30.268 76.1151 29.541 75.3621 28.647 75.3621C27.748 75.3621 27.022 76.1151 27.022 77.0421C27.022 77.9671 27.748 78.7171 28.647 78.7171C29.541 78.7171 30.267 77.9671 30.267 77.0411L30.268 77.0421Z" fill="white"/>
<path d="M26.7871 70.9437C27.121 70.5181 27.5432 70.169 28.0248 69.9204C28.5064 69.6718 29.0362 69.5294 29.578 69.5029C30.5976 69.4599 31.63 69.8535 32.3558 70.5695" stroke="black" stroke-width="2.06038" stroke-linecap="square"/>
<path d="M51.8539 77.2749C51.8539 76.3499 51.1269 75.5999 50.2289 75.5999C49.3339 75.5999 48.6069 76.3499 48.6069 77.2749C48.6069 78.2009 49.3339 78.9509 50.2289 78.9509C51.1269 78.9509 51.8539 78.2009 51.8539 77.2749Z" fill="white"/>
<path d="M64.1055 122.911L13.9122 99.0046L1.37305 44.9868L35.9345 1.53852L91.5638 1.3728L126.38 44.6139L114.156 98.7042L64.1055 122.911Z" stroke="#892CA0" stroke-width="2.74564" stroke-linecap="round" stroke-linejoin="round"/>
<path d="M15.9307 84.6963H67.5077M40.4342 94.9654H111.966" stroke="#3C6EB4" stroke-width="2.74564"/>
<path d="M106.442 93.676C105.836 89.5797 105.542 85.1235 104.427 79.8802C103.199 73.4018 99.0635 68.0575 93.6769 66.1C89.2345 64.5568 80.009 64.5542 76.0946 66.1C70.7106 68.0575 66.5698 73.4018 65.3474 79.8802C64.2289 85.1235 63.9376 89.5797 63.3315 93.6786" stroke="black" stroke-width="2.06052"/>
<path d="M99.2321 90.057C99.2321 88.737 98.2091 87.667 96.9521 87.667C95.6891 87.667 94.6661 88.737 94.6661 90.057C94.6661 91.377 95.6891 92.443 96.9511 92.443C98.2091 92.443 99.2321 91.377 99.2321 90.057ZM76.1661 90.057C76.1661 88.737 75.1431 87.667 73.8811 87.667C72.6191 87.667 71.6001 88.737 71.6001 90.057C71.6001 91.377 72.6201 92.443 73.8801 92.443C75.1431 92.443 76.1661 91.377 76.1661 90.057Z" fill="#E7E8E9"/>
<path d="M77.852 88.7424L69.3677 91.001M78.813 90.0568L70.2813 94.9495" stroke="#A7A9AC" stroke-width="1.37267"/>
<path d="M93.6515 88.7454L102.138 91.0022M92.6924 90.0561L101.222 94.9507" stroke="#A7A9AC" stroke-width="1.37267"/>
<path d="M92.9804 88.3861C92.9804 84.5617 89.7006 81.4597 85.6535 81.4597C81.6038 81.4597 78.3213 84.5617 78.3213 88.3861C78.3213 92.2104 81.6038 95.3098 85.6535 95.3098C89.7006 95.3098 92.9804 92.2104 92.9804 88.3861Z" fill="white" stroke="#60605B" stroke-width="2.06052" stroke-linecap="square"/>
<path d="M93.3415 82.4643C93.3415 80.4783 94.9229 78.8704 96.871 78.8704C98.8217 78.8704 100.398 80.4783 100.398 82.4643C100.398 84.4503 98.8217 86.0608 96.871 86.0608C94.9203 86.0608 93.3415 84.4503 93.3415 82.4617V82.4643Z" fill="black" stroke="#892CA0" stroke-width="2.06052" stroke-linecap="square"/>
<path d="M100.037 74.9347C99.6792 74.4796 99.2275 74.1064 98.7123 73.8406C98.1971 73.5747 97.6303 73.4225 97.0507 73.3941C96.5038 73.3739 95.9587 73.465 95.4484 73.6618C94.9381 73.8586 94.4735 74.1569 94.083 74.5386" stroke="black" stroke-width="2.06052" stroke-linecap="square"/>
<path d="M85.6636 87.1912L85.8434 90.7732C85.8434 90.7732 88.726 93.3423 90.4098 90.7136C90.4098 90.7136 90.2264 89.2223 90.1084 88.7456M85.6291 87.1912L85.4474 90.7732C85.4474 90.7732 82.5666 93.3423 80.8828 90.7136C80.8828 90.7136 81.0627 89.2223 81.1826 88.7456" stroke="black" stroke-width="2.05901"/>
<path d="M88.7768 87.1355C88.5324 86.5011 88.5324 85.2375 87.7989 85.2375C87.0603 85.2375 86.3762 84.7637 85.6531 84.7637C84.9249 84.7637 84.2434 85.2375 83.5073 85.2375C82.7712 85.2375 82.7713 86.5011 82.5242 87.1355C82.2771 87.7672 85.6531 89.8231 85.6531 89.8231C85.6531 89.8231 89.0239 87.7672 88.7768 87.1355Z" fill="#808080" stroke="black" stroke-width="2.06052" stroke-linecap="square"/>
<path d="M77.5565 82.4643C77.5565 80.4783 75.9778 78.8704 74.027 78.8704C72.0789 78.8704 70.4976 80.4783 70.4976 82.4643C70.4976 84.4503 72.0789 86.0608 74.027 86.0608C75.9778 86.0608 77.5565 84.4503 77.5565 82.4617V82.4643Z" fill="black" stroke="#892CA0" stroke-width="2.06052" stroke-linecap="square"/>
<path d="M74.5881 81.452C74.5881 80.462 73.8111 79.658 72.8541 79.658C71.8971 79.658 71.1191 80.463 71.1191 81.451C71.1191 82.443 71.8971 83.244 72.8541 83.244C73.8111 83.244 74.5881 82.444 74.5881 81.451V81.452Z" fill="white"/>
<path d="M70.8589 74.9348C71.2163 74.4797 71.6679 74.1065 72.1832 73.8406C72.6984 73.5748 73.265 73.4225 73.8447 73.3942C74.3923 73.3738 74.9385 73.4647 75.4496 73.6615C75.9608 73.8583 76.4262 74.1567 76.8176 74.5386" stroke="black" stroke-width="2.06052" stroke-linecap="square"/>
<path d="M97.7952 81.686C97.7952 80.697 97.0182 79.896 96.0612 79.896C95.1042 79.896 94.3262 80.697 94.3262 81.686C94.3262 82.678 95.1042 83.479 96.0612 83.479C97.0182 83.479 97.7952 82.678 97.7952 81.686Z" fill="white"/>
<path d="M34.9253 101.817H68.0174M54.1958 108.671H81.446" stroke="#3C6EB4" stroke-width="2.74564"/>
</svg>
