<svg width="128" height="128" viewBox="0 0 128 128" fill="none" xmlns="http://www.w3.org/2000/svg">
<path d="M22.1509 78.306C23.687 80.1936 25.3077 82.0108 27.0079 83.752C21.8219 85.312 18.4219 88.21 16.3019 90.769C12.9459 94.819 11.1699 100.167 11.5789 104.757H2.64893C4.43893 100.87 11.5889 89.642 22.1519 78.307L22.1509 78.306ZM125.6 107.192H114.743C89.8329 94.193 67.9629 85.027 44.7309 83.025C44.7799 79.792 45.3549 76.132 46.4619 72.053L44.3219 71.477C43.1859 75.669 42.5899 79.462 42.5219 82.857C40.1009 82.695 37.6649 82.617 35.2049 82.617C33.1239 82.617 31.2249 82.808 29.4929 83.143C27.2349 80.889 25.3109 78.735 23.6779 76.693C34.3919 65.534 52.0409 55.438 67.4009 51.64C71.7259 66.016 81.0099 75.866 92.2769 82.493C93.1033 82.0225 93.9153 81.5272 94.7119 81.008L114.368 102.168L115.228 102.095C120.596 101.633 123.647 104.545 124.454 105.451C125.049 106.11 125.404 106.715 125.6 107.192Z" fill="#D1A41A"/>
<path d="M116.011 36.412C116.41 55.94 106.447 71.482 92.4982 79.452C68.8232 67.66 64.3652 37.776 68.4002 21.747C69.5222 27.877 71.5642 31.72 75.9722 33.604C85.5862 30.854 98.8162 30.637 108.562 33.324C112.622 30.372 114.196 25.86 115.057 21.919C116.129 26.504 116.007 36.413 116.011 36.413V36.412Z" fill="#FFDC76"/>
<path d="M49.099 58.246L56.459 54.901L60.07 65.603L49.099 58.246ZM41.607 62.126L45.891 59.584L49.768 66.272L41.607 62.126ZM33.312 67.61L37.058 64.8L38.931 71.492L33.312 67.61ZM99.539 85.273L96.862 82.73L93.384 88.083L99.539 85.273ZM104.493 91.158L102.348 88.884L96.73 93.164L104.493 91.158ZM95.529 30.684L88.705 30.818L92.853 39.916L95.529 30.684ZM68.365 47.943L67.696 44.063L74.255 47.542L68.365 47.943ZM69.969 53.696L69.3 51.155L73.315 52.76L69.969 53.696ZM115.194 49.55L116.134 46.606L110.781 48.88L115.194 49.55ZM113.187 55.57L113.989 53.162L109.841 54.366L113.187 55.57Z" fill="black"/>
<path d="M65.541 63.203H78.454V64.797H65.541V63.203ZM65.541 59.377H78.454V60.971H65.541V59.377ZM104.971 63.203H117.883V64.797H104.971V63.203ZM104.971 59.377H117.883V60.971H104.971V59.377ZM100.42 49.926H79.377V48.49H85.925C86.732 45.037 86.891 41.737 85.919 40.064C85.503 39.354 84.929 39.021 84.111 39.021C80.367 39.021 78.821 42.98 78.756 43.148L78.757 43.147L77.414 42.643C77.491 42.436 79.364 37.586 84.111 37.586C85.436 37.586 86.489 38.194 87.157 39.343C88.343 41.38 88.204 44.905 87.4 48.49H98.89C100.417 44.005 103.604 41.89 108.93 41.89V43.325C103.158 43.325 101.54 45.772 100.386 48.49H106.656L106.641 49.918L100.419 49.925L100.42 49.926ZM101.364 57.011L101.374 57.01L101.364 57.011ZM101.364 57.011L101.374 57.01L101.364 57.011Z" fill="black"/>
<path d="M101.364 57.011L101.374 57.01C99.6722 54.5 99.1322 52.358 99.8442 49.919L98.3822 49.926C97.8732 51.55 98.0772 53.996 99.3322 56.096H84.7322C85.6202 54.316 86.4432 52.147 87.0452 49.926H85.5592C84.8952 52.281 83.9642 54.612 82.9152 56.458L82.5762 57.055L90.7692 62.212L86.1572 65.252L86.9472 66.45L92.1022 63.051L97.6682 66.683L98.4322 65.469L93.2722 62.277C93.2722 62.277 100.988 57.265 101.371 57.02C101.368 57.017 101.367 57.014 101.365 57.01L101.364 57.011ZM92.0852 61.345L86.0252 57.53L97.8682 57.533L92.0852 61.345Z" fill="black"/>
<path d="M118.417 34.682C118.408 32.187 117.631 21.644 116.203 18.741C112.331 20.212 105.286 24.98 103.691 29.854C96.0488 28.714 87.4338 28.848 79.8868 30.154C78.6268 24.909 72.2988 20.896 67.5248 18.634C65.5108 22.032 64.6188 29.911 64.8448 35.5L64.8188 35.518C65.7048 58.986 77.2178 73.598 92.2718 82.454C107.762 73.604 118.827 56.35 118.398 34.671L118.418 34.681L118.417 34.682ZM105.529 30.157L105.698 30.188L105.528 30.158L105.529 30.157ZM104.565 29.991C104.701 30.013 104.838 30.037 104.974 30.061L104.565 29.991ZM116.008 36.375C116.406 55.903 106.443 71.445 92.4948 79.415C68.8208 67.62 64.3608 37.739 68.3978 21.71C69.5208 27.837 71.5578 31.681 75.9718 33.566C85.5818 30.816 98.8118 30.599 108.558 33.286C112.619 30.333 114.194 25.823 115.054 21.882C116.129 26.468 116.004 36.374 116.008 36.376V36.375Z" fill="black"/>
<path d="M126.107 103.935C123.676 101.215 118.913 99.928 114.935 100.023C112.112 96.663 95.745 79.427 95.745 79.427L94.611 80.856L114.371 102.129L115.228 102.055C120.597 101.595 123.648 104.507 124.457 105.41C125.049 106.073 125.407 106.677 125.601 107.152H114.741C89.83 94.152 67.961 84.987 44.728 82.989C44.778 79.756 45.354 76.096 46.458 72.019L44.322 71.439C43.187 75.631 42.588 79.427 42.521 82.821C40.101 82.661 37.664 82.577 35.206 82.577C33.121 82.577 31.223 82.771 29.492 83.107C27.233 80.85 25.31 78.699 23.675 76.657C34.465 65.416 52.285 55.255 67.723 51.519L67.222 49.356C50.597 53.366 32.399 64.279 22.259 74.823C17.553 68.471 15.686 63.259 15.131 59.309C14.431 54.32 15.621 49.744 18.575 46.074C23.198 40.331 29.767 39.926 36.521 41.062C36.39 42.129 36.53 43.149 36.957 43.779C38.743 46.418 48.344 47.345 54.074 44.788C49.845 38.862 41.279 35.968 38.906 37.128C38.12 37.512 37.526 38.218 37.12 39.04C34.785 38.622 32.466 38.311 30.772 38.324C24.815 38.368 20.261 40.449 16.85 44.687C13.503 48.844 12.15 54.007 12.938 59.617C13.684 64.931 16.315 70.583 20.724 76.443C19.992 77.229 19.284 78.005 18.602 78.767C7.856 90.792 0 103.687 0 105.824V106.931H14.177L13.929 105.618C13.129 101.386 14.727 96.098 18.002 92.144C20.059 89.663 23.464 86.83 28.811 85.524C33.565 90.164 39.623 95.091 46.365 99.845H56.901V98.738C56.901 97.489 56.281 96.396 55.157 95.66C53.492 94.572 50.923 94.422 48.563 95.227C46.313 92.721 45.051 89.374 44.779 85.216C67.644 87.24 89.515 96.474 114.191 109.366H127.769L127.947 108.476C128.201 107.209 127.51 105.511 126.101 103.935H126.107ZM16.303 90.729C12.949 94.777 11.171 100.124 11.579 104.714H2.646C4.441 100.831 11.589 89.604 22.151 78.264C23.687 80.1526 25.308 81.9705 27.009 83.712C21.823 85.271 18.423 88.169 16.302 90.729H16.303Z" fill="black"/>
</svg>
