<svg width="128" height="128" viewBox="0 0 128 128" fill="none" xmlns="http://www.w3.org/2000/svg">
<path d="M40.255 127.637C88.56 127.637 114.974 78.68 114.974 36.234C114.974 34.844 114.974 33.457 114.899 32.078C120.04 27.531 124.478 21.898 128.001 15.445C123.211 18.047 118.13 19.75 112.923 20.508C118.403 16.488 122.505 10.172 124.462 2.734C119.306 6.477 113.665 9.114 107.782 10.535C99.646 -0.0510044 86.712 -2.645 76.235 4.215C65.763 11.075 60.353 25.675 63.036 39.832C41.923 38.539 22.247 26.336 8.916 6.27C1.934 20.94 5.488 39.723 17.023 49.16C12.875 48.988 8.816 47.605 5.191 45.129V45.539C5.191 60.812 13.977 73.977 26.211 77.031C22.3851 78.317 18.2754 78.5051 14.348 77.574C17.785 90.668 27.645 99.644 38.883 99.902C29.578 108.82 18.09 113.652 6.266 113.622C4.172 113.622 2.078 113.472 0 113.176C12.008 122.609 25.98 127.617 40.254 127.598" fill="#1DA1F2"/>
</svg>
