<svg width="128" height="128" viewBox="0 0 128 128" fill="none" xmlns="http://www.w3.org/2000/svg">
<path opacity="0.998" d="M105.09 59.8398C104.151 59.8398 103.251 60.2128 102.587 60.8766C101.923 61.5405 101.55 62.4409 101.55 63.3798V64.7198C101.55 65.6587 101.923 66.5591 102.587 67.223C103.251 67.8868 104.151 68.2598 105.09 68.2598H124.47C125.409 68.2598 126.309 67.8868 126.973 67.223C127.637 66.5591 128.01 65.6587 128.01 64.7198V63.3798C128.01 62.4409 127.637 61.5405 126.973 60.8766C126.309 60.2128 125.409 59.8398 124.47 59.8398H105.09ZM3.54 41.7998C2.60113 41.7998 1.70072 42.1728 1.03684 42.8366C0.372963 43.5005 0 44.4009 0 45.3398V46.6898C0 47.6287 0.372963 48.5291 1.03684 49.193C1.70072 49.8568 2.60113 50.2298 3.54 50.2298H22.92C23.8589 50.2298 24.7593 49.8568 25.4232 49.193C26.087 48.5291 26.46 47.6287 26.46 46.6898V45.3398C26.46 44.4009 26.087 43.5005 25.4232 42.8366C24.7593 42.1728 23.8589 41.7998 22.92 41.7998H3.54ZM3.54 77.8698C2.60113 77.8698 1.70072 78.2428 1.03684 78.9067C0.372963 79.5705 0 80.4709 0 81.4098V82.7498C0 83.2147 0.0915648 83.675 0.269466 84.1045C0.447368 84.534 0.708123 84.9242 1.03684 85.253C1.36556 85.5817 1.75581 85.8424 2.1853 86.0203C2.61479 86.1982 3.07512 86.2898 3.54 86.2898H22.92C23.3849 86.2898 23.8452 86.1982 24.2747 86.0203C24.7042 85.8424 25.0944 85.5817 25.4232 85.253C25.7519 84.9242 26.0126 84.534 26.1905 84.1045C26.3684 83.675 26.46 83.2147 26.46 82.7498V81.4098C26.46 80.4709 26.087 79.5705 25.4232 78.9067C24.7593 78.2428 23.8589 77.8698 22.92 77.8698H3.54Z" fill="#BEC7CC"/>
<path opacity="0.998" d="M29.7597 22.4599C25.3397 22.3699 21.6997 25.4499 21.6997 29.2799V98.7099C21.6997 103.96 28.2597 107.24 33.5097 104.62L103 69.8999C108.25 67.2799 108.25 60.7199 103 58.0999L33.5097 23.3799C32.3418 22.8046 31.0614 22.4939 29.7597 22.4699V22.4599Z" fill="#FFD500"/>
<path opacity="0.998" d="M64.5397 67.07H52.5897V79.06H46.4397V67.08H34.4897V61H46.4397V49.02H52.5897V61.01H64.5397V67.07Z" fill="#727B84"/>
</svg>
