<svg width="400" height="254" viewBox="0 0 400 254" fill="none" xmlns="http://www.w3.org/2000/svg">
<path d="M178.835 152.701C156.148 178.967 144.342 182.475 128.808 183.081C96.9856 184.321 43.2996 132.454 31.4612 138.27C19.6227 144.085 9.0105 156.264 5.4768 179.705C1.94309 203.146 60.2162 234.611 106.169 245.923C134.08 252.794 164.298 254.589 200.316 216.378C236.335 178.167 266.89 90.4861 293.373 83.1742C319.857 75.8623 344.955 111.132 361.724 111.88C369.405 112.222 395.848 109.164 395.293 91.4692C394.738 73.7745 332.048 16.9218 301.822 4.92695C289.296 -0.0437919 276.974 5.00276 262.949 23.9412C238.157 57.4178 201.522 126.434 178.835 152.701Z" stroke="#36C3AD"/>
</svg>
