<svg width="165" height="105" viewBox="0 0 165 105" fill="none" xmlns="http://www.w3.org/2000/svg">
<path d="M73.4026 63.2735C63.805 74.3853 58.8104 75.8693 52.2389 76.1254C38.7768 76.6502 16.0654 54.7085 11.0573 57.1687C6.04915 59.6289 1.55974 64.7809 0.0648333 74.6974C-1.43007 84.614 23.2218 97.9248 42.662 102.71C54.4693 105.617 67.2525 106.377 82.4898 90.2116C97.7272 74.0466 110.653 36.9542 121.857 33.861C133.061 30.7677 143.678 45.6884 150.772 46.0045C154.021 46.1493 165.208 44.8557 164.973 37.3701C164.738 29.8845 138.218 5.83348 125.431 0.759185C120.132 -1.34364 114.919 0.791254 108.986 8.80298C98.4982 22.965 83.0001 52.1617 73.4026 63.2735Z" fill="#1A1A1A"/>
</svg>
