<?xml version="1.0" encoding="UTF-8"?>
<svg version="1.1" xmlns="http://www.w3.org/2000/svg" width="2048" height="2048">
<path d="M0 0 C2.64794355 -0.00302246 5.29587548 -0.00683196 7.94381541 -0.01159257 C13.68952323 -0.02032681 19.4351954 -0.0216766 25.1809082 -0.01808929 C33.72532153 -0.0127688 42.26970052 -0.01889111 50.81411011 -0.02717223 C66.96415057 -0.04239492 83.11417533 -0.04411909 99.26422147 -0.0416492 C111.73707982 -0.03981501 124.20993304 -0.04157879 136.68279076 -0.04587364 C138.47612508 -0.04647605 140.2694594 -0.04707725 142.06279373 -0.04767724 C144.76532943 -0.04858452 147.46786514 -0.04949319 150.17040084 -0.0504096 C175.29009572 -0.05883652 200.40978866 -0.06317661 225.52948475 -0.05900288 C226.47601933 -0.0588465 227.42255392 -0.05869012 228.39777137 -0.05852901 C233.19494786 -0.05772325 237.99212435 -0.05687748 242.78930084 -0.05601571 C244.21834737 -0.05575908 244.21834737 -0.05575908 245.67626353 -0.05549726 C247.60284838 -0.0551506 249.52943322 -0.05480207 251.45601807 -0.05445167 C281.4329045 -0.04909462 311.40976151 -0.05702552 341.38664246 -0.07548523 C375.0829974 -0.09621119 408.77933412 -0.10692683 442.47569579 -0.10290974 C446.07008755 -0.10251441 449.66447931 -0.10215286 453.25887108 -0.10181236 C454.58637008 -0.10167627 454.58637008 -0.10167627 455.94068725 -0.10153742 C469.28761237 -0.10037253 482.63451907 -0.10701143 495.98143959 -0.11762428 C511.16437639 -0.1296849 526.34727265 -0.13122528 541.53021006 -0.11883412 C550.02083117 -0.11221442 558.51135529 -0.11381603 567.00196861 -0.12742263 C572.68154218 -0.13568802 578.36104335 -0.13294255 584.04061108 -0.12144736 C587.2712339 -0.11521157 590.50163171 -0.11521178 593.73225019 -0.1253107 C621.97371389 -0.20744227 648.51507148 3.91459411 669.42936707 24.49116516 C670.33428894 25.40511047 671.23921082 26.31905579 672.17155457 27.26069641 C672.97335144 28.04057922 673.77514832 28.82046204 674.60124207 29.62397766 C686.89808077 42.28248809 692.3946556 58.40269358 697.73405457 74.82319641 C698.45657047 77.00119255 699.1809194 79.1785813 699.90690613 81.35542297 C701.49106457 86.11018331 703.06726187 90.86748647 704.63883972 95.62641907 C707.25459232 103.53057156 709.91678652 111.4186266 712.58952332 119.30366516 C712.82305449 119.99278173 713.05658566 120.68189831 713.29719353 121.3918972 C714.26143271 124.23708493 715.22581354 127.08222457 716.19047832 129.92726803 C719.00058771 138.21589523 721.80117768 146.50773398 724.60124207 154.79975891 C724.86457399 155.57949884 725.12790592 156.35923878 725.39921761 157.16260719 C733.04771447 179.81062165 740.68419075 202.46269224 748.32081032 225.11471367 C756.63971447 249.79051912 764.96447175 274.46433777 773.29655457 299.13569641 C773.83137563 300.71932458 774.36619619 302.30295291 774.90101624 303.88658142 C775.43577572 305.47002666 775.97053524 307.0534719 776.5052948 308.63691711 C777.30757346 311.01249838 778.10985129 313.38807992 778.91212654 315.76366234 C779.44684673 317.34699777 779.98156937 318.93033238 780.51629448 320.51366615 C786.88307414 339.36599027 793.24626758 358.21952443 799.60905457 377.07319641 C800.17352775 378.74578358 800.73800122 380.41837066 801.30247498 382.09095764 C803.56279323 388.78850011 805.823093 395.48604882 808.08335876 402.18360901 C812.03058515 413.8799253 815.9779634 425.57619034 819.92546082 437.27241516 C820.3429424 438.50939116 820.3429424 438.50939116 820.76885796 439.77135658 C822.17425704 443.93547766 823.57965876 448.09959786 824.98506165 452.26371765 C827.51596986 459.7626426 830.0468548 467.26157541 832.57774162 474.76050758 C833.98401166 478.92723751 835.39028319 483.09396694 836.79655457 487.26069641 C837.35905457 488.92736308 837.92155457 490.59402974 838.48405457 492.26069641 C838.76249207 493.08569641 839.04092957 493.91069641 839.32780457 494.76069641 C867.17155457 577.26069641 895.01530457 659.76069641 1166.70281887 1464.76073933 C1167.26527076 1466.42726309 1167.82772307 1468.0937867 1168.39017582 1469.76031017 C1169.79716544 1473.92916213 1171.20414761 1478.0980166 1172.6111145 1482.26687622 C1175.13352473 1489.74078397 1177.65598446 1497.21467499 1180.17872906 1504.68846989 C1181.5735104 1508.82060568 1182.96824721 1512.9527565 1184.36296082 1517.08491516 C1184.63957613 1517.9044486 1184.91619144 1518.72398205 1185.20118904 1519.56834984 C1189.0085325 1530.84871902 1192.81382336 1542.12977883 1196.61756897 1553.41136169 C1198.73751415 1559.6989052 1200.85803831 1565.98625339 1202.97868156 1572.27356148 C1204.41063998 1576.5191929 1205.84229256 1580.76492684 1207.27311707 1585.01094055 C1208.60314167 1588.9578023 1209.93390244 1592.90441501 1211.26530838 1596.850811 C1211.78077711 1598.37891304 1212.29604572 1599.9070826 1212.81110764 1601.43532181 C1215.68019233 1609.94630182 1218.57466447 1618.44766158 1221.51579285 1626.93403625 C1222.06676643 1628.52726407 1222.61771583 1630.12050026 1223.16864014 1631.71374512 C1224.20020481 1634.69620962 1225.23841228 1637.67623871 1226.28079224 1640.65493774 C1235.98827856 1668.58260939 1237.84908357 1694.93520663 1224.76139832 1722.19819641 C1221.51415701 1728.43289971 1217.66075879 1733.86748767 1213.17155457 1739.26069641 C1212.70104675 1739.86526672 1212.23053894 1740.46983704 1211.74577332 1741.09272766 C1198.38593538 1757.76430007 1176.53909965 1767.19439337 1155.84636171 1769.98349932 C1146.09094341 1770.99447822 1136.20021824 1770.66906606 1126.40652466 1770.64164734 C1123.70562562 1770.64510823 1121.00475183 1770.64975358 1118.30385977 1770.65582907 C1112.45483803 1770.66660612 1106.60589953 1770.66637145 1100.75687408 1770.65868759 C1092.0589124 1770.6472924 1083.36102033 1770.653166 1074.66305904 1770.66231251 C1059.1245594 1770.67807528 1043.58609687 1770.67675437 1028.04759374 1770.66807578 C1014.44993363 1770.66051878 1000.8522871 1770.65856382 987.25462532 1770.66214371 C986.3514451 1770.66237286 985.44826487 1770.66260202 984.51771555 1770.66283812 C980.8511042 1770.66377218 977.18449287 1770.66472739 973.51788153 1770.66571741 C939.14772899 1770.67488698 904.77760003 1770.66658566 870.40745114 1770.65042672 C839.89285254 1770.63618952 809.37829151 1770.63746566 778.86369324 1770.65180969 C744.55349879 1770.66788415 710.24332516 1770.6742378 675.93312746 1770.6649729 C672.27364099 1770.6640108 668.61415452 1770.66307227 664.95466805 1770.66214371 C664.05365691 1770.66190648 663.15264577 1770.66166924 662.22433126 1770.66142482 C648.63680164 1770.65801689 635.0492871 1770.66199485 621.46175957 1770.66958237 C606.00809327 1770.67816913 590.55446977 1770.67599644 575.10080879 1770.65974014 C566.45908902 1770.65094869 557.81746196 1770.65033102 549.17574465 1770.66167866 C543.39559039 1770.66842971 537.61551012 1770.66417619 531.83536678 1770.65116435 C528.54737227 1770.64406255 525.25959636 1770.64318571 521.97160172 1770.6523823 C490.76035137 1770.73296324 466.23810267 1765.24539636 443.17155457 1743.26069641 C441.65440163 1741.90240765 440.13343844 1740.54836499 438.60905457 1739.19819641 C432.49169133 1733.69448717 426.52657226 1728.02951647 420.54264832 1722.38179016 C416.55620187 1718.61988284 412.55553708 1714.87356559 408.54655457 1711.13569641 C407.93594177 1710.56633362 407.32532898 1709.99697083 406.69621277 1709.41035461 C405.46900859 1708.26629567 404.24171408 1707.12233364 403.014328 1705.97846985 C399.89861551 1703.07410404 396.78521346 1700.16726342 393.67155457 1697.26069641 C392.42156539 1696.09401815 391.17156539 1694.92735148 389.92155457 1693.76069641 C328.04655457 1636.01069641 266.17155457 1578.26069641 97.42155457 1420.76069641 C96.8017572 1420.18222961 96.18195984 1419.60376282 95.54338074 1419.00776672 C94.30391679 1417.85091215 93.06449562 1416.69401174 91.82511902 1415.5370636 C88.53928202 1412.46987829 85.25252321 1409.40368812 81.96452332 1406.33882141 C81.277453 1405.69815735 80.59038269 1405.05749329 79.88249207 1404.39741516 C78.56114952 1403.16535252 77.23954648 1401.93356916 75.91764832 1400.70210266 C75.32467957 1400.14909485 74.73171082 1399.59608704 74.12077332 1399.02632141 C73.59830017 1398.53937805 73.07582703 1398.05243469 72.53752136 1397.55073547 C71.39686606 1396.47348389 70.28096105 1395.3701029 69.17155457 1394.26069641 C62.66322264 1411.99724221 56.56281934 1429.85477017 50.6348114 1447.79188538 C48.69935826 1453.64743892 46.75925816 1459.50145027 44.81608582 1465.35444641 C44.59542198 1466.01928669 44.37475815 1466.68412697 44.14740753 1467.36911392 C40.33339822 1478.85173287 36.4383707 1490.30577904 32.51921082 1501.75288391 C27.37588504 1516.77583897 22.27396087 1531.81215145 17.21061707 1546.86225891 C16.87208458 1547.86848108 16.53355209 1548.87470325 16.18476105 1549.91141701 C14.44008459 1555.09794421 12.69617783 1560.28472981 10.95271301 1565.47166443 C7.61715639 1575.39500208 4.27812082 1585.31716939 0.93924141 1595.23938942 C0.19178323 1597.46063202 -0.55564957 1599.68188316 -1.30305672 1601.90314293 C-8.11169788 1622.13789556 -14.93008445 1642.36933555 -21.76357269 1662.59571075 C-22.50476455 1664.79009413 -23.24550756 1666.98462848 -23.98609924 1669.17921448 C-26.92162982 1677.87711484 -29.8680232 1686.57122871 -32.82844543 1695.26069641 C-33.17522339 1696.28182526 -33.52200134 1697.3029541 -33.87928772 1698.35502625 C-34.82119233 1701.12255835 -35.77053243 1703.88740168 -36.72297668 1706.65132141 C-36.98398666 1707.42057449 -37.24499664 1708.18982758 -37.51391602 1708.98239136 C-41.40632423 1720.18648388 -47.1179166 1730.23418789 -54.82844543 1739.26069641 C-55.26157043 1739.83690735 -55.69469543 1740.41311829 -56.14094543 1741.00679016 C-68.81610828 1757.34115181 -91.10116746 1766.93191032 -111.00587702 1769.85525548 C-118.41809633 1770.64143293 -125.83908213 1770.53878671 -133.28517151 1770.52139282 C-135.13218758 1770.52441806 -136.9792024 1770.52830941 -138.82621503 1770.53298539 C-143.87194993 1770.54322614 -148.91761346 1770.5410936 -153.96335411 1770.5368048 C-159.41681551 1770.53433041 -164.87026005 1770.54336059 -170.32371521 1770.55084229 C-180.99645019 1770.56357175 -191.66915998 1770.56538514 -202.34190127 1770.56304202 C-211.02041495 1770.56125666 -219.69892101 1770.56301318 -228.37743378 1770.56726646 C-229.61412595 1770.56786165 -230.85081813 1770.56845684 -232.12498583 1770.56907007 C-234.63760446 1770.57028186 -237.15022308 1770.571496 -239.66284171 1770.57271244 C-260.52933276 1770.5823438 -281.39581331 1770.58279537 -302.26230535 1770.57740853 C-302.92524155 1770.57723744 -303.58817774 1770.57706635 -304.27120292 1770.57689008 C-305.61181947 1770.57654342 -306.95243601 1770.57619489 -308.29305256 1770.5758445 C-329.14666379 1770.57048895 -350.00023272 1770.57841551 -370.85383606 1770.59687805 C-394.31285851 1770.61762323 -417.77185882 1770.62828485 -441.23089147 1770.62430257 C-453.64081262 1770.62239265 -466.05069524 1770.62485761 -478.46060944 1770.63901711 C-489.02598009 1770.65095041 -499.59128851 1770.65231396 -510.15666005 1770.64022694 C-515.54205553 1770.63435183 -520.92733727 1770.63320087 -526.31272507 1770.64522934 C-531.25256407 1770.65613397 -536.19219498 1770.65293065 -541.13202444 1770.63896766 C-542.90918085 1770.63633328 -544.68635381 1770.63864718 -546.46349391 1770.64670352 C-574.68263038 1770.76564514 -599.14662219 1763.25572169 -619.82844543 1743.26069641 C-635.64623309 1726.61600923 -643.94893045 1704.00824546 -644.20344543 1681.26069641 C-644.22435242 1680.10622009 -644.22435242 1680.10622009 -644.24568176 1678.92842102 C-644.1392281 1665.59129731 -640.01202432 1652.98491832 -635.70344543 1640.51069641 C-635.18076262 1638.9741831 -634.65915332 1637.43730427 -634.13850403 1635.90010071 C-633.29339878 1633.40586844 -632.44740685 1630.911963 -631.5980072 1628.41918945 C-629.28442166 1621.62787043 -627.01064182 1614.82381838 -624.75032043 1608.01460266 C-624.21865768 1606.41384384 -624.21865768 1606.41384384 -623.67625427 1604.78074646 C-622.27226835 1600.55286537 -620.86862562 1596.32487087 -619.46607971 1592.09651184 C-614.82062257 1578.10139635 -610.08680809 1564.1381335 -605.31282043 1550.18647766 C-598.0082576 1528.83780732 -590.80464849 1507.45567321 -583.61564636 1486.06785583 C-579.87522703 1474.93990584 -576.13099941 1463.81323672 -572.38703918 1452.68647766 C-571.82905482 1451.0280613 -571.82905482 1451.0280613 -571.25979805 1449.33614159 C-564.69533266 1429.82612656 -558.11282862 1410.32227103 -551.51594543 1390.82319641 C-549.61084093 1385.19173896 -547.70585939 1379.56023992 -545.80110168 1373.92866516 C-545.56397083 1373.22758511 -545.32683998 1372.52650505 -545.08252335 1371.80418015 C-538.52625034 1352.41915578 -531.99058593 1333.02717904 -525.45344543 1313.63569641 C-522.98999334 1306.32837454 -520.52646981 1299.02107677 -518.06282043 1291.71382141 C-517.75916754 1290.81317522 -517.45551464 1289.91252903 -517.14266014 1288.98459053 C-510.66867793 1269.78301508 -504.1871492 1250.58399107 -497.70344543 1231.38569641 C-497.16862437 1229.80206825 -496.63380381 1228.21843991 -496.09898376 1226.6348114 C-495.56422428 1225.05136616 -495.02946476 1223.46792093 -494.4947052 1221.88447571 C-493.69242654 1219.50889444 -492.89014871 1217.1333129 -492.08787346 1214.75773048 C-491.55315327 1213.17439505 -491.01843063 1211.59106044 -490.48370552 1210.00772667 C-484.11692586 1191.15540255 -477.75373242 1172.30186839 -471.39094543 1153.44819641 C-470.82647225 1151.77560924 -470.26199878 1150.10302216 -469.69752502 1148.43043518 C-467.43720677 1141.73289271 -465.176907 1135.035344 -462.91664124 1128.33778381 C-458.96941485 1116.64146752 -455.0220366 1104.94520249 -451.07453918 1093.24897766 C-450.79621813 1092.42432699 -450.51789707 1091.59967632 -450.23114204 1090.75003624 C-448.82574296 1086.58591516 -447.42034124 1082.42179497 -446.01493835 1078.25767517 C-443.48403014 1070.75875022 -440.9531452 1063.25981741 -438.42225838 1055.76088524 C-437.01598834 1051.59415531 -435.60971681 1047.42742589 -434.20344543 1043.26069641 C-433.64094543 1041.59402975 -433.07844543 1039.92736308 -432.51594543 1038.26069641 C-390.75032043 914.51069641 -390.75032043 914.51069641 -159.14094543 228.26069641 C-158.86250196 227.43567816 -158.58405848 226.6106599 -158.29717731 225.7606411 C-157.73473903 224.09415837 -157.17229943 222.42767608 -156.60985851 220.76119423 C-155.20265355 216.59171701 -153.79547147 212.42223206 -152.38833618 208.25273132 C-149.86851342 200.78628453 -147.3485411 193.31988842 -144.82769108 185.85378838 C-143.43590032 181.73165075 -142.04424667 177.60946685 -140.65266418 173.48725891 C-140.37653479 172.6693047 -140.10040539 171.85135048 -139.81590843 171.00860977 C-135.96458078 159.59928268 -132.11968566 148.18780398 -128.27928162 136.77479553 C-126.12548604 130.37418736 -123.9699614 123.97416185 -121.81406593 117.57426071 C-120.34963536 113.2265731 -118.88616886 108.87856642 -117.42512512 104.52973938 C-107.08228768 73.74705259 -107.08228768 73.74705259 -102.27766418 60.40913391 C-101.97250381 59.55532135 -101.66734344 58.70150879 -101.35293579 57.82182312 C-93.09164741 35.21800602 -75.88352626 18.03130985 -54.34016418 7.83100891 C-36.51005045 -0.14196742 -19.17471525 -0.03096848 0 0 Z M295.17155457 723.26069641 C285.26237734 751.46720427 275.56367409 779.73797952 266.05076599 808.08045959 C263.22838097 816.48798037 260.40145097 824.8939749 257.57389832 833.29975891 C257.11294297 834.67025768 257.11294297 834.67025768 256.6426754 836.0684433 C247.40316311 863.53214095 238.04788297 890.95585645 228.50932312 918.31718445 C220.90085631 940.16083991 213.50662256 962.07151608 206.24308777 984.03218079 C201.79303519 997.47445573 197.26398415 1010.88729354 192.67936707 1024.28413391 C185.06333446 1046.53997546 177.52813718 1068.82276804 170.01628113 1091.1139679 C168.13157294 1096.70617572 166.24320501 1102.29714145 164.35418129 1107.88789272 C162.88357936 1112.24244501 161.41562498 1116.5978863 159.94842148 1120.95358467 C159.25167357 1123.02047238 158.55391189 1125.08701865 157.85510635 1127.15321159 C156.89347664 1129.99726155 155.93559906 1132.84254774 154.97868347 1135.68818665 C154.69210373 1136.53295563 154.40552399 1137.37772461 154.11026001 1138.24809265 C152.69019431 1142.16735136 152.69019431 1142.16735136 152.17155457 1146.26069641 C246.55155457 1146.26069641 340.93155457 1146.26069641 438.17155457 1146.26069641 C436.16401336 1138.899712 434.07636534 1131.68890689 431.65202332 1124.47163391 C431.31213882 1123.45243866 430.97225433 1122.43324341 430.62207031 1121.38316345 C429.89983636 1119.21946933 429.17615231 1117.05625876 428.45109558 1114.89350891 C427.39695416 1111.74875971 426.34727314 1108.60255443 425.29850769 1105.45600891 C420.79867457 1091.9797971 416.21971788 1078.53142882 411.62077332 1065.08882141 C404.32856725 1043.77250108 397.13673459 1022.42286743 389.95875549 1001.06785583 C386.21833616 989.93990584 382.47410854 978.81323672 378.73014832 967.68647766 C378.35815874 966.58086676 377.98616917 965.47525585 377.60290718 964.33614159 C371.03844189 944.82612686 364.45606444 925.32222798 357.85905457 905.82319641 C355.96046748 900.21126784 354.06196503 894.59931066 352.16374207 888.98725891 C351.92721861 888.28800104 351.69069515 887.58874317 351.44700432 886.86829567 C347.28807135 874.57184184 343.13846446 862.27225249 338.99186707 849.97163391 C338.68402031 849.05842691 338.37617355 848.14521992 338.05899811 847.20433998 C336.17934329 841.62832377 334.29985441 836.05225163 332.4203949 830.47616959 C320.37062256 794.72640728 308.28996076 758.9872529 296.17155457 723.26069641 C295.84155457 723.26069641 295.51155457 723.26069641 295.17155457 723.26069641 Z " fill="#0B59A2" transform="translate(728.8284454345703,138.7393035888672)"/>
<path d="M0 0 C59.16906119 -0.05136751 118.33812469 -0.09912775 177.50720215 -0.12702942 C178.38325972 -0.12744359 179.2593173 -0.12785776 180.16192207 -0.12828448 C199.20211748 -0.13726371 218.24231312 -0.14557418 237.28250912 -0.15319599 C246.62014285 -0.15693792 255.95777652 -0.16082759 265.29541016 -0.16479492 C266.22460501 -0.1651872 267.15379986 -0.16557948 268.11115213 -0.16598364 C298.21595199 -0.17876217 328.32073492 -0.20129199 358.42552453 -0.22889166 C389.36833212 -0.25720802 420.31113036 -0.27566064 451.2539507 -0.28174497 C455.62682511 -0.2826094 459.99969948 -0.28358631 464.37257385 -0.28463173 C465.66350982 -0.28493513 465.66350982 -0.28493513 466.98052531 -0.28524467 C480.82073466 -0.28878649 494.66091503 -0.30269168 508.50111258 -0.3204961 C522.42333363 -0.33818401 536.34552601 -0.34489738 550.26775789 -0.34050413 C558.5339186 -0.33822661 566.7999742 -0.34426792 575.06611588 -0.36239263 C581.2479022 -0.37501794 587.42958793 -0.37185623 593.61137825 -0.36269668 C596.10559275 -0.36143217 598.5998162 -0.36521128 601.09401315 -0.37464955 C629.13916457 -0.47457253 655.51245991 3.8201126 676.2578125 24.23046875 C677.61519531 25.60138672 677.61519531 25.60138672 679 27 C679.80179688 27.77988281 680.60359375 28.55976563 681.4296875 29.36328125 C693.7265262 42.02179168 699.22310103 58.14199717 704.5625 74.5625 C705.28501591 76.74049614 706.00936484 78.91788488 706.73535156 81.09472656 C708.31951 85.8494869 709.8957073 90.60679006 711.46728516 95.36572266 C714.08303776 103.26987515 716.74523196 111.15793019 719.41796875 119.04296875 C719.65149992 119.73208532 719.88503109 120.4212019 720.12563896 121.13120079 C721.08987814 123.97638852 722.05425897 126.82152816 723.01892376 129.66657162 C725.82903314 137.95519882 728.62962311 146.24703757 731.4296875 154.5390625 C731.69301943 155.31880243 731.95635136 156.09854237 732.22766304 156.90191078 C739.8761599 179.54992524 747.51263618 202.20199583 755.14925575 224.85401726 C763.46815991 249.52982271 771.79291719 274.20364136 780.125 298.875 C780.65982107 300.45862816 781.19464162 302.0422565 781.72946167 303.62588501 C782.26422115 305.20933025 782.79898068 306.79277548 783.33374023 308.3762207 C784.1360189 310.75180197 784.93829673 313.12738351 785.74057198 315.50296593 C786.27529216 317.08630136 786.8100148 318.66963597 787.34473991 320.25296974 C793.71151958 339.10529386 800.07471302 357.95882802 806.4375 376.8125 C807.00197319 378.48508717 807.56644666 380.15767425 808.13092041 381.83026123 C810.39123866 388.5278037 812.65153843 395.22535241 814.9118042 401.9229126 C818.85903059 413.61922889 822.80640883 425.31549392 826.75390625 437.01171875 C827.17138783 438.24869475 827.17138783 438.24869475 827.59730339 439.51066017 C829.00270248 443.67478125 830.40810419 447.83890144 831.81350708 452.00302124 C834.34441529 459.50194619 836.87530024 467.000879 839.40618706 474.49981117 C840.8124571 478.6665411 842.21872862 482.83327052 843.625 487 C844.18750001 488.66666666 844.75000001 490.33333333 845.3125 492 C845.73015625 493.2375 845.73015625 493.2375 846.15625 494.5 C874 577 901.84375 659.5 1173.53126431 1464.50004292 C1174.09371619 1466.16656668 1174.65616851 1467.83309029 1175.21862125 1469.49961376 C1176.62561088 1473.66846572 1178.03259304 1477.83732019 1179.43955994 1482.00617981 C1181.96197016 1489.48008756 1184.48442989 1496.95397858 1187.00717449 1504.42777348 C1188.40195584 1508.55990927 1189.79669265 1512.69206009 1191.19140625 1516.82421875 C1191.46802156 1517.64375219 1191.74463688 1518.46328564 1192.02963448 1519.30765343 C1195.83697793 1530.58802261 1199.6422688 1541.86908242 1203.4460144 1553.15066528 C1205.56595958 1559.43820879 1207.68648375 1565.72555698 1209.807127 1572.01286507 C1211.23908542 1576.25849649 1212.67073799 1580.50423043 1214.1015625 1584.75024414 C1215.4315871 1588.69710589 1216.76234787 1592.6437186 1218.09375381 1596.59011459 C1218.60922255 1598.11821663 1219.12449115 1599.64638619 1219.63955307 1601.1746254 C1222.50863776 1609.68560541 1225.40310991 1618.18696517 1228.34423828 1626.67333984 C1228.89521186 1628.26656766 1229.44616127 1629.85980385 1229.99708557 1631.45304871 C1231.02865025 1634.43551321 1232.06685772 1637.41554229 1233.10923767 1640.39424133 C1242.816724 1668.32191298 1244.677529 1694.67451022 1231.58984375 1721.9375 C1228.34260245 1728.1722033 1224.48920423 1733.60679126 1220 1739 C1219.52949219 1739.60457031 1219.05898437 1740.20914062 1218.57421875 1740.83203125 C1205.18433626 1757.54109588 1183.33981485 1766.91425768 1162.61376214 1769.72570229 C1153.32716542 1770.70027155 1143.91567976 1770.36615703 1134.5925293 1770.31054688 C1131.98502844 1770.30635949 1129.37752514 1770.30352383 1126.77002144 1770.30189514 C1121.04567399 1770.29617738 1115.32144485 1770.27921613 1109.59714699 1770.25502014 C1100.92327894 1770.21848441 1092.24943295 1770.19997904 1083.57550424 1770.18493861 C1069.19691566 1770.15961113 1054.81838099 1770.12262652 1040.439838 1770.07875234 C1015.30311679 1770.00210963 990.16637908 1769.95225449 965.02958322 1769.907444 C952.78869261 1769.88561138 940.54780374 1769.86284343 928.30691528 1769.83984375 C927.06839984 1769.83751873 925.82988439 1769.83519372 924.55383818 1769.83279824 C895.2240264 1769.77751121 865.89423934 1769.7118858 836.56445312 1769.64453125 C834.64278969 1769.64012048 834.64278969 1769.64012048 832.68230477 1769.63562059 C820.96696885 1769.60871752 809.25163315 1769.58171964 797.53629768 1769.55462074 C778.84361743 1769.51140748 760.15093539 1769.46905095 741.45825195 1769.42724609 C740.79032058 1769.42575204 740.12238921 1769.42425798 739.43421749 1769.42271865 C732.72075766 1769.40770248 726.0072978 1769.39270034 719.29383791 1769.37770845 C663.86255372 1769.25392303 608.43127499 1769.12783371 553 1769 C554.59981164 1765.80037673 557.96748658 1765.47279079 561.1875 1764.375 C584.70130846 1755.913402 602.2543323 1740.23887096 613.1875 1717.6875 C618.38084989 1706.03717765 621.16034656 1694.23078798 621.25 1681.5 C621.270625 1680.79875 621.29125 1680.0975 621.3125 1679.375 C621.40652312 1666.02371637 617.05241299 1653.3377921 612.75 1640.875 C612.22213474 1639.32285282 611.6953109 1637.77035114 611.16943359 1636.2175293 C610.04245384 1632.89141303 608.91141371 1629.56671382 607.77832031 1626.24267578 C605.94998453 1620.86653098 604.15524488 1615.47949862 602.3671875 1610.08984375 C602.05656372 1609.15412537 601.74593994 1608.21840698 601.42590332 1607.2543335 C600.21082997 1603.5933302 598.99609629 1599.93221489 597.78259277 1596.27069092 C593.44084375 1583.18100051 588.99940435 1570.12640404 584.53515625 1557.078125 C577.26277023 1535.82024841 570.08874384 1514.52976554 562.92935181 1493.23361206 C559.2888539 1482.40486011 555.64460536 1471.57737009 552 1460.75 C551.64340113 1459.6905612 551.28680225 1458.6311224 550.91939735 1457.53957939 C545.4071485 1441.1642282 539.87498617 1424.79586295 534.3125 1408.4375 C526.27058804 1384.78492648 518.28871206 1361.11229156 510.3125 1337.4375 C507.71105037 1329.7161078 505.10954225 1321.99473532 502.5078125 1314.2734375 C502.18779896 1313.32370937 501.86778542 1312.37398125 501.53807449 1311.39547348 C494.31026981 1289.94596139 487.0668008 1268.50175439 479.81079102 1247.06176758 C478.85164421 1244.22740372 477.89258904 1241.39300887 476.93359375 1238.55859375 C476.5783837 1237.5087968 476.5783837 1237.5087968 476.2159977 1236.43779182 C472.75149978 1226.19718152 469.30023517 1215.95217109 465.85627747 1205.70463562 C463.83162014 1199.68025886 461.80418972 1193.65681636 459.77622128 1187.6335535 C458.11670552 1182.70371829 456.46094162 1177.77264428 454.80802059 1172.84059429 C453.78713888 1169.79747986 452.76262564 1166.75559711 451.73713493 1163.71403313 C451.26408411 1162.30852398 450.79253007 1160.90250998 450.32263374 1159.49594307 C448.12725136 1152.92659792 445.86212267 1146.47691174 442.95129395 1140.18502808 C441.05039652 1135.81885475 439.64358577 1131.27226689 438.1640625 1126.75 C437.80339691 1125.66138672 437.44273132 1124.57277344 437.07113647 1123.45117188 C435.91810836 1119.96885684 434.77114326 1116.48458647 433.625 1113 C432.14075652 1108.49909271 430.65354543 1103.99917607 429.1640625 1099.5 C428.76903534 1098.30660004 428.37400818 1097.11320007 427.9670105 1095.88363647 C424.51187868 1085.47733195 420.97359833 1075.10024043 417.421875 1064.7265625 C412.25380969 1049.6306927 407.12692881 1034.52153182 402.0390625 1019.3984375 C401.70109461 1018.39390345 401.36312672 1017.38936939 401.01491737 1016.35439491 C399.27167513 1011.17220826 397.52920671 1005.98976184 395.78720093 1000.80715942 C392.04678159 989.67920943 388.30255398 978.55254031 384.55859375 967.42578125 C384.18660418 966.32017035 383.8146146 965.21455944 383.43135262 964.07544518 C376.86688732 944.56543045 370.28450987 925.06153157 363.6875 905.5625 C361.78891292 899.95057143 359.89041047 894.33861425 357.9921875 888.7265625 C357.63740232 887.6776757 357.63740232 887.6776757 357.27544975 886.60759926 C353.11651677 874.31114537 348.96696005 862.01153921 344.8203125 849.7109375 C344.5125696 848.79808361 344.2048267 847.88522972 343.88775826 846.94471359 C341.07688404 838.60670977 338.26629967 830.26860834 335.45687866 821.93011475 C329.46336569 804.14116336 323.46789922 786.35298422 317.42357445 768.58122063 C316.67752306 766.38746927 315.93187508 764.19358122 315.18635559 761.99964905 C314.70652382 760.58773417 314.22668085 759.1758231 313.74682617 757.76391602 C313.39873445 756.73969717 313.39873445 756.73969717 313.04361057 755.69478703 C311.92842368 752.41453427 310.81178618 749.13478914 309.69180298 745.85617065 C308.47907067 742.30485533 307.27045842 738.75216016 306.0625 735.19921875 C305.72111496 734.20408264 305.37972992 733.20894653 305.02799988 732.18365479 C303.10546396 726.51570913 301.34806834 720.81611324 299.6887207 715.06616211 C296.73058561 704.85775362 293.32493242 694.80785506 289.91796875 684.7421875 C289.22851087 682.69726317 288.53933975 680.65224214 287.85043335 678.60713196 C286.01387697 673.15776065 284.17330343 667.70975437 282.33189774 662.26202011 C280.40047258 656.54567198 278.47281238 650.82805437 276.54467773 645.1105957 C272.37068097 632.73590998 268.19133171 620.3630364 264.01051331 607.99065399 C262.50369665 603.53117066 260.99744909 599.07149516 259.49121094 594.61181641 C254.84928303 580.86870162 250.20411246 567.12668681 245.55573082 553.38575363 C238.90265658 533.71870668 232.26300156 514.04713861 225.625 494.375 C223.34377845 487.61457373 221.06252575 480.85415798 218.78125 474.09375 C218.35777881 472.83880517 218.35777881 472.83880517 217.92575264 471.55850792 C213.79583057 459.31972191 209.66426752 447.08149101 205.53125 434.84375 C205.13458759 433.66923153 205.13458759 433.66923153 204.7299118 432.47098541 C203.39543253 428.51959359 202.06093768 424.56820704 200.72644043 420.61682129 C191.24328285 392.53750056 181.76871889 364.45529547 172.30070496 336.37086487 C171.99522232 335.46472946 171.68973969 334.55859406 171.375 333.625 C171.06951736 332.71886459 170.76403473 331.81272919 170.44929504 330.87913513 C161.935073 305.62418663 153.41240606 280.37212073 144.875 255.125 C137.32246339 232.79026234 129.7748885 210.4538633 122.23658848 188.11431599 C120.5459041 183.10451223 118.85394863 178.09513995 117.16091633 173.08612919 C115.75002416 168.91174911 114.33970254 164.73717643 112.9296875 160.5625 C112.64895071 159.73133101 112.36821392 158.90016201 112.07896996 158.04380608 C108.17596072 146.48477632 104.29778894 134.91765308 100.4372406 123.34437561 C98.29008232 116.90793158 96.13618371 110.47374885 93.9808054 104.04005337 C92.23191371 98.81762806 90.49194094 93.59234755 88.75888062 88.36464882 C87.6802497 85.11843295 86.59284727 81.87520287 85.50318527 78.63267517 C85.00661084 77.14924465 84.51351677 75.66464286 84.02452469 74.17869568 C81.39868584 66.20564743 78.46610705 58.49240272 74.91479492 50.88061523 C74.59219602 50.18673486 74.26959711 49.49285448 73.93722248 48.77794743 C66.14207968 32.52437484 53.32144394 20.94786529 38 12 C37.14535156 11.4946875 36.29070313 10.989375 35.41015625 10.46875 C24.58454924 4.56059842 12.10192001 2.55100493 0 1 C0 0.67 0 0.34 0 0 Z " fill="#32AFE9" transform="translate(722,139)"/>
<path d="M0 0 C0.9078953 -0.00115384 1.8157906 -0.00230769 2.75119787 -0.0034965 C5.81555086 -0.00615866 8.87985207 -0.00164424 11.94420242 0.00279331 C14.15442297 0.00235753 16.36464346 0.00148249 18.57486367 0.00020415 C24.66567482 -0.00203942 30.75646849 0.0019786 36.8472774 0.00698221 C42.73564026 0.01084661 48.62400116 0.01002247 54.51236497 0.00930037 C66.55999713 0.00798564 78.6076238 0.011331 90.65525436 0.01731777 C102.58663587 0.02323161 114.51801508 0.02708307 126.44939804 0.02817059 C127.19081861 0.02823933 127.93223918 0.02830806 128.69612704 0.02837889 C132.46131523 0.02871721 136.22650342 0.0290186 139.99169162 0.02930576 C166.67144043 0.03140705 193.35118625 0.03814687 220.03093338 0.04760838 C245.9524827 0.0567904 271.8740312 0.06387519 297.79558182 0.06811619 C298.99377253 0.06831348 298.99377253 0.06831348 300.21616912 0.06851475 C308.23786959 0.06983325 316.25957007 0.07110907 324.28127056 0.07235361 C340.62289405 0.07488993 356.96451749 0.07771118 373.3061409 0.08070469 C374.43322202 0.08091062 374.43322202 0.08091062 375.58307246 0.08112072 C425.77288804 0.09032383 475.96270188 0.10619009 526.15251541 0.12304783 C526.7887808 1.69881007 527.42354748 3.27517751 528.0576973 4.85179234 C528.58817138 6.16845213 528.58817138 6.16845213 529.12936211 7.51171112 C530.59301845 11.247319 531.86590552 15.03358042 533.11345291 18.84570408 C533.38533432 19.66654987 533.65721573 20.48739567 533.93733597 21.33311558 C534.80365184 23.949638 535.66597423 26.56744976 536.52751541 29.18554783 C541.15033203 43.21480346 545.87786764 57.20615436 550.66032791 71.18164158 C555.72500237 85.98340068 560.7551579 100.79631554 565.74626541 115.62304783 C566.06485331 116.56943623 566.3834412 117.51582462 566.71168327 118.49089146 C568.34993653 123.35822577 569.9874513 128.22580812 571.62453079 133.09353733 C575.13797063 143.54037937 578.65506437 153.98599171 582.17204666 164.43164158 C582.52057505 165.46686892 582.86910343 166.50209625 583.22819328 167.56869411 C589.24753913 185.44706771 595.28595031 203.31890507 601.34001541 221.18554783 C609.82231969 246.21914994 618.27303171 271.26332075 626.71501541 296.31054783 C635.00977586 320.92075382 643.31328816 345.52787036 651.65251541 370.12304783 C659.9369251 394.55824955 668.19279454 419.00302438 676.43819046 443.45141697 C677.3863645 446.26266192 678.33472173 449.073845 679.28313065 451.88501072 C679.89519976 453.69937957 680.5072604 455.51375129 681.11931229 457.32812595 C681.41739792 458.21170843 681.71548355 459.09529091 682.02260208 460.00564861 C683.47719692 464.3183698 684.93020949 468.63161281 686.37981033 472.94601536 C686.93228608 474.59015475 687.48477605 476.23428936 688.03728104 477.87841892 C688.30309982 478.66955523 688.56891861 479.46069153 688.84279251 480.27580166 C690.30604981 484.62533851 691.78177705 488.97026277 693.27420807 493.30987549 C693.92146186 495.19371947 694.5643653 497.07905639 695.20714188 498.96443272 C695.95637002 501.16140695 696.71231048 503.35611248 697.47728348 505.54765415 C700.7249693 515.12214885 702.54548144 524.80965612 702.46501541 534.93554783 C702.46010086 535.69762547 702.45518631 536.4597031 702.45012283 537.244874 C701.95163184 561.81920193 690.72639626 583.14433696 673.90251541 600.43554783 C662.64257934 611.03313472 648.64297394 617.29289499 634.15251541 622.12304783 C785.62251541 622.45304783 937.09251541 622.78304783 1093.15251541 623.12304783 C1093.15251541 623.45304783 1093.15251541 623.78304783 1093.15251541 624.12304783 C1045.04253732 624.1744249 996.93255727 624.22218389 948.82255936 624.25007725 C948.11003134 624.25049142 947.39750332 624.25090559 946.66338354 624.25133231 C931.17663925 624.26031193 915.68989466 624.26862235 900.20314965 624.27624382 C892.60798374 624.27998569 885.01281792 624.28387537 877.41765213 624.28784275 C876.66185903 624.28823503 875.90606593 624.2886273 875.12737001 624.28903147 C850.64877796 624.30180576 826.17020674 624.3243324 801.6916273 624.35193949 C776.52773704 624.3802678 751.36385829 624.39871124 726.19995235 624.4047928 C722.64224446 624.40565721 719.08453661 624.40663412 715.52682877 624.40767956 C714.82665024 624.40788183 714.12647171 624.4080841 713.40507566 624.40829249 C702.15351859 624.41183175 690.90199723 624.42572999 679.6504547 624.44354393 C668.32711131 624.46124896 657.00381385 624.46769883 645.6804533 624.46355196 C639.54997346 624.46163273 633.41959809 624.46455078 627.28913689 624.48066425 C621.66912674 624.49532772 616.04929073 624.49595845 610.42927235 624.48574451 C608.40342557 624.48448325 606.37756764 624.48823384 604.35174257 624.49769738 C575.06624909 624.62647265 551.60471635 617.56911539 530.15251541 597.12304783 C528.63536247 595.76475907 527.11439929 594.41071641 525.59001541 593.06054783 C519.47265218 587.55683859 513.50753311 581.89186789 507.52360916 576.24414158 C503.53716272 572.48223425 499.53649793 568.73591701 495.52751541 564.99804783 C494.61159622 564.14400364 494.61159622 564.14400364 493.67717361 563.27270603 C492.44996944 562.12864709 491.22267492 560.98468506 489.99528885 559.84082127 C486.87957635 556.93645546 483.76617431 554.02961484 480.65251541 551.12304783 C479.40252623 549.95636957 478.15252624 548.78970289 476.90251541 547.62304783 C415.02751541 489.87304783 353.15251541 432.12304783 184.40251541 274.62304783 C183.78376541 274.0456284 183.16501541 273.46820896 182.52751541 272.87329197 C181.27719061 271.70615935 180.02719068 270.53867861 178.77751541 269.37085056 C175.6600512 266.45837586 172.53723522 263.55210557 169.40251541 260.65820408 C162.21054765 254.00514271 155.19598675 247.21676135 148.30290604 240.25415134 C144.60824415 236.53538956 140.84650162 232.9765879 136.84001541 229.59179783 C134.40977525 227.4765888 132.19017752 225.17048561 129.93376541 222.87304783 C128.06861867 221.04062296 126.13323795 219.32951648 124.15251541 217.62304783 C120.92295174 214.84065451 117.91928888 211.91285354 114.93376541 208.87304783 C113.06861867 207.04062296 111.13323795 205.32951648 109.15251541 203.62304783 C105.92295174 200.84065451 102.91928888 197.91285354 99.93376541 194.87304783 C98.06861867 193.04062296 96.13323795 191.32951648 94.15251541 189.62304783 C90.92295174 186.84065451 87.91928888 183.91285354 84.93376541 180.87304783 C83.06861867 179.04062296 81.13323795 177.32951648 79.15251541 175.62304783 C75.92295174 172.84065451 72.91928888 169.91285354 69.93376541 166.87304783 C68.06861867 165.04062296 66.13323795 163.32951648 64.15251541 161.62304783 C60.92295174 158.84065451 57.91928888 155.91285354 54.93376541 152.87304783 C53.06861867 151.04062296 51.13323795 149.32951648 49.15251541 147.62304783 C45.92295174 144.84065451 42.91928888 141.91285354 39.93376541 138.87304783 C38.06861867 137.04062296 36.13323795 135.32951648 34.15251541 133.62304783 C30.92295174 130.84065451 27.91928888 127.91285354 24.93376541 124.87304783 C23.06861867 123.04062296 21.13323795 121.32951648 19.15251541 119.62304783 C15.92295174 116.84065451 12.91928888 113.91285354 9.93376541 110.87304783 C8.06861867 109.04062296 6.13323795 107.32951648 4.15251541 105.62304783 C0.92295174 102.84065451 -2.08071112 99.91285354 -5.06623459 96.87304783 C-6.93138133 95.04062296 -8.86676205 93.32951648 -10.84748459 91.62304783 C-14.07704826 88.84065451 -17.08071112 85.91285354 -20.06623459 82.87304783 C-21.93138133 81.04062296 -23.86676205 79.32951648 -25.84748459 77.62304783 C-34.83663696 69.81622111 -43.39974122 61.24286254 -45.16682053 48.89087009 C-46.03414641 35.63580638 -44.40635342 25.1613341 -35.59748459 14.74804783 C-28.93541254 7.87640729 -22.09243515 3.58011882 -12.84748459 1.12304783 C-12.22634747 0.94941069 -11.60521035 0.77577356 -10.96525089 0.59687469 C-7.35890065 -0.21000641 -3.67867697 -0.01139861 0 0 Z " fill="#0074CD" transform="translate(641.847484588623,1284.8769521713257)"/>
<path d="M0 0 C3.31376951 0.75765847 6.59730438 0.67333522 9.97821689 0.66857201 C10.75779579 0.67141423 11.53737468 0.67425644 12.34057719 0.67718479 C14.96842388 0.68554619 17.59622658 0.68680114 20.22408557 0.68812519 C22.12082222 0.69268956 24.01755787 0.69768939 25.91429234 0.70308876 C31.13857511 0.71669356 36.36285136 0.724095 41.58714724 0.73051542 C47.2163125 0.73850908 52.84546415 0.75221041 58.47461963 0.76522785 C68.23157585 0.78700529 77.98853344 0.80514514 87.74550128 0.82083279 C101.85253882 0.84351988 115.95956128 0.87166432 130.06658605 0.90115207 C152.95284013 0.94884222 175.83909957 0.99211105 198.72536731 1.03259236 C220.96072375 1.07193284 243.19607473 1.11335309 265.431422 1.15759236 C266.11666755 1.15895489 266.80191311 1.16031742 267.50792369 1.16172123 C274.38936585 1.17540647 281.27080793 1.18913402 288.15224995 1.20289257 C345.87403924 1.31829589 403.59584039 1.42655701 461.31765246 1.52990681 C461.31765246 1.85990681 461.31765246 2.18990681 461.31765246 2.52990681 C305.22765246 2.52990681 149.13765246 2.52990681 -11.68234754 2.52990681 C-11.68234754 2.19990681 -11.68234754 1.86990681 -11.68234754 1.52990681 C-10.10148705 1.16486078 -8.51750846 0.81330175 -6.93234754 0.46740681 C-6.05062879 0.27018025 -5.16891004 0.07295368 -4.26047254 -0.13024944 C-1.68234754 -0.47009319 -1.68234754 -0.47009319 0 0 Z " fill="#177AC4" transform="translate(1273.682347536087,1906.47009319067)"/>
<path d="M0 0 C1.3348694 0.0951863 2.67345874 0.14555974 4.01165771 0.15821838 C4.7996727 0.1680072 5.58768768 0.17779602 6.39958191 0.18788147 C7.68243828 0.19651466 7.68243828 0.19651466 8.99121094 0.20532227 C10.35271019 0.22017166 10.35271019 0.22017166 11.74171448 0.23532104 C14.73924153 0.26688629 17.73678443 0.29167386 20.734375 0.31640625 C22.81374522 0.33698007 24.89311129 0.35797666 26.97247314 0.37937927 C32.44358972 0.43455572 37.91474376 0.48398456 43.38592529 0.53222656 C48.96955701 0.58247388 54.55313435 0.63814309 60.13671875 0.69335938 C71.09109938 0.80088682 82.04552723 0.90234385 93 1 C93 1.33 93 1.66 93 2 C57.69 2 22.38 2 -14 2 C-14 1.67 -14 1.34 -14 1 C-12.41913952 0.63495397 -10.83516093 0.28339494 -9.25 -0.0625 C-8.36828125 -0.25972656 -7.4865625 -0.45695312 -6.578125 -0.66015625 C-3.92066879 -1.0104573 -2.55180378 -0.6486119 0 0 Z " fill="#1885D3" transform="translate(1276,1907)"/>
<path d="M0 0 C-5.94 0 -11.88 0 -18 0 C-18 -0.33 -18 -0.66 -18 -1 C-16.41913952 -1.36504603 -14.83516093 -1.71660506 -13.25 -2.0625 C-12.36828125 -2.25972656 -11.4865625 -2.45695312 -10.578125 -2.66015625 C-6.19522089 -3.2379027 -3.9783778 -1.9891889 0 0 Z " fill="#1C8BDB" transform="translate(1280,1909)"/>
</svg>
