<svg width="128" height="129" viewBox="0 0 128 129" fill="none" xmlns="http://www.w3.org/2000/svg">
<path d="M45.3398 128.085C44.8098 127.595 45.1298 126.325 46.0698 125.175C46.6298 124.505 47.9598 122.615 49.0098 120.975C51.3598 117.325 52.2398 116.455 53.0798 116.975C53.5698 117.285 53.6698 117.815 53.5998 119.745L53.4998 122.185L54.4998 120.965C56.3898 118.505 58.1698 116.755 58.7698 116.755C60.0998 116.755 60.3098 117.635 59.7698 120.825C59.3798 123.165 59.3798 123.975 59.6998 124.495C60.6098 125.965 59.8398 127.265 58.0498 127.265C56.9298 127.265 56.5098 126.035 56.7898 123.625L57.0398 121.485L56.2298 122.485C54.3798 124.975 52.6298 126.485 51.6398 126.485C50.6498 126.485 50.5598 126.305 50.2398 124.245C50.1698 123.785 49.6798 124.245 48.4898 125.925C46.9998 128.185 45.9998 128.785 45.3398 128.085Z" fill="black"/>
<path d="M38.47 126.715C37.77 125.835 37.7 125.415 37.84 123.715C37.9806 121.453 38.9405 119.32 40.54 117.715C41.54 116.715 42.08 116.385 43.02 116.385C43.5821 116.416 44.1414 116.284 44.63 116.005C45.34 115.305 46.81 116.005 47.44 117.225C49.12 120.805 45.13 126.895 40.64 127.495C39.42 127.695 39.14 127.595 38.47 126.715ZM43.13 124.185C44.2381 123.059 44.9023 121.571 45 119.995C44.93 119.255 44.68 118.995 43.91 118.935C42.34 118.765 40.91 120.375 40.34 123.005C39.94 125.065 41.38 125.695 43.13 124.185Z" fill="black"/>
<path d="M69.9999 126.755C68.9999 125.755 69.0499 122.585 70.1399 120.275C71.0799 118.175 72.4499 117.015 76.4399 114.705C78.1199 113.705 79.3499 112.885 79.2099 112.705C79.0699 112.525 78.5099 112.315 77.9799 112.075C77.0699 111.685 76.8599 111.825 73.7099 114.735C71.2599 116.975 70.3099 118.135 69.9999 119.115C69.5799 120.585 67.8299 122.015 65.3399 122.995C63.9399 123.525 63.7299 123.765 63.3399 125.105C62.9499 126.645 62.1099 127.275 60.9899 126.815C60.2199 126.535 60.3999 125.245 61.8999 120.725C62.4286 119.292 62.8727 117.83 63.2299 116.345C63.1599 116.275 59.0999 115.435 54.2299 114.415L45.2999 112.595L36.4699 112.425C29.5299 112.315 27.6099 112.175 27.6099 111.825C27.6099 111.235 28.4799 111.055 33.9099 110.565C38.8703 110.189 43.8548 110.273 48.7999 110.815C50.6199 110.985 51.1399 110.955 50.8599 110.635C50.1299 109.825 33.9099 105.555 32.2999 105.765C31.4999 105.875 31.5999 105.975 33.4199 107.415C34.6099 108.355 35.2399 109.055 34.9599 109.125C34.2999 109.375 26.5599 105.275 26.5599 104.685C26.5599 104.265 27.2899 104.225 31.2199 104.405C33.6475 104.523 36.0673 104.767 38.4699 105.135C39.3838 105.371 40.3262 105.479 41.2699 105.455C41.3699 105.385 40.9899 104.895 40.4599 104.455C39.6599 103.755 39.5199 103.455 39.6899 102.455C39.8999 101.295 39.8999 101.295 32.5499 95.9049C28.1699 92.7149 25.1599 90.2649 25.1599 89.9049C25.1599 88.9049 24.2799 88.0849 22.6699 87.4849L21.1299 86.8949L20.9199 81.3249C20.7799 78.2449 20.6699 72.6749 20.6399 68.9649C20.6399 62.6249 20.5699 62.1349 19.8299 61.1849C19.0899 60.2349 19.0999 59.9649 19.4499 58.1849C19.8699 55.9149 19.7299 55.6349 17.9399 55.6349C16.1499 55.6349 15.9999 55.3049 16.5799 49.1849C16.8999 46.1049 17.1799 43.5049 17.2799 43.4349C18.8248 43.5559 20.3512 43.8511 21.8299 44.3149C22.4599 44.4949 22.6399 44.2449 23.1699 42.3149L23.7599 40.1049L22.6699 37.6849C21.7999 35.7549 21.4799 35.3349 20.9599 35.5149C19.8699 35.8249 18.9599 33.2049 20.0099 32.6449C20.4299 32.3949 20.2599 31.5249 19.0099 27.4249C15.2599 15.4249 14.6999 11.2449 16.7699 11.1749C17.4999 11.1749 19.0399 13.0249 20.6199 15.8349C23.2499 20.4549 22.9299 20.3149 24.6199 17.5849C28.3299 11.5849 29.5199 10.5849 31.2399 11.6649C31.7101 11.976 32.2489 12.1682 32.8099 12.2249C33.8099 12.2249 39.8099 9.98492 42.7199 8.47492C45.6299 6.96492 46.7199 7.04492 46.5799 8.72492C46.5799 9.77492 46.1599 10.2949 43.8099 12.4649L41.1099 14.9949L41.7399 17.1249C41.9369 17.947 42.2753 18.7286 42.7399 19.4349C46.043 17.7186 49.2571 15.8362 52.3699 13.7949C57.4799 10.6149 61.9299 8.05492 62.2499 8.09492C62.4134 8.14634 62.5561 8.24892 62.6569 8.38755C62.7577 8.52617 62.8113 8.69352 62.8099 8.86492C62.8099 9.35492 61.1299 10.6149 56.8099 13.4149C53.4799 15.5549 50.9599 17.4149 51.1999 17.4149C51.6337 17.6432 52.0369 17.9254 52.3999 18.2549C53.7299 19.4749 53.3999 20.5649 50.8499 23.2549C47.9999 26.1849 46.8399 27.9849 44.2799 33.1849C42.2799 37.1849 41.7599 37.7349 38.8899 39.1849C37.8099 39.7149 37.3799 40.1849 37.3799 40.6949C37.3547 41.1991 37.157 41.6793 36.8199 42.0549C36.1199 42.8249 34.8199 47.3149 35.2099 47.6649C36.3603 48.0634 37.5321 48.3972 38.7199 48.6649C39.8354 48.8428 40.9198 49.1796 41.9399 49.6649C41.9399 50.1549 39.8399 58.1049 39.6299 58.4649C39.5199 58.6349 39.0699 58.6749 38.5799 58.5649C37.8799 58.3849 37.7399 58.4649 37.7699 59.1649C37.8152 59.7319 37.9089 60.2939 38.0499 60.8449C38.2599 61.5749 38.4399 61.4049 39.6299 59.1949C41.9134 55.5476 44.6934 52.2359 47.8899 49.3549C49.4005 48.2815 50.9806 47.3093 52.6199 46.4449C54.5864 45.2489 56.8056 44.5297 59.0999 44.3449C60.8753 44.0615 62.6844 44.0615 64.4599 44.3449C67.4599 44.9049 71.3199 46.9049 72.9299 48.6849L74.2699 50.1849H77.6299C80.5299 50.1849 81.2299 50.3249 82.7799 51.1849C83.7842 51.7243 84.7439 52.3429 85.6499 53.0349C87.8417 55.1099 89.6852 57.5241 91.1099 60.1849C91.7099 61.4449 91.9899 61.7949 92.1099 61.3449C92.0551 60.5494 91.8044 59.7799 91.3799 59.1049L90.4699 57.4549L91.1699 56.1249C91.5499 55.3549 91.8999 54.6149 91.9699 54.4749C92.0399 54.3349 91.7598 54.3349 91.3399 54.5849C90.9199 54.8349 90.4298 54.8649 90.3399 54.6849C89.6098 53.9549 84.6999 44.6849 84.8399 44.2849C85.8847 43.6621 87.0174 43.2002 88.1999 42.9149C89.3267 42.6782 90.4053 42.2521 91.3899 41.6549C91.27 41.0046 91.1063 40.3631 90.8999 39.7349C90.4551 38.4202 89.6557 37.2539 88.5899 36.3649C87.9424 35.6647 87.1859 35.0737 86.3499 34.6149C85.5799 34.6149 81.0599 32.2749 79.4099 31.0149C77.2099 29.2949 76.4099 28.9049 72.2299 27.6149C68.7999 26.5249 68.6299 26.4249 68.6299 25.5149C68.6299 23.6949 69.5399 23.0949 73.5299 22.3649C75.5299 21.9749 77.3499 21.5849 77.5299 21.5549C78.0199 21.3749 74.3499 17.5549 71.5299 15.3249C67.3599 11.9949 67.2599 11.9249 67.2599 11.0449C67.2599 9.75492 68.4499 8.91492 70.1299 8.94492C71.554 9.16262 72.8919 9.76416 73.9999 10.6849L76.4899 12.3249L73.2099 9.00492C70.1699 5.88492 69.9999 5.56492 69.9999 4.18492C69.9999 2.80492 70.1399 2.67492 70.8699 2.39492C71.0989 2.33381 71.3047 2.20621 71.4614 2.02824C71.618 1.85027 71.7184 1.62989 71.7499 1.39492C71.7499 0.394923 72.8999 -0.115077 74.9699 0.164923C77.0399 0.444923 82.7799 3.45492 86.8099 6.50492C87.6354 7.17628 88.5266 7.76259 89.4699 8.25492C89.2214 7.13672 88.8316 6.0547 88.3099 5.03492C87.0798 2.18492 86.9999 1.92492 87.4999 1.05492C87.6883 0.766683 87.9383 0.523804 88.2319 0.343764C88.5255 0.163724 88.8553 0.0510002 89.1977 0.0137042C89.54 -0.0235918 89.8864 0.0154676 90.2119 0.128072C90.5373 0.240676 90.8337 0.424024 91.0799 0.664923C92.8599 2.06492 97.6599 10.8549 98.9599 15.0949C100.051 19.1882 100.639 23.3993 100.71 27.6349C100.64 29.6349 100.85 30.4749 102.11 33.7649C102.603 35.1842 103.201 36.5647 103.9 37.8949C104.07 38.0749 105.9 37.6849 108.17 36.9549C109.523 36.4473 110.934 36.1114 112.37 35.9549C112.65 36.2749 111.88 46.2249 111.53 46.7849C111.16 47.1058 110.711 47.3231 110.23 47.4149C109.64 47.5549 109.23 47.7649 109.23 47.8649C109.618 48.5832 110.088 49.2543 110.63 49.8649C111.63 50.9849 112 51.7949 111.83 52.1449C111.716 52.4351 111.655 52.7433 111.65 53.0549C111.65 53.2649 111.76 54.5949 111.83 56.0549C111.9 57.5149 112.07 59.3149 112.21 60.0549C112.49 61.6649 112 63.1649 108.88 70.6649C106.936 75.6424 105.62 80.8424 104.96 86.1449C104.651 87.9712 104.135 89.7562 103.42 91.4649C102.703 92.858 102.297 94.3898 102.23 95.9549C102.23 97.4249 102.33 97.7349 102.75 97.5649C104.055 97.2203 105.4 97.0555 106.75 97.0749C105.853 98.1301 104.894 99.1318 103.88 100.075L101 102.935L103 102.265C105.42 101.465 107.87 101.005 107.87 101.425C107.87 101.605 107.28 102.025 106.58 102.425C105 103.235 101.46 105.965 102.44 105.615C103.596 105.381 104.771 105.254 105.95 105.235C109.24 105.055 109.38 104.985 99.9499 107.645C93.4495 109.337 87.1089 111.592 80.9999 114.385C77.9999 115.895 77.9999 115.965 78.5199 116.595C79.0399 117.225 79.3199 118.485 78.9399 120.725C78.7299 121.955 78.7599 122.195 79.2499 122.195C79.9309 122.445 80.5343 122.869 80.9999 123.425C81.5127 124.011 82.1824 124.437 82.9299 124.655C83.8099 124.655 83.7699 124.545 81.7399 121.655C80.2299 119.595 80.1999 118.575 81.5299 117.215C83.5299 115.215 87.8699 116.405 86.9599 118.785C86.8795 118.935 86.7645 119.063 86.6243 119.159C86.4841 119.255 86.3229 119.315 86.1543 119.336C85.9857 119.356 85.8146 119.336 85.6555 119.277C85.4964 119.218 85.3538 119.121 85.2399 118.995C84.9338 118.775 84.5666 118.657 84.1899 118.657C83.8131 118.657 83.4459 118.775 83.1399 118.995C83.4266 119.914 83.9036 120.762 84.5399 121.485C86.4299 124.075 86.6399 125.655 85.2099 126.565C84.4399 127.085 84.0899 127.125 82.5499 126.735C80.2999 126.245 78.4799 125.125 78.1999 124.105C78.0299 123.405 77.9199 123.475 76.3799 124.955C75.0229 126.354 73.2107 127.223 71.2699 127.405C70.7859 127.312 70.3445 127.067 70.0099 126.705L69.9999 126.755ZM74.5499 123.845C76.0199 122.375 76.8999 120.095 76.2299 119.325C75.7099 118.655 74.0599 118.765 73.3899 119.495C72.0299 121.005 71.2199 124.495 72.1999 124.925C72.9999 125.275 73.1799 125.185 74.5099 123.845H74.5499ZM65.8999 120.445C67.2699 119.445 67.5799 118.625 66.6699 118.275C65.9699 118.025 64.8799 119.005 64.4299 120.275C63.9799 121.545 64.1799 121.565 65.8599 120.445H65.8999ZM72.0299 113.445C72.8698 112.742 73.6647 111.987 74.4099 111.185C74.4799 111.085 73.7699 110.665 72.8599 110.315C70.4799 109.315 67.6099 109.435 64.2799 110.665C63.3286 110.959 62.413 111.358 61.5499 111.855C62.3551 112.34 63.2143 112.729 64.1099 113.015C65.3401 113.469 66.5336 114.018 67.6799 114.655C68.1328 114.984 68.6457 115.222 69.1899 115.355C70.2251 114.86 71.1739 114.202 71.9999 113.405L72.0299 113.445ZM88.7299 108.295C91.0499 107.175 94.6199 105.605 96.7299 104.795C98.9699 103.915 100.51 103.115 100.51 102.795C100.64 102.202 100.889 101.641 101.24 101.145C101.63 100.485 101.87 99.9549 101.73 99.9549C97.474 101.578 93.3021 103.414 89.2299 105.455C84.1499 107.905 83.6999 108.225 83.6999 109.065C83.6999 109.905 84.0099 110.565 84.3599 110.355C84.3899 110.325 86.3799 109.345 88.6899 108.255L88.7299 108.295ZM85.1599 55.7949C84.6478 55.2462 84.0701 54.7626 83.4399 54.3549C82.8499 53.9349 83.0599 54.2149 83.9699 55.0549C85.6799 56.6349 86.2099 56.9449 85.1599 55.7949ZM101.58 125.345C100.858 124.541 100.086 123.783 99.2699 123.075C99.0666 123.591 98.9387 124.133 98.8899 124.685C98.8312 125.418 98.6272 126.132 98.2899 126.785C97.7299 127.455 96.2899 127.385 95.9799 126.675C96.0465 125.109 96.3051 123.558 96.7499 122.055C98.0499 116.595 98.4299 115.895 99.9399 116.275C100.36 116.385 100.81 116.275 100.94 116.105C101.36 115.475 103.78 115.645 104.41 116.345C105.41 117.505 104.93 120.415 103.41 121.635C102.92 122.055 102.92 122.165 103.41 122.965C103.95 123.645 104.602 124.227 105.34 124.685C106.81 125.625 107.09 126.685 106.01 127.275C104.57 128.015 103.77 127.665 101.52 125.345H101.58ZM101.41 119.815C102.28 119.005 102.41 118.165 101.69 118.165C100.97 118.165 99.6899 119.815 99.6899 120.515C99.6899 121.215 100.22 120.865 101.41 119.815Z" fill="black"/>
<path d="M87.1898 126.885C86.6298 126.675 86.4198 126.365 86.5598 125.975C87.1622 123.625 87.8967 121.312 88.7598 119.045C89.2118 118.572 89.6927 118.128 90.1998 117.715C91.2898 116.835 91.6398 116.715 94.3298 116.715C97.0198 116.715 97.3298 116.785 97.3298 117.385C97.3298 118.385 96.4498 118.885 93.7498 119.135C91.7498 119.305 91.1998 119.485 91.0898 119.975C90.9798 120.465 91.2298 120.575 92.7398 120.575C94.2498 120.575 94.5198 120.645 94.5198 121.415C94.5198 122.495 94.0698 122.775 91.9298 123.025C89.7898 123.275 89.3798 123.935 91.5498 123.795C94.0698 123.585 94.9398 123.935 94.7998 125.015C94.6998 125.925 94.5598 126.015 92.0398 126.385C90.5698 126.595 89.0998 126.875 88.7098 126.975C88.2052 127.094 87.6767 127.063 87.1898 126.885ZM28.6598 126.295C27.3298 123.775 29.7098 118.205 32.8698 116.595C34.7598 115.595 37.3798 116.105 37.3798 117.465C37.3798 118.345 36.2298 118.935 35.1398 118.655C33.8498 118.345 32.8698 119.075 31.9198 121.075C30.5198 124.075 30.7998 124.295 34.2998 123.005C36.7198 122.125 37.4598 122.405 36.7498 123.945C36.2298 125.065 33.0098 126.645 30.6998 126.855C29.2898 126.995 28.9998 126.885 28.6598 126.295Z" fill="black"/>
<path d="M49.6102 108.185C48.9102 107.945 47.1902 107.455 45.7902 107.105C44.1802 106.715 43.2002 106.295 43.0902 105.945C42.912 105.379 42.6913 104.828 42.4302 104.295C42.0812 103.593 41.9689 102.796 42.1102 102.025L42.3202 100.795L37.8402 97.465C35.3902 95.615 32.0602 93.195 30.4902 92.115C27.6102 90.115 26.1802 88.605 26.1802 87.595C26.2772 86.9787 26.452 86.3773 26.7002 85.805C27.3702 84.265 26.7702 84.055 25.4802 85.425C24.7102 86.225 24.6402 86.225 23.6202 85.735C22.6002 85.245 22.5302 85.145 23.1302 79.995C23.1302 79.715 23.0602 76.995 22.9202 73.995C22.7802 70.995 22.5702 66.925 22.4602 64.925C22.5042 63.3653 22.2671 61.8106 21.7602 60.335C20.9902 59.045 21.5202 56.335 22.5002 56.335C23.9702 56.405 34.0902 57.985 34.7602 58.225C35.4302 58.465 35.5602 59.035 35.9502 61.455C36.1902 63.025 36.5802 65.025 36.7502 65.825C36.9388 66.2625 36.9929 66.7462 36.9057 67.2146C36.8184 67.6829 36.5937 68.1147 36.2602 68.455C34.1602 71.325 31.0802 79.905 31.1202 82.745V84.675L31.6502 83.445C32.3802 81.695 35.3602 76.795 35.7102 76.795C35.8502 76.795 35.8802 77.315 35.7802 77.945C35.4302 79.665 36.4802 85.375 37.3202 86.565C38.3202 87.925 40.0902 89.395 40.7502 89.395C41.2402 89.395 41.2402 89.325 40.7502 88.765C40.3979 88.3804 40.1895 87.8857 40.1602 87.365C40.1602 86.635 40.1602 86.635 41.0002 87.475C41.788 88.1519 42.6582 88.7265 43.5902 89.185C45.2402 90.025 45.3802 90.185 45.5902 91.715C45.7845 94.2192 45.6433 96.7382 45.1702 99.205C44.9302 100.085 44.9302 100.085 46.0502 99.035C46.9071 98.2045 47.69 97.3011 48.3902 96.335L49.6202 94.685L50.6202 95.315C51.8102 96.055 54.4402 98.435 54.4402 98.785C54.2591 99.2959 54.0102 99.7802 53.7002 100.225C53.1102 101.225 53.0402 101.725 53.2502 103.755C53.4602 105.965 53.4202 106.175 52.7202 106.565C52.2285 106.854 51.8455 107.297 51.6302 107.825C51.2502 108.765 51.2102 108.765 49.5002 108.135L49.6102 108.185Z" fill="#6A5439"/>
<path d="M63.0003 105.355C61.2258 104.636 59.7459 103.34 58.8003 101.675C56.7434 98.6699 54.1983 96.0302 51.2703 93.865C49.2703 92.495 47.4203 90.605 47.0703 89.485C46.9729 89.2365 46.8164 89.0155 46.6142 88.8412C46.4121 88.667 46.1704 88.5447 45.9103 88.485C45.3513 88.3703 44.8001 88.22 44.2603 88.035C43.3903 87.685 41.0103 83.725 40.7303 82.145C40.4803 80.785 40.8303 80.225 42.9003 79.035C45.6003 77.425 47.9003 76.865 53.3703 76.445C59.7103 75.955 61.9503 75.445 65.3103 73.675C66.1096 73.1681 66.9885 72.7996 67.9103 72.585C67.4144 73.3032 66.8106 73.9407 66.1203 74.475C64.1903 76.235 64.3303 76.375 67.1703 75.475C69.4636 74.6623 71.3643 73.0117 72.4903 70.855L73.0003 69.835L74.1603 71.625C76.1603 74.705 82.8803 79.185 86.7303 80.025C87.5742 80.1621 88.3712 80.5056 89.0503 81.025C89.5703 81.615 89.6103 81.865 89.2203 82.775C89.023 83.1649 88.9267 83.5981 88.9403 84.035C89.1903 84.285 90.3103 82.495 90.5903 81.445C90.8703 80.395 91.2903 80.185 91.9903 80.635C92.4103 80.915 92.4103 81.195 91.8503 82.635C91.0103 84.815 89.2603 86.635 87.9203 86.635C87.1203 86.635 86.7703 86.955 86.0003 88.385C84.8472 90.3205 83.0906 91.8242 81.0003 92.665C79.7803 93.085 79.3903 93.665 80.3003 93.665C80.7925 93.6057 81.2759 93.4882 81.7403 93.315C82.6503 92.965 82.7403 92.995 82.4803 93.905C81.6528 96.4698 80.3313 98.8478 78.5903 100.905C76.7303 103.005 73.3703 104.645 69.4803 105.385C66.1203 106.055 64.5803 106.015 63.0003 105.385V105.355ZM62.3003 101.145C62.3003 99.745 63.3003 98.625 65.4203 97.855C67.2803 97.155 67.7703 97.115 69.1003 97.465C71.2003 97.995 71.3703 97.965 70.3903 97.155C69.4103 96.345 66.3903 96.245 63.8803 97.085C62.3403 97.605 62.0603 97.855 61.6703 99.085C61.1803 100.515 61.3903 102.235 61.9503 101.885C62.0484 101.797 62.1262 101.689 62.178 101.568C62.2298 101.447 62.2545 101.316 62.2503 101.185L62.3003 101.145ZM61.6703 94.805C63.2503 94.245 63.3903 94.245 64.7503 94.875C66.1103 95.505 66.2203 95.505 68.4303 94.735C69.4 94.3257 70.4488 94.1378 71.5003 94.185C72.4103 94.395 73.0703 93.865 72.5003 93.305C72.2203 93.025 68.0603 93.655 66.6903 94.215C66.4282 94.266 66.1582 94.2613 65.898 94.2009C65.6378 94.1406 65.3933 94.0262 65.1803 93.865C64.2403 93.235 63.0103 93.275 60.3903 93.975C58.7403 94.425 58.3903 94.675 59.0903 95.095C59.7903 95.515 59.7303 95.505 61.6203 94.805H61.6703ZM68.6103 90.675C69.0771 89.9348 69.6693 89.2817 70.3603 88.745C70.407 88.7479 70.4538 88.7408 70.4976 88.7243C70.5414 88.7077 70.5812 88.6821 70.6143 88.6489C70.6474 88.6158 70.6731 88.5761 70.6896 88.5323C70.7062 88.4885 70.7132 88.4417 70.7103 88.395C70.7103 87.595 69.4103 88.155 68.0503 89.485C66.8903 90.605 66.4003 90.885 65.8003 90.675C65.5663 90.5729 65.3547 90.4256 65.1777 90.2416C65.0006 90.0576 64.8617 89.8404 64.7688 89.6026C64.6759 89.3647 64.6309 89.1109 64.6363 88.8556C64.6417 88.6003 64.6974 88.3486 64.8003 88.115C65.2203 87.035 64.8003 84.655 63.9903 83.185C63.3303 82.025 63.3303 81.985 63.9903 81.255C64.8153 80.4352 65.3161 79.3449 65.4003 78.185C65.4003 77.445 65.2603 77.515 64.0003 78.915C62.7403 80.315 62.5303 80.425 61.1303 80.215C58.5403 79.825 53.7103 79.305 52.7303 79.305C51.9397 79.4092 51.2016 79.759 50.6203 80.305L49.5003 81.305L52.1303 81.185C55.2103 80.975 61.4503 81.925 62.2903 82.695C62.9203 83.255 63.6503 85.695 63.6503 87.175C63.5521 87.8767 63.2495 88.534 62.7803 89.065C61.9403 90.065 61.9403 90.155 62.5303 90.335C63.1412 90.6686 63.6976 91.0935 64.1803 91.595C65.7503 93.185 66.8403 92.985 68.5603 90.675H68.6103ZM44.6103 84.615C44.1787 84.0127 43.8132 83.3656 43.5203 82.685C42.8903 81.145 42.3003 81.005 42.3003 82.375C42.4288 83.2396 42.8922 84.019 43.5903 84.545C44.8803 85.775 45.6903 85.805 44.6003 84.615H44.6103ZM81.3103 84.335C82.0332 83.8192 82.7031 83.233 83.3103 82.585C82.7309 82.7418 82.1758 82.9773 81.6603 83.285C80.4667 83.8481 79.1905 84.2161 77.8803 84.375C76.1303 84.545 75.6003 84.475 74.6603 83.885C74.0203 83.465 73.5003 83.005 73.5003 82.825C73.5003 82.645 74.5003 82.515 75.7103 82.515C77.6303 82.515 81.2703 81.705 81.9803 81.075C82.1503 80.935 80.7803 80.905 78.9803 80.975C75.5103 81.115 70.8503 80.585 70.0503 79.925C69.6395 79.4258 69.3027 78.8701 69.0503 78.275C68.4603 76.845 68.0503 77.335 68.3903 79.085C68.5484 79.7998 68.8995 80.4575 69.4056 80.9865C69.9117 81.5155 70.5532 81.8954 71.2603 82.085C71.9203 82.265 72.2603 82.615 72.3803 83.085C72.5203 83.895 74.0603 84.905 75.1803 84.905C75.5392 84.9028 75.8894 85.0148 76.1803 85.225C76.9932 85.6802 77.9086 85.9211 78.8403 85.925C79.7778 85.5728 80.6349 85.0354 81.3603 84.345L81.3103 84.335ZM57.7103 84.895C58.4761 84.5107 59.3071 84.2732 60.1603 84.195C61.3203 84.195 61.6003 83.675 60.5803 83.425C59.7644 83.333 58.9396 83.3565 58.1303 83.495C56.9295 83.6049 55.7211 83.6049 54.5203 83.495C52.5203 83.255 51.1603 83.395 50.8403 83.885C50.7403 84.055 51.1903 84.195 51.8403 84.195C52.6238 84.2405 53.3835 84.4811 54.0503 84.895C55.3503 85.775 56.0003 85.775 57.7003 84.895H57.7103Z" fill="#6A5439"/>
<path d="M83.8602 104.614C83.3743 103.517 82.9437 102.395 82.5702 101.254L81.8002 98.9045L83.0602 95.7845C83.7602 94.0745 84.3202 92.5644 84.3202 92.4645C84.7051 91.8825 85.1621 91.3516 85.6802 90.8844L87.0002 89.5545L87.3902 92.0745C87.7402 94.7045 89.9502 99.9544 90.6502 99.9544C90.8602 99.9544 90.9602 99.7445 90.8602 99.5045C90.595 98.4865 90.3847 97.455 90.2302 96.4145C89.8803 94.6954 89.8803 92.9235 90.2302 91.2044L90.7202 88.5745L91.0002 90.4645C91.3102 92.8445 92.1902 95.1245 93.1002 95.9645C93.8302 96.6245 93.8302 96.6245 93.6202 95.0545C93.0277 91.0005 93.1564 86.8737 94.0002 82.8645C94.2102 82.0545 94.2102 82.0545 95.2602 82.6845C96.9666 84.0565 98.3122 85.8243 99.1802 87.8345C99.5302 88.5745 99.8802 89.0944 99.9902 89.0244C100.27 88.7144 99.1802 84.0245 98.5202 82.7245C97.6805 81.4858 96.7044 80.3453 95.6102 79.3245L93.2502 77.0845L96.1502 77.3645C97.6226 77.4546 99.0809 77.7027 100.5 78.1045C101.008 78.3278 101.556 78.4468 102.11 78.4544C102.35 78.2044 100.57 76.1745 99.1102 75.0545C98.3546 74.4719 97.5195 74.0004 96.6302 73.6545C94.8702 73.0945 94.4502 72.6545 94.4502 71.6545C94.3096 70.5375 94.0652 69.4361 93.7202 68.3645L93.0002 65.9845L93.8002 63.4945L94.6102 61.0145L93.6002 59.1845L92.6002 57.3345L93.5102 56.1045C93.9915 55.5384 94.2942 54.8424 94.3802 54.1045C94.2802 53.3945 94.7302 53.1045 98.4802 51.7545C100.79 50.9145 103.42 49.8945 104.33 49.5145C104.991 49.2018 105.685 48.9669 106.4 48.8145C107.069 49.176 107.663 49.6612 108.15 50.2445C109.37 51.5445 109.48 51.8245 109.3 53.0145C109.16 53.8245 109.23 54.4145 109.48 54.5545C109.9 54.8345 110 56.8645 109.62 56.8645C109.075 56.7788 108.536 56.6518 108.01 56.4845C107.386 56.2907 106.726 56.2428 106.08 56.3445C105.63 56.5145 106.08 56.8645 107.59 57.6345C108.493 58.0302 109.334 58.5521 110.09 59.1845C110.62 59.8145 109.92 62.9044 108.73 65.4244C105.82 71.4244 104.53 75.8245 103.3 84.0545C103.065 86.3883 102.461 88.6701 101.51 90.8144C100.666 92.4142 100.201 94.1864 100.15 95.9944C99.9002 98.9944 99.9002 98.9944 98.8502 99.3245C98.2902 99.5045 97.0302 100.024 96.0502 100.484C94.5802 101.144 91.9502 102.304 85.4702 105.074C84.3902 105.564 84.3202 105.524 83.8602 104.614ZM46.4902 94.9145C46.4902 92.8445 46.9502 92.2145 47.8202 93.0545C48.3102 93.5845 48.3102 93.7545 47.7202 95.0545C46.7702 97.1145 46.4902 97.0845 46.4902 94.9145Z" fill="#6A5439"/>
<path d="M88.3803 92.1847C87.7103 88.8947 87.9603 87.6647 89.2903 87.6647C90.0303 87.6647 90.0303 87.5947 89.4303 90.4047C88.8703 92.9547 88.6203 93.3747 88.3803 92.1847ZM38.7603 79.5347C38.7603 77.8247 40.2003 76.0047 42.3403 74.9447C44.768 74.0502 47.2624 73.3481 49.8003 72.8447C60.4403 70.5347 66.4303 67.5947 66.4303 64.6847V63.8147L64.7903 65.0347C63.7754 65.7602 62.7204 66.428 61.6303 67.0347C59.5703 68.0347 53.7203 69.4247 49.3103 69.9147C43.2503 70.5047 39.1803 71.8347 36.7003 73.9147L35.5103 74.9147L35.7503 73.9147C36.1703 72.1647 40.3403 66.2447 42.4803 64.2847C49.4103 57.9147 54.8003 55.6747 62.5803 55.9147C66.4303 56.0247 66.7103 56.0947 68.8803 57.2847C74.3503 60.2847 74.8803 64.3947 70.4603 68.8747C67.8732 71.2932 64.8401 73.1851 61.5303 74.4447C59.6403 75.0347 58.3803 75.2147 47.9803 76.3047C42.6203 76.8947 41.1503 77.4547 40.0603 79.3047C39.1103 80.9747 38.7603 81.0447 38.7603 79.5347ZM85.8903 78.6247C84.9468 78.4053 84.0562 78.0008 83.2703 77.4347C83.2703 77.4347 84.8803 77.3347 86.8403 77.2947C89.4003 77.2947 90.7603 77.4047 91.6403 77.7847C92.7603 78.2447 92.8303 78.3447 92.2003 78.5947C90.1134 78.9578 87.9804 78.968 85.8903 78.6247Z" fill="#6A5439"/>
<path d="M83.6503 75.5842C78.7503 74.2442 74.1603 70.9942 73.4203 68.3642C73.0403 66.8942 73.5603 63.5342 74.1603 63.5342C74.3403 63.5342 74.7903 63.9842 75.1603 64.5342C77.8727 67.425 80.8639 70.0411 84.0903 72.3442C86.875 73.329 89.776 73.9475 92.7203 74.1842C94.7203 74.3942 96.9303 75.1242 96.9303 75.5842C95.3907 75.7166 93.8444 75.7534 92.3003 75.6942C89.7503 75.6942 87.1903 75.7642 86.5903 75.8642C85.6015 75.9417 84.6067 75.8469 83.6503 75.5842ZM38.1603 74.8442C38.2303 74.0042 38.6503 73.6842 40.6803 72.7042C42.7103 71.7242 43.9003 71.4442 48.5603 70.8542C51.5603 70.5042 54.7903 70.0442 55.7003 69.8542C56.6103 69.6642 57.2803 69.6742 57.1003 69.8542C56.4403 70.4142 54.4103 70.9742 48.7003 72.0942C43.7003 73.0942 42.2503 73.4942 40.3603 74.5442L38.0503 75.8142L38.1603 74.8442Z" fill="#6A5439"/>
<path d="M89.4003 72.8444C85.1603 71.7644 81.5903 69.6644 77.5203 65.9444C75.1103 63.7444 74.6903 62.7244 75.0703 60.1344L75.3903 58.1344L77.6603 58.0244C80.9203 57.8844 82.5003 58.3744 85.6603 60.6144C91.0203 64.4344 92.1403 66.3644 87.6603 64.0544L85.2103 62.7944L86.7903 64.1544C87.6603 64.8944 88.7103 65.8744 89.1703 66.3644C90.4003 67.6544 93.1703 71.9344 93.2303 72.5944C93.2903 73.2544 91.7403 73.4444 89.4003 72.8444ZM39.8403 63.8844C39.8403 63.1144 41.9703 59.3644 44.0703 56.4244C48.8003 49.7644 55.2103 45.9444 61.7303 45.8744C63.4123 45.757 65.0918 46.136 66.5603 46.9644C70.0603 48.6444 71.5603 49.9044 72.7903 52.5344C73.6076 53.9461 74.0258 55.5534 74.0003 57.1844C74.0003 60.7544 73.6503 60.8644 70.9203 58.3044C69.6604 56.9375 68.048 55.9445 66.2603 55.4344C60.6903 53.7244 52.3603 55.0844 46.7503 58.6544C45.299 59.6685 43.9191 60.7811 42.6203 61.9844C40.1503 64.2644 39.8403 64.5144 39.8403 63.8844Z" fill="#6A5439"/>
<path d="M85.6501 59.0846C82.7401 57.5046 82.5001 57.4746 78.9601 57.2946L75.3201 57.1246L75.0701 54.8146C74.9001 52.8846 74.9701 52.4246 75.4601 52.0746C77.1401 50.8146 81.0201 52.3946 84.8401 55.8946C87.1501 58.0346 89.5001 60.7246 88.9801 60.6946C87.8418 60.2187 86.7301 59.6812 85.6501 59.0846ZM28.1401 55.4446C22.7501 54.7046 18.2301 53.9746 18.1401 53.8346C18.0252 52.4528 18.0823 51.0622 18.3101 49.6946C18.5901 46.7946 18.8401 45.8446 19.2201 45.7746C19.8901 45.6346 39.5401 50.7746 39.9201 51.1646C40.3001 51.5546 38.7301 56.6346 38.2801 56.7346C38.0501 56.7746 33.5001 56.1846 28.1401 55.4446ZM22.8501 52.1846C23.2248 51.7524 23.4433 51.2068 23.4705 50.6355C23.4977 50.0642 23.332 49.5004 23.0001 49.0346C22.8447 48.8567 22.6514 48.7159 22.4344 48.6226C22.2174 48.5294 21.9822 48.4859 21.7462 48.4955C21.5102 48.5051 21.2793 48.5675 21.0706 48.6781C20.8619 48.7887 20.6806 48.9447 20.5401 49.1346C20.2788 49.6006 20.1595 50.1329 20.1968 50.6659C20.2341 51.199 20.4264 51.7094 20.7501 52.1346C21.4501 52.8146 22.0001 52.8146 22.8501 52.1846ZM90.0001 50.3246C88.0001 46.8246 87.4401 45.7346 87.7601 45.5646C88.5601 45.0746 110.07 39.0146 110.45 39.1546C110.576 39.198 110.681 39.2864 110.746 39.4026C110.81 39.5189 110.83 39.6549 110.8 39.7846C110.614 40.8635 110.487 41.9518 110.42 43.0446C110.397 44.0602 110.243 45.0687 109.96 46.0446C109.82 46.1946 105.8 47.6646 100.96 49.3446C96.1201 51.0246 92.0001 52.4946 91.7801 52.5646C91.5601 52.6346 90.7601 51.6546 90.0001 50.3246ZM109.54 42.9046C110.07 41.9046 109.61 41.1146 108.54 41.1146C107.47 41.1146 107 41.8546 107.32 42.9046C107.54 43.7746 109 43.7746 109.53 42.9046H109.54ZM28.3501 46.6146L24.0001 45.4946L24.2101 44.2646C24.4123 43.3368 24.7175 42.4345 25.1201 41.5746L25.8201 40.1346L24.4301 37.1846C23.2001 34.8046 23.0601 34.2446 23.4301 33.8646C24.5101 32.7746 37.4301 25.0346 38.5201 24.8646C39.2799 24.6895 39.9739 24.3009 40.5201 23.7446C41.6529 22.8379 42.9003 22.0848 44.2301 21.5046C45.6138 20.905 46.9509 20.2031 48.2301 19.4046C49.6301 18.4046 50.8201 18.5946 50.9601 19.7846C51.0301 20.4846 50.5801 21.2946 48.9601 23.1146C47.0301 25.3246 45.1401 28.1146 42.1601 33.4146C41.3362 34.8663 40.1424 36.074 38.7001 36.9146C36.8001 38.1746 36.3101 38.6646 36.3101 39.3646C36.2556 39.9866 36.0534 40.5865 35.7201 41.1146C35.0815 42.2672 34.575 43.4883 34.2101 44.7546C33.958 45.7713 33.5498 46.7428 33.0001 47.6346C31.4328 47.379 29.8805 47.0385 28.3501 46.6146ZM93.1101 41.0446C91.6001 36.8446 91.1801 35.8646 90.7601 35.8646C90.3401 35.8646 89.8901 35.2646 89.4301 34.5346C88.6601 33.3046 88.3401 33.1346 86.3501 32.7146C83.6201 32.1546 83.4401 32.0446 79.8701 29.6246C78.0363 28.2261 75.8801 27.3114 73.6001 26.9646C72.3764 26.7676 71.1854 26.4042 70.0601 25.8846C69.6801 24.5546 71.8101 23.9546 77.5901 23.7746C81.7601 23.6746 81.9701 23.6046 83.7201 22.4846C85.1901 21.5346 85.4001 21.2946 84.7201 21.2246C84.032 21.2285 83.3517 21.3713 82.7201 21.6446C80.6501 22.5146 79.9501 22.3746 78.8701 20.7646C77.3732 19.0628 75.7448 17.4812 74.0001 16.0346C69.6601 12.2946 69.0001 11.4846 69.4801 10.9646C69.9601 10.4446 71.8601 11.4546 74.8401 13.4446C76.9101 14.8446 82.8401 18.3546 83.0701 18.3546C84.0701 18.3546 78.0701 11.1746 73.7501 7.10456C72.1101 5.56456 71.5801 4.30456 72.3901 3.81456C72.9501 3.46456 74.7401 4.58456 80.5101 8.92456C85.9401 13.0246 87.8701 14.1446 85.8401 12.0146C82.7767 9.17049 79.4858 6.58186 76.0001 4.27456C74.2501 3.27456 73.5801 2.48456 74.0001 1.85456C74.0845 1.7511 74.1914 1.66843 74.3128 1.61294C74.4342 1.55745 74.5667 1.53063 74.7001 1.53456C75.5801 1.53456 81.2101 4.53456 84.5801 6.75456C87.9501 8.97456 89.3801 10.5446 88.8101 11.3846C88.2401 12.2246 88.4601 12.4346 89.3101 12.2246C89.6361 12.1703 89.9703 12.1927 90.2862 12.2899C90.6021 12.387 90.891 12.5564 91.1301 12.7846L92.1301 13.5846L91.9201 11.8046C91.51 9.88934 90.8999 8.02246 90.1001 6.23456C88.4801 2.48456 88.4501 1.67456 89.7801 1.95456C91.3901 2.24456 96.7801 12.3946 98.1901 17.6546C99.3101 21.8546 99.5901 25.7046 98.9601 27.8046C98.4701 29.3446 98.5001 29.4546 99.7301 32.3646C101.41 36.2446 102.35 38.9446 102.14 39.1946C101.93 39.4446 94.0001 41.8146 93.6301 41.8146C93.4901 41.8146 93.2801 41.4646 93.1101 41.0446ZM21.8701 31.7646C21.5901 31.2746 19.2101 23.7646 18.1201 19.8946C17.0001 15.8246 16.8301 14.1846 17.5301 14.1846C18.0501 14.1846 19.1401 15.9346 21.9701 21.1846C23.1701 23.3846 24.2901 25.3546 24.4601 25.5646C24.9901 26.0846 24.8501 25.1746 24.1801 23.8446L23.6201 22.6146L25.1301 20.0646C27.8601 15.4346 29.3301 13.4746 30.0301 13.4746C30.4201 13.4746 31.3301 14.2846 32.2401 15.4746C33.4619 16.9422 34.7569 18.3473 36.1201 19.6846C38.5101 21.9246 38.8201 22.6846 37.6701 23.3946C36.8601 23.8846 34.5801 22.7946 32.3101 20.8046L30.6301 19.3346L30.1701 20.1746C29.6101 21.1746 29.5401 22.4146 30.0301 22.7246C30.2101 22.8346 30.4501 22.5546 30.5901 22.0646L30.8001 21.1846L33.2201 22.7946C34.0547 23.2897 34.8385 23.8658 35.5601 24.5146C35.3501 24.6946 22.2901 32.0146 22.1501 32.0146C22.0885 31.9949 22.0317 31.9625 21.9835 31.9194C21.9352 31.8763 21.8966 31.8236 21.8701 31.7646ZM37.8801 20.2446L36.1901 18.2446L37.2401 17.4046C39.5601 15.5146 39.7701 15.5846 40.8901 18.9146L41.5901 20.9746L40.8201 21.5746C40.5212 21.8348 40.1839 22.0473 39.8201 22.2046C39.0995 21.6289 38.4484 20.9711 37.8801 20.2446ZM34.2401 15.8646C33.6101 15.0546 33.2401 14.3246 33.4401 14.1446C34.3801 13.6176 35.3637 13.1726 36.3801 12.8146C37.8101 12.2246 40.2301 11.1046 41.7401 10.2946L44.4301 8.82456V9.73456C44.4301 10.4046 43.7301 11.2046 41.5601 13.0946C40.1495 14.3559 38.6227 15.4809 37.0001 16.4546L35.3501 17.3046L34.2401 15.8646Z" fill="#6A5439"/>
<path d="M54.3403 113.544C53.966 112.883 53.7728 112.134 53.7803 111.374C53.6981 110.535 53.5577 109.703 53.3603 108.884C53.1803 108.504 53.4603 107.884 54.1603 107.104C54.5161 106.814 54.786 106.433 54.9411 106.001C55.0962 105.57 55.1305 105.104 55.0403 104.654C54.8303 103.424 55.5603 100.514 56.1203 100.414C56.3003 100.414 57.0303 101.214 57.7703 102.304C58.6457 103.613 59.8218 104.693 61.2003 105.454C61.9793 105.82 62.6897 106.317 63.3003 106.924C63.3003 107.064 62.8803 107.174 62.3603 107.204C61.4375 107.286 60.5239 107.45 59.6303 107.694L57.8703 108.184H60.8703C62.5203 108.184 64.3403 108.184 64.8703 108.254H65.9203L65.0403 108.644C60.9103 110.364 58.3503 111.644 57.0903 112.644C55.6303 113.824 55.0003 114.034 54.3403 113.544ZM78.7103 110.814C77.5187 110.225 76.2771 109.743 75.0003 109.374C72.3303 108.574 71.1803 107.834 72.0003 107.484C72.4603 107.314 78.0003 108.574 79.7803 109.234C80.2003 109.414 80.3703 109.304 80.3703 108.924C80.3703 108.154 78.3103 107.314 75.9303 107.064C75.2142 107.042 74.5101 106.876 73.8603 106.574C73.7903 106.404 74.4603 105.914 75.4003 105.424C76.6468 104.694 77.779 103.784 78.7603 102.724C79.6703 101.724 80.5103 101.044 80.6903 101.214C81.1052 101.972 81.4693 102.757 81.7803 103.564C82.4403 105.244 82.5103 105.734 82.1603 106.474C81.9323 107.208 81.8741 107.984 81.9903 108.744C82.1064 109.094 82.1315 109.467 82.0633 109.83C81.995 110.192 81.8357 110.531 81.6003 110.814C80.9203 111.684 80.2903 111.684 78.7103 110.814ZM68.1403 108.114C67.5803 108.014 67.1403 107.734 67.1403 107.454C67.1403 107.174 67.6303 106.964 69.0603 106.964C70.4903 106.964 70.9903 107.064 70.9903 107.484C70.9929 107.551 70.9824 107.618 70.9592 107.681C70.936 107.744 70.9007 107.801 70.8551 107.851C70.8096 107.9 70.7549 107.94 70.694 107.968C70.6331 107.996 70.5672 108.011 70.5003 108.014C70.2203 108.014 69.8003 108.084 69.5003 108.114C69.0494 108.181 68.5911 108.181 68.1403 108.114Z" fill="#55514C"/>
<path d="M63.0002 105.354C61.0849 104.551 59.5035 103.114 58.5202 101.284C56.6526 98.3697 54.2218 95.8572 51.3702 93.8944C49.3102 92.5644 47.4502 90.6444 47.0702 89.4844C46.9783 89.2326 46.8235 89.0084 46.6204 88.8334C46.4174 88.6583 46.1729 88.5382 45.9102 88.4844C45.3902 88.3844 44.7202 88.2044 44.4402 88.1344C43.2102 87.8244 40.2402 82.0444 40.6902 80.8544C41.0102 80.0144 43.8802 78.3344 46.3302 77.5244C48.6936 76.9181 51.1129 76.5562 53.5502 76.4444C59.5502 75.9844 61.7802 75.4444 65.1402 73.8144C65.9729 73.324 66.8675 72.9473 67.8002 72.6944C67.3057 73.3999 66.6974 74.0183 66.0002 74.5244C64.0002 76.2444 64.2202 76.4544 67.0002 75.6144C69.1233 74.9474 70.9275 73.524 72.0702 71.6144C72.3319 71.1005 72.6689 70.6286 73.0702 70.2144C73.5281 70.6849 73.9185 71.2167 74.2302 71.7944C75.9102 74.5944 82.9502 79.2544 86.7302 80.0544C88.9402 80.5144 89.8502 81.4244 89.2902 82.6844C88.7302 83.9444 88.7602 84.4744 89.4302 83.8444C89.8561 83.2534 90.193 82.6032 90.4302 81.9144C90.9202 80.4444 91.2302 80.2344 91.9702 80.6844C92.3902 80.9644 92.3502 81.2444 91.8602 82.5444C90.8602 85.0344 89.6902 86.2944 88.1502 86.5444C87.1502 86.7244 86.7102 87.0044 86.4002 87.7744C85.0555 89.8337 83.2116 91.5193 81.0402 92.6744C79.2902 93.3044 79.3902 93.7944 81.1802 93.5144C82.5802 93.2744 82.6202 93.3044 82.3702 94.0744C81.5072 96.5339 80.2398 98.8321 78.6202 100.874C76.9102 102.874 73.1602 104.684 69.5202 105.424C66.1502 106.094 64.5202 106.094 62.9302 105.424L63.0002 105.354ZM62.4802 100.694C63.0402 98.0344 67.5902 96.4544 70.4802 97.9244C71.3602 98.3844 71.2202 97.6444 70.3102 97.0144C69.4002 96.3844 65.7502 96.3144 63.7202 97.0844C63.2556 97.2076 62.8292 97.445 62.4799 97.7751C62.1306 98.1052 61.8694 98.5175 61.7202 98.9744C61.2302 100.274 61.4102 102.264 62.0002 101.884C62.2265 101.523 62.3731 101.117 62.4302 100.694H62.4802ZM61.7402 94.8444C63.2802 94.3144 63.4902 94.3144 64.7402 94.9144C65.9902 95.5144 66.1702 95.5044 68.3502 94.7344C69.3189 94.3099 70.3745 94.1214 71.4302 94.1844C72.3702 94.4344 73.0702 93.8344 72.5102 93.2744C72.2302 92.9944 68.0702 93.6244 66.7002 94.1844C66.4385 94.2452 66.1664 94.2453 65.9046 94.1846C65.6429 94.1239 65.3985 94.0042 65.1902 93.8344C64.6715 93.494 64.0726 93.2955 63.4532 93.2586C62.8339 93.2218 62.2157 93.3479 61.6602 93.6244C61.1533 93.8559 60.6069 93.9883 60.0502 94.0144C59.8166 94.0077 59.584 94.0475 59.3659 94.1317C59.1479 94.2158 58.9488 94.3425 58.7802 94.5044C58.3602 94.9944 58.5402 95.0944 59.8402 95.3744C60.4685 95.2411 61.0867 95.064 61.6902 94.8444H61.7402ZM68.4302 91.0244C68.839 90.2642 69.3848 89.5861 70.0402 89.0244C70.9202 88.4944 70.8802 88.0244 70.0402 88.0244C69.2518 88.287 68.5568 88.7735 68.0402 89.4244C66.5702 91.0044 66.1802 91.1144 65.4102 90.2344C65.0302 89.7744 64.8502 88.8644 64.8902 87.0844C64.9785 85.7574 64.6686 84.4342 64.0002 83.2844C63.2302 82.0244 63.2302 81.9844 63.8902 81.2844C64.7586 80.4726 65.2964 79.3686 65.4002 78.1844C65.4002 77.4444 65.2602 77.5144 64.0002 78.8844C62.7402 80.2544 62.5302 80.3844 61.3102 80.2144C59.2402 79.8944 53.7802 79.3044 52.7302 79.3044C51.9396 79.4087 51.2016 79.7585 50.6202 80.3044L49.5002 81.3044L52.1302 81.1844C55.2102 80.9744 61.4502 81.9244 62.2902 82.6944C62.9202 83.2544 63.6502 85.6944 63.6502 87.1744C63.552 87.8762 63.2494 88.5335 62.7802 89.0644C61.9402 90.0644 61.9402 90.1544 62.5302 90.3244C63.1387 90.6658 63.6945 91.0936 64.1802 91.5944C64.4419 91.9052 64.7678 92.1555 65.1355 92.3281C65.5032 92.5008 65.904 92.5916 66.3102 92.5944C67.3002 92.6044 67.5802 92.3944 68.3802 91.0244H68.4302ZM44.6302 84.6144C44.1978 84.0339 43.8447 83.3983 43.5802 82.7244C42.9202 81.1144 42.2902 81.0044 42.2902 82.4444C42.2834 82.7644 42.3492 83.0818 42.4825 83.3727C42.6159 83.6637 42.8134 83.9207 43.0602 84.1244C43.4402 84.4444 44.0602 84.9644 44.3502 85.2444C45.0902 85.9444 45.3402 85.3844 44.6302 84.6144ZM80.6302 84.9344C81.3907 84.4236 82.0976 83.8373 82.7402 83.1844C83.4402 82.4144 83.4102 82.4144 81.7402 83.2944C79.3202 84.5144 76.5202 84.7944 74.9502 83.9944C72.9502 82.9944 73.1902 82.5544 75.6802 82.5844C77.6802 82.5844 81.2502 81.7844 81.9902 81.1144C82.1602 80.9744 80.7902 80.9444 78.9902 81.0144C75.2402 81.1844 70.7902 80.5944 69.9902 79.8244C69.5947 79.3736 69.3195 78.8301 69.1902 78.2444C68.8702 76.6344 68.1402 76.9844 68.3802 78.6644C68.4569 79.451 68.7689 80.1962 69.2755 80.8027C69.7821 81.4093 70.4599 81.849 71.2202 82.0644C71.9502 82.2744 72.3402 82.5844 72.4102 83.0644C72.5502 84.0644 73.2102 84.5644 74.8302 84.9844C75.5602 85.1644 76.6502 85.4444 77.2102 85.6144C78.8502 86.0544 79.2402 85.9844 80.6702 84.9344H80.6302ZM57.3802 85.0344C58.2414 84.6508 59.1491 84.3819 60.0802 84.2344C61.4802 84.0244 61.6202 83.9544 60.9902 83.6044C60.0788 83.3303 59.1144 83.2822 58.1802 83.4644C56.8496 83.5856 55.5108 83.5856 54.1802 83.4644C53.2472 83.3181 52.294 83.3658 51.3802 83.6044C50.4702 83.9944 50.4702 83.9944 51.8702 84.2344C52.6773 84.3468 53.4531 84.6224 54.1502 85.0444C55.2502 85.7344 56.0002 85.7344 57.4202 85.0344H57.3802ZM28.1002 55.4044C22.7102 54.6344 18.1902 53.9344 18.1002 53.7944C17.7102 53.4044 18.6202 45.9144 19.0402 45.7944C19.4602 45.6744 39.5002 50.7944 39.8502 51.1844C40.2002 51.5744 38.5502 56.9344 38.1702 56.8644C38.0002 56.8044 33.5002 56.1844 28.1002 55.4044ZM23.1002 51.9344C23.4557 51.5097 23.6421 50.9688 23.6236 50.4153C23.6052 49.8618 23.3832 49.3345 23.0002 48.9344C22.6748 48.6627 22.2642 48.5139 21.8402 48.5139C21.4162 48.5139 21.0057 48.6627 20.6802 48.9344C20.3948 49.4288 20.2563 49.9945 20.2811 50.5648C20.3059 51.1352 20.4929 51.6867 20.8202 52.1544C21.5202 52.8844 22.1802 52.8144 23.0602 51.9344H23.1002ZM90.0002 50.3244C88.0002 46.8244 87.4402 45.7344 87.7602 45.5644C88.0802 45.3944 109.86 39.0144 110.31 39.0144C110.76 39.0144 110.42 45.6344 109.96 46.0844C109.82 46.2344 105.87 47.6644 101.14 49.3144C96.4102 50.9644 92.3102 52.3144 91.9602 52.4944C91.6102 52.6744 91.0802 52.1844 90.0002 50.3244ZM109.72 42.5144C109.779 42.3276 109.796 42.1304 109.771 41.9362C109.747 41.7421 109.68 41.5556 109.577 41.3894C109.473 41.2233 109.335 41.0814 109.172 40.9736C109.008 40.8657 108.824 40.7944 108.63 40.7644C108.252 40.8579 107.907 41.0554 107.635 41.3347C107.363 41.6139 107.174 41.9636 107.09 42.3444C107.162 42.7301 107.359 43.0815 107.65 43.3444C108.31 44.0244 109.36 43.6044 109.71 42.5144H109.72ZM28.3502 46.6144L24.0002 45.4944L24.2102 44.3044C24.4398 43.3812 24.7441 42.4782 25.1202 41.6044L25.8202 40.1344L24.6002 37.6444C24.0382 36.657 23.6143 35.5971 23.3402 34.4944C23.3402 33.9744 25.0502 32.7444 30.2002 29.5544C32.8143 27.8514 35.5293 26.3085 38.3302 24.9344C39.1306 24.6982 39.8708 24.2923 40.5002 23.7444C41.7202 22.5844 49.8502 18.5944 50.5002 18.8444C51.5002 19.2244 51.0602 20.7644 49.2402 22.7644C46.7958 25.6728 44.6641 28.8301 42.8802 32.1844C41.562 34.4402 39.7115 36.3388 37.4902 37.7144C37.1294 37.8701 36.8198 38.1244 36.5969 38.4481C36.374 38.7718 36.247 39.1518 36.2302 39.5444C36.1415 40.1925 35.9129 40.8135 35.5602 41.3644C34.9949 42.4322 34.5489 43.559 34.2302 44.7244C33.9663 45.7499 33.5518 46.7306 33.0002 47.6344C31.4329 47.3789 29.8806 47.0384 28.3502 46.6144ZM93.0702 40.9444C92.9002 40.4544 92.7202 39.9444 92.7202 39.9444C92.7202 39.1344 91.1502 35.9444 90.7202 35.9444C90.2902 35.9444 89.8502 35.3444 89.3902 34.6144C88.6502 33.4244 88.3402 33.2444 85.8902 32.6144C83.7411 32.1094 81.7299 31.1363 80.0002 29.7644C77.1002 27.7644 76.4002 27.4944 73.5202 26.9344C72.3377 26.7844 71.1905 26.4291 70.1302 25.8844C69.6402 24.5544 71.7002 23.9544 77.5502 23.7744C81.7202 23.6744 81.9302 23.6044 83.6802 22.4844C85.1502 21.5344 85.3602 21.2944 84.6802 21.2244C83.9921 21.2283 83.3118 21.3712 82.6802 21.6444C80.6802 22.5144 79.9802 22.3444 78.7602 20.6444C77.1826 18.8828 75.4852 17.2323 73.6802 15.7044C69.8602 12.4144 68.8802 11.2644 69.5502 10.8444C69.9702 10.5944 72.2802 11.7544 74.9102 13.5344C76.9102 14.9044 82.7902 18.3744 83.0702 18.3744C84.0702 18.3744 80.3002 13.7844 74.5602 7.89443C72.1402 5.44443 71.5602 4.32443 72.3502 3.83443C72.8844 3.78665 73.42 3.90916 73.8802 4.18443C77.7315 6.75899 81.4434 9.53623 85.0002 12.5044C85.1469 12.6799 85.3284 12.8229 85.5332 12.9245C85.7381 13.026 85.9618 13.0839 86.1902 13.0944C86.8602 13.0944 86.8202 13.0244 85.8802 12.0144C82.8522 9.16725 79.5833 6.58761 76.1102 4.30443C74.2702 3.29443 73.6002 2.48443 74.0002 1.85443C74.4002 1.22443 75.1602 1.50443 78.1002 2.97443C81.7402 4.79443 86.4002 7.87443 87.9702 9.49443C88.9702 10.4944 89.1002 10.8544 88.8502 11.3844C88.3202 12.3244 88.4302 12.5044 89.3402 12.2544C89.6616 12.1943 89.9929 12.214 90.3049 12.3116C90.617 12.4092 90.9004 12.5819 91.1302 12.8144L92.1302 13.5844L91.9202 11.8044C91.5312 9.89702 90.9308 8.03889 90.1302 6.26443C89.4927 4.96918 89.0223 3.59821 88.7302 2.18443C89.0502 1.65443 90.1302 1.83443 90.7302 2.50443C92.7015 5.33234 94.4341 8.3193 95.9102 11.4344C98.6502 17.2444 100.05 24.6744 98.9102 27.7144L98.3902 29.2244L100.28 33.8144C101.004 35.4442 101.635 37.1135 102.17 38.8144C102.17 39.1644 99.7502 40.0444 94.0402 41.6844C93.6002 41.8144 93.3202 41.5744 93.0702 40.9444ZM21.8702 31.7644C21.5502 31.2344 18.4002 20.9444 17.7402 18.3844C16.9702 15.3844 16.9002 14.1444 17.5302 14.1444C18.1602 14.1444 20.3602 17.9344 22.4302 22.0244C24.3602 25.8444 25.5802 27.0244 24.2202 23.7744L23.6902 22.4844L25.5102 19.4344C29.7502 12.5044 29.9202 12.4344 32.1002 15.3044C33.3159 16.8025 34.6181 18.2283 36.0002 19.5744C36.9596 20.4107 37.7977 21.3767 38.4902 22.4444C38.4902 22.7244 38.1002 23.0744 37.6502 23.2844C36.6502 23.7744 34.5302 22.7644 32.3202 20.7344C31.4802 19.9644 30.6402 19.4344 30.4702 19.5444C29.9002 19.8944 29.5902 22.2044 30.0102 22.6244C30.4302 23.0444 30.4702 22.7244 30.6102 22.0944L30.8002 21.1844L33.2202 22.7944C34.0508 23.266 34.8257 23.8295 35.5302 24.4744C35.3502 24.6544 22.2902 31.9744 22.1502 31.9744C22.0329 31.9441 21.9322 31.8686 21.8702 31.7644ZM38.1602 20.4844C37.5676 19.8584 37.0476 19.1673 36.6102 18.4244C36.5402 18.2444 37.1402 17.5844 37.8802 16.9844C39.5202 15.6544 39.7302 15.7944 40.8802 18.8444L41.6502 20.9444L40.8502 21.5744C40.5513 21.8346 40.214 22.0471 39.8502 22.2044C39.2256 21.6948 38.6588 21.118 38.1602 20.4844ZM34.1002 15.6844C33.5802 14.9844 33.3002 14.3244 33.4402 14.1444C34.3802 13.6174 35.3638 13.1725 36.3802 12.8144C37.8102 12.2244 40.2302 11.1044 41.7402 10.2944L44.4302 8.82443V9.73443C44.4302 11.1344 37.4302 16.8844 35.6402 16.9544C35.3302 16.9544 34.6302 16.3844 34.1002 15.6844Z" fill="#55514C"/>
<path d="M46.7001 94.8042C46.9801 92.8042 47.0201 92.7442 47.7001 93.3042C48.1901 93.6542 48.1601 93.8942 47.5601 95.0842C47.3471 95.5948 47.0382 96.0599 46.6501 96.4542C46.545 95.9073 46.5621 95.3438 46.7001 94.8042ZM88.4101 91.5842C88.1301 90.2942 88.1001 88.0442 88.3101 88.0442C88.5652 87.9932 88.8136 87.9127 89.0501 87.8042C89.6101 87.6242 89.6401 87.8042 89.4001 89.4842C89.296 90.351 89.1187 91.2074 88.8701 92.0442C88.6601 92.6042 88.5901 92.5342 88.4101 91.5842ZM38.4301 79.1842C38.4301 77.6842 39.6901 76.0742 41.5501 75.0842C43.8064 74.3018 46.1113 73.6671 48.4501 73.1842C55.4501 71.6142 57.1001 71.1242 60.4501 69.6142C64.0601 67.9642 65.3201 66.9542 65.8101 65.2742C66.0093 64.7659 66.0747 64.215 66.0001 63.6742C65.8901 63.5342 65.0901 64.0242 64.2501 64.7242C63.1612 65.5391 61.9996 66.2521 60.7801 66.8542C58.3301 67.9742 52.3701 69.3142 47.5701 69.8542C43.2701 70.3142 39.1701 71.5342 37.0001 73.0042C36.1601 73.5642 35.4201 73.8842 35.3501 73.7042C35.7768 72.5588 36.3553 71.4758 37.0701 70.4842C41.0001 64.1842 47.4301 58.9742 53.6301 57.0142C55.954 56.3013 58.381 55.9836 60.8101 56.0742C64.9101 56.0042 65.3701 56.0742 67.1501 56.9142C70.3401 58.4142 72.7601 60.9142 72.7601 62.7242C72.5997 64.5712 71.8615 66.3207 70.6501 67.7242C68.3165 70.2156 65.5391 72.2503 62.4601 73.7242C60.5701 74.5642 56.1201 75.3742 50.5201 75.8342C41.9401 76.5342 40.8801 76.8342 39.2401 79.3342L38.4301 80.4842V79.1842ZM86.9401 78.5942C86.0996 78.5086 85.2751 78.3066 84.4901 77.9942C83.9001 77.6142 84.1801 77.5442 86.2401 77.4742C89.6801 77.3642 90.8701 77.4742 91.7101 77.9242C92.0901 78.1342 92.3701 78.3442 92.3001 78.3842C92.0001 78.6642 88.4801 78.8042 86.9401 78.5942ZM82.5301 75.0542C77.6301 73.3342 74.0501 70.6042 73.6001 68.2642C73.3901 67.0642 73.6701 63.8842 74.0201 63.8842C74.7319 64.4502 75.4005 65.0686 76.0201 65.7342C79.0201 68.7342 82.9501 72.0042 84.4901 72.6742C85.7901 73.2642 89.2601 73.9642 93.8101 74.5642C94.5752 74.6168 95.321 74.8279 96.0001 75.1842C96.4601 75.5342 95.3401 75.6042 90.5101 75.6442C85.3301 75.7242 84.1401 75.6142 82.5301 75.0542Z" fill="#895730"/>
<path d="M38.0903 74.9842C38.0903 73.4042 42.2203 71.7942 48.2403 71.0942C50.8303 70.7842 53.6003 70.4342 54.3703 70.3242C57.4203 69.9742 54.0903 70.8842 48.5603 71.9342C44.3203 72.7442 42.3203 73.3042 40.7503 74.1442C39.5603 74.7742 38.5103 75.2942 38.3703 75.3642C38.2303 75.4342 38.0903 75.2642 38.0903 74.9842ZM90.6203 72.9542C86.9403 72.2542 84.1103 70.8842 80.2503 67.9542C75.6003 64.4242 74.7903 63.2342 75.1103 60.2842C75.2803 58.3642 75.3203 58.2842 76.5103 58.1842C78.8203 57.9042 82.6403 58.5342 83.7603 59.3742C84.3503 59.7942 85.7603 60.7442 86.7603 61.4842C88.6503 62.7042 90.4103 64.4842 90.0903 64.8042C89.3829 64.6697 88.7054 64.4088 88.0903 64.0342C87.2027 63.5792 86.2914 63.172 85.3603 62.8142C84.5203 62.4942 84.5503 62.5642 85.6403 63.4042C89.1103 66.0642 92.9903 70.9742 92.9903 72.7242C93.0703 73.4042 92.9303 73.4042 90.6203 72.9542ZM39.8403 63.7042C39.8403 63.0442 42.0103 59.3942 43.9303 56.7742C46.2922 53.5492 49.2114 50.7722 52.5503 48.5742C55.6252 46.8804 59.0903 46.0219 62.6003 46.0842C64.666 46.277 66.6569 46.9555 68.4104 48.0643C70.1639 49.1731 71.6305 50.6807 72.6903 52.4642C73.4603 53.9742 73.6003 54.7042 73.6303 57.1242C73.6913 58.167 73.6106 59.2132 73.3903 60.2342C73.2503 60.3742 72.3903 59.6742 71.5303 58.6942C69.5303 56.4242 67.0503 55.2342 63.3703 54.6942C56.3703 53.6942 47.1603 56.9342 41.9403 62.2642C40.5403 63.7342 39.8403 64.1842 39.8403 63.6942V63.7042Z" fill="#895730"/>
<path d="M86.77 59.4645C84.4056 57.8422 81.5739 57.0412 78.71 57.1845C77.6208 57.2557 76.5269 57.175 75.46 56.9445C75.2588 56.1065 75.1647 55.2463 75.18 54.3845L75 52.1845L76.82 52.0845C79.82 51.9045 83.4 54.0845 87.08 58.3145C89 60.4445 88.87 60.9745 86.77 59.4645Z" fill="#895730"/>
<path d="M54.2698 113.185C53.948 112.609 53.8019 111.952 53.8498 111.295C53.8632 110.488 53.745 109.684 53.4998 108.915C53.2198 108.145 53.3198 107.825 54.1998 106.845C54.5626 106.538 54.8305 106.134 54.9722 105.681C55.1139 105.228 55.1235 104.743 54.9998 104.285C54.9153 103.292 55.0839 102.294 55.4898 101.385L56.1598 99.8447L57.7298 102.045C58.5915 103.443 59.8145 104.583 61.2698 105.345C63.4798 106.535 63.7898 106.955 62.4598 106.955C61.1298 106.955 58.0498 107.725 58.2598 108.035C59.556 108.244 60.874 108.281 62.1798 108.145L65.9298 107.965L63.1298 109.185C59.8398 110.545 57.1298 112.055 56.3698 113.005C56.2573 113.173 56.1084 113.314 55.9341 113.417C55.7599 113.519 55.5647 113.582 55.3631 113.599C55.1614 113.616 54.9585 113.588 54.7693 113.516C54.58 113.445 54.4093 113.331 54.2698 113.185ZM79.1698 110.955C77.9454 110.305 76.6546 109.789 75.3198 109.415C73.3198 108.785 72.1998 108.225 72.1298 107.875C72.0598 107.525 72.1298 107.315 72.2998 107.315C72.4698 107.315 78.1198 108.785 79.6898 109.235C80.2498 109.445 80.4598 109.345 80.4598 108.925C80.4598 108.155 78.8498 107.415 76.2598 106.995C75.0698 106.785 74.0198 106.575 73.9498 106.545C74.508 106.067 75.135 105.676 75.8098 105.385C77.0688 104.745 78.1612 103.821 78.9998 102.685C79.4193 102.055 79.9279 101.489 80.5098 101.005C81.0282 101.746 81.4295 102.562 81.6998 103.425C82.5098 105.425 82.5798 105.945 82.2298 106.575C81.9606 107.265 81.898 108.019 82.0498 108.745C82.4298 111.055 80.9998 112.185 79.1698 110.955ZM68.2398 108.015C68.0393 107.982 67.8474 107.91 67.6756 107.802C67.5038 107.693 67.3556 107.552 67.2398 107.385C67.1698 107.105 67.6898 106.965 69.0598 106.965C70.4298 106.965 71.0598 107.105 71.0598 107.455C70.9998 108.015 69.4698 108.325 68.2398 108.015Z" fill="#7B7870"/>
<path d="M64 105.635C62.444 105.13 61.0054 104.317 59.7701 103.245C59.2833 102.606 58.8358 101.938 58.43 101.245C56.6339 98.4054 54.2879 95.9539 51.53 94.0348C49.6435 92.8547 48.0854 91.2174 47 89.2748C46.836 89.0498 46.6267 88.8615 46.3856 88.722C46.1445 88.5825 45.8769 88.4949 45.6 88.4648C44.16 88.2948 43.15 87.2048 41.71 84.4048C40.27 81.6048 40.35 80.6948 42.55 79.2948C45.15 77.6448 47.95 76.9448 53.69 76.5248C59.79 76.0748 61.64 75.6548 65.0401 73.8948C65.9271 73.3993 66.8536 72.9779 67.81 72.6348C67.95 72.6348 67.1801 73.4748 66.1201 74.4248L64.18 76.1848L65.68 75.9748C67.0675 75.7594 68.3866 75.2269 69.5348 74.4187C70.683 73.6105 71.6292 72.5483 72.3001 71.3148L73 70.1848L74.4401 72.0748C76.9201 75.2548 83.72 79.6048 87.08 80.1648C87.8144 80.264 88.5068 80.5651 89.08 81.0348C89.64 81.6648 89.64 81.8048 89.08 82.9348C88.76 83.5948 88.65 84.1548 88.83 84.1548C89.32 84.1548 90.58 82.0148 90.58 81.2448C90.58 80.7948 90.79 80.6148 91.39 80.7248C92.3 80.8648 92.26 81.5248 91.21 83.7248C90.44 85.3348 88.83 86.5948 87.5 86.5948C87.2407 86.5907 86.9879 86.6759 86.7839 86.8361C86.58 86.9964 86.4374 87.2219 86.38 87.4748C85.1902 89.5844 83.4109 91.3012 81.26 92.4148C79.34 93.1448 79.26 93.7748 81.09 93.4148C82.46 93.2048 82.49 93.2048 82.21 94.1448C81.3385 96.5709 80.0861 98.8427 78.5 100.875C76.2901 103.285 71.6001 105.185 66.7601 105.605C65.8457 105.741 64.9171 105.751 64 105.635ZM62.39 100.865C62.67 99.4348 63.3901 98.6948 65.5801 97.8648C67.2867 97.2576 69.1582 97.3075 70.8301 98.0048C71.3901 98.2148 71.36 98.0748 70.59 97.2648C69.82 96.4548 69.3601 96.2648 67.7901 96.2648C65.7901 96.2648 62.5301 97.2048 61.9001 97.9848C61.5824 98.5056 61.3811 99.0889 61.3101 99.6948C61 101.985 62 103.075 62.39 100.865ZM61.9001 94.8648C62.3154 94.5904 62.8022 94.4442 63.3 94.4442C63.7979 94.4442 64.2847 94.5904 64.7 94.8648C66.03 95.4648 66.14 95.4648 68.45 94.7648C69.503 94.4008 70.5989 94.1756 71.71 94.0948C72.2701 94.0948 72.62 93.9548 72.71 93.5348C72.8 93.1148 72.64 92.9448 70.96 93.1548C69.858 93.3094 68.7685 93.5434 67.7 93.8548C66.44 94.2748 66.16 94.2348 64.7901 93.5748C63.4201 92.9148 63.18 92.8748 62.0601 93.4348C61.431 93.7363 60.7542 93.9258 60.0601 93.9948C59.0601 93.9948 58.17 94.8648 58.87 95.1448C59.57 95.4248 60.4701 95.4048 61.9001 94.8448V94.8648ZM67.2301 92.5548C67.842 91.9083 68.3911 91.2051 68.8701 90.4548C69.2268 89.7971 69.7174 89.2215 70.31 88.7648C70.3568 88.7677 70.4036 88.7607 70.4474 88.7441C70.4912 88.7276 70.5309 88.7019 70.564 88.6688C70.5971 88.6357 70.6228 88.5959 70.6394 88.5521C70.6559 88.5083 70.663 88.4615 70.6601 88.4148C70.6601 87.5748 69.08 88.1748 67.89 89.4648C67.4409 90.0414 66.8796 90.5211 66.24 90.8748C65.33 90.8748 64.88 89.6448 64.88 87.2248C64.9543 85.8744 64.6896 84.5268 64.1101 83.3048L63.34 81.8348L64 81.1848C64.7975 80.5023 65.3286 79.5604 65.5 78.5248C65.82 77.1948 65.05 77.2248 64.14 78.6248C63.23 80.0248 62.46 80.3048 58.71 79.7848C56.9561 79.5379 55.1903 79.3843 53.42 79.3248C51.74 79.3248 51.35 79.4348 50.55 80.3248L49.64 81.2648L53.39 81.3348C55.466 81.3769 57.5371 81.554 59.59 81.8648C61.69 82.2448 62.07 82.4548 62.59 83.3748C63.0046 84.1991 63.288 85.0831 63.43 85.9948C63.5678 86.4974 63.5787 87.0264 63.4618 87.5342C63.3449 88.0421 63.1037 88.513 62.76 88.9048C62 90.0448 62 90.1848 62.53 90.3948C63.2316 90.7755 63.8804 91.2461 64.46 91.7948C65.8601 93.0548 66.3801 93.1848 67.2301 92.5348V92.5548ZM45.09 85.4548C45.0436 85.0759 44.871 84.7237 44.6 84.4548C44.1609 83.9151 43.8068 83.3115 43.55 82.6648C43.02 81.3648 42.4601 81.0548 42.18 81.8548C41.9 82.6548 42.6401 83.9648 43.7901 84.9748C45.1301 86.0848 45.09 86.0848 45.09 85.4548ZM80.67 84.9348C81.4166 84.4218 82.11 83.8356 82.74 83.1848C83.41 82.4148 83.41 82.4148 81.62 83.3248C79.2001 84.5148 75.4201 84.6248 74.2301 83.5348C73.0401 82.4448 73.23 82.3748 75 82.6248C76.7701 82.8748 80.67 82.0648 81.76 81.2248C82.29 80.8348 81.9401 80.8048 79.4101 80.9748C76.0501 81.1848 71.25 80.6248 70.1 79.8548C69.6015 79.4788 69.2624 78.9291 69.1501 78.3148C68.84 76.8448 68.21 76.9548 68.21 78.4248C68.2967 79.2674 68.6264 80.0667 69.1591 80.7254C69.6917 81.384 70.4042 81.8737 71.21 82.1348C71.98 82.3748 72.4401 82.7648 72.5101 83.2948C72.6101 84.0648 73.3101 84.5148 75.9401 85.3948C78.2201 86.1848 79.13 86.0548 80.67 84.9348ZM57.35 85.0748C58.1913 84.6909 59.084 84.4316 60 84.3048C61.5401 84.0948 62.17 83.5348 61 83.4648C57.8801 83.2848 52.1001 83.3548 51.3301 83.6348C50.1001 84.0248 50.73 84.6348 52.1301 84.3348C52.8209 84.2723 53.5099 84.4722 54.0601 84.8948C54.5109 85.2853 55.0787 85.5149 55.6743 85.5475C56.2698 85.5801 56.8593 85.4138 57.35 85.0748ZM27.05 55.2348C24.0455 54.8987 21.0636 54.3844 18.12 53.6948C18.1166 51.0459 18.3745 48.4031 18.89 45.8048C19.1 45.5948 39.45 50.8048 39.8 51.1348C39.98 51.2748 39.28 54.3248 38.8 55.7548C38.37 56.7748 37.91 56.7348 27.05 55.2348ZM23.38 51.5548C23.5983 51.2805 23.7171 50.9403 23.7171 50.5898C23.7171 50.2393 23.5983 49.8991 23.38 49.6248C22.32 47.7748 20.22 48.2948 20.22 50.4348C20.22 52.5748 22.32 53.4048 23.38 51.5548ZM89.33 49.1048C88.6153 48.0434 88.0814 46.8708 87.75 45.6348C88.17 45.2448 110.3 38.9448 110.51 39.1548C110.591 40.3464 110.545 41.5433 110.37 42.7248L110.06 46.1248L101.13 49.1848C96.22 50.9048 91.99 52.3048 91.67 52.3048C91.35 52.3048 90.3801 50.9948 89.33 49.1048ZM109.25 43.3248C110.44 42.2348 109.64 40.4548 108.17 40.9448C107.928 41.0326 107.712 41.18 107.542 41.3734C107.373 41.5668 107.254 41.7999 107.198 42.0511C107.143 42.3024 107.151 42.5636 107.223 42.8107C107.295 43.0578 107.428 43.2828 107.61 43.4648C108.45 44.0248 108.48 44.0248 109.25 43.3248ZM28.63 46.5448L24.25 45.4248L24.36 44.4248C24.5427 43.5103 24.8244 42.6184 25.2 41.7648L25.9 40.1248L24.64 37.5948C24.094 36.6138 23.6708 35.5693 23.38 34.4848C23.38 33.7448 36.23 25.6248 38.3 25.0648C39.1033 24.809 39.8501 24.4016 40.5 23.8648C41.83 22.6448 49.85 18.5848 50.5 18.8648C51.5801 19.3248 51.06 20.8648 49.1 22.9948C46.6962 25.6811 44.6585 28.6738 43.0401 31.8948C41.7859 34.2438 39.9378 36.223 37.68 37.6348C37.2683 37.8201 36.9106 38.1075 36.6411 38.4697C36.3716 38.832 36.1991 39.2572 36.14 39.7048C36.0232 40.3689 35.7713 41.0019 35.4001 41.5648C34.8469 42.552 34.4362 43.6125 34.18 44.7148C33.9412 45.6792 33.6062 46.6173 33.18 47.5148C31.634 47.3494 30.1092 47.0244 28.63 46.5448ZM92.76 39.9248C92.37 38.8748 91.9501 37.5748 91.76 37.0848C91.6848 36.8243 91.5573 36.5818 91.3854 36.3721C91.2135 36.1623 91.0007 35.9897 90.76 35.8648C90.1401 35.4934 89.6214 34.9748 89.25 34.3548C88.62 33.2748 88.25 33.0648 85.96 32.5748C83.8104 32.0509 81.794 31.0836 80.0401 29.7348C77.0401 27.7348 76.29 27.4248 73.59 26.8948C70.59 26.3048 69.81 25.8148 70.59 24.8948C71.08 24.3048 78.1601 23.4548 80.1201 23.7748C81.4501 23.9848 81.8 23.8748 83.55 22.6848C85.3 21.4948 85.44 21.3548 84.55 21.2548C83.8593 21.2317 83.1731 21.3757 82.55 21.6748C80.87 22.5448 80.2001 22.3748 78.8001 20.6248C77.8601 19.5048 70.2901 12.5648 69.6601 12.2848C69.6601 12.2848 69.56 11.9348 69.49 11.5848C69.31 10.4648 70.0101 10.5848 72.3601 12.0748C78.0301 15.5748 82.83 18.3848 83.22 18.3848C83.61 18.3848 83.43 18.0348 82.97 17.3848C82.29 16.1848 75.18 8.18481 73.32 6.51481C71.25 4.58481 71.8801 3.01481 74.1601 4.37481C75.8101 5.37481 83.62 11.2748 84.91 12.5048C86.4901 13.9748 87.15 13.3748 85.65 11.8048C82.6741 8.97401 79.4438 6.42324 76 4.18481C74.07 3.18481 73.48 2.08481 74.57 1.73481C75.66 1.38481 85.35 6.84481 87.84 9.33481C88.96 10.4548 89.17 11.3348 88.47 12.0348C88.08 12.4148 88.22 12.4848 89.14 12.3148C89.4865 12.2074 89.8557 12.1963 90.208 12.2826C90.5603 12.369 90.8824 12.5495 91.14 12.8048C91.63 13.1548 92.14 13.3248 92.22 13.1548C92.54 12.6648 91.52 9.26481 90.02 5.79481C89.4255 4.65678 88.9914 3.44192 88.73 2.18481C89.05 1.65481 90.1301 1.83481 90.66 2.50481C92.7542 5.58707 94.6128 8.82292 96.22 12.1848C98.61 17.4748 99.73 24.1248 98.85 27.5948C98.4 29.2748 98.43 29.3748 99.85 32.8448C101.46 36.6248 102.3 38.9448 102.09 39.1548C102.09 39.1548 100.27 39.7848 98.09 40.3748L93.82 41.6748C93.61 41.7748 93.12 41.0048 92.7 39.8848L92.76 39.9248ZM20.43 27.1848C17.43 18.0048 16.55 14.1148 17.43 14.1148C18.02 14.1148 18.16 14.3648 21.49 20.4248C24.12 25.2248 25.06 26.6248 24.57 24.9748C23.77 22.3148 23.91 21.8248 26.57 17.6248C28.32 14.9248 29.41 13.5548 29.9 13.4848C30.39 13.4148 30.99 13.8748 32 15.2348C33.249 16.757 34.5845 18.2061 36 19.5748C36.9594 20.4111 37.7975 21.3771 38.4901 22.4448C38.4901 22.6948 38.17 23.0448 37.75 23.2548C36.84 23.7748 34.63 22.7248 32.39 20.7648C31.52 19.9948 30.64 19.4348 30.47 19.5748C29.9 19.8948 29.59 22.2048 30.04 22.6548C30.26 22.8648 30.43 22.9048 30.43 22.7248C30.4676 22.4232 30.5774 22.135 30.75 21.8848C30.99 21.5348 31.52 21.7448 33.23 22.8848C34.42 23.6848 35.23 24.4948 35.09 24.6348C34.9501 24.7748 22.37 31.9948 22.16 31.9948C22.16 31.9948 21.36 29.8148 20.48 27.1948L20.43 27.1848ZM38.16 20.4548C37.5483 19.8197 37.048 19.0861 36.68 18.2848C36.68 17.7248 38.9601 16.1448 39.5201 16.2848C40.08 16.4248 41.5201 20.5948 41.2701 21.0548C41.0092 21.3514 40.6889 21.5899 40.3301 21.7548C39.7001 22.0948 39.4501 21.9248 38.16 20.4548ZM34.1301 15.6548C33.6 14.9148 33.32 14.2548 33.46 14.1148C34.2244 13.7386 35.0089 13.4047 35.8101 13.1148C37.0001 12.6448 39.2801 11.5548 41 10.6848C44 9.06481 44.67 8.96481 44.2901 10.2248C44.0401 10.9648 39.42 14.9848 37.42 16.2248C35.7 17.2348 35.18 17.1848 34.1301 15.6548Z" fill="#7B7870"/>
<path d="M54.2698 113.185C53.948 112.609 53.8019 111.952 53.8498 111.295C53.8566 110.5 53.7488 109.709 53.5298 108.945C53.2898 108.285 53.3898 107.945 54.1298 106.945C54.481 106.534 54.7453 106.056 54.9069 105.541C55.0685 105.025 55.1239 104.482 55.0698 103.945C55.1119 102.923 55.3005 101.913 55.6298 100.945L56.1898 99.7246L57.4898 101.725C58.6798 103.615 61.8298 106.175 62.9498 106.175C63.0411 106.179 63.1273 106.218 63.192 106.282C63.2566 106.347 63.295 106.433 63.2998 106.525C63.2998 106.735 62.9198 106.875 62.4298 106.875C60.9898 106.875 58.0498 107.605 58.2198 107.875C59.5387 108.121 60.887 108.168 62.2198 108.015L65.9698 107.875L64.1498 108.535C61.4365 109.565 58.8684 110.943 56.5098 112.635C55.5098 113.635 54.9398 113.635 54.3098 113.055L54.2698 113.185ZM79.2698 110.985C78.0154 110.339 76.7029 109.814 75.3498 109.415C73.1398 108.675 72.0598 108.115 72.0598 107.765C72.0598 107.175 72.6898 107.275 77.2798 108.605C78.2889 108.941 79.3318 109.166 80.3898 109.275C80.7398 108.885 80.0798 107.975 79.2398 107.665C78.1968 107.337 77.1304 107.09 76.0498 106.925L73.6998 106.505L75.6998 105.505C76.9715 104.803 78.0928 103.859 78.9998 102.725C79.4306 102.082 79.949 101.503 80.5398 101.005C81.0287 101.758 81.4186 102.572 81.6998 103.425C82.5098 105.425 82.5798 105.945 82.2298 106.575C81.9619 107.255 81.8993 107.999 82.0498 108.715C82.2298 109.795 82.1598 110.185 81.5598 110.775C80.7098 111.615 80.1798 111.685 79.2698 110.985Z" fill="#96918A"/>
<path d="M63.5498 105.424C61.5434 104.799 59.8425 103.447 58.7798 101.634C57.6598 99.3642 54.1598 95.6342 51.3598 93.8242C49.8834 92.9349 48.6257 91.7251 47.6798 90.2842C46.7698 88.8842 46.2498 88.3942 45.6798 88.3942C44.3498 88.3942 43.1198 87.1342 41.7598 84.3342C40.5698 81.9842 40.4998 81.6342 40.9198 80.8642C41.5098 79.7442 46.3098 77.2942 48.3398 77.0542C49.1798 76.9442 52.0198 76.7042 54.6798 76.4942C60.0798 76.0342 62.1398 75.4942 65.2598 73.8942C68.3798 72.2942 68.2598 72.3942 66.1298 74.3542C64.3898 75.9342 64.2798 76.1042 64.9998 76.1842C67.5198 76.1842 71.0598 73.9042 72.3498 71.3842L72.9998 70.0842L73.7398 71.2742C75.9498 74.8442 84.3898 80.3442 87.6398 80.3442C87.9315 80.3651 88.2141 80.4548 88.4645 80.6061C88.7148 80.7573 88.9257 80.9657 89.0798 81.2142C89.5698 81.9842 89.5698 82.1242 89.0798 82.8642C88.7801 83.2472 88.587 83.7026 88.5198 84.1842C88.5198 85.0942 90.6198 82.5042 90.6198 81.5542C90.6198 80.9242 90.7998 80.6842 91.3198 80.6842C92.3198 80.6842 92.1998 81.9042 90.9698 84.1142C90.0298 85.7242 89.7098 86.0042 88.3098 86.3542C87.8169 86.4147 87.3491 86.6061 86.9552 86.9086C86.5612 87.2111 86.2555 87.6136 86.0698 88.0742C84.8187 90.063 83.0152 91.6441 80.8798 92.6242C79.6898 93.1542 79.3798 93.3942 79.7598 93.6242C80.1786 93.7833 80.6411 93.7833 81.0598 93.6242C82.2198 93.2042 82.2198 93.2042 82.2198 94.0442C82.2198 95.2342 79.6898 99.6842 78.1498 101.264C76.3298 103.044 74.6498 103.954 71.2898 104.834C67.6098 105.804 65.1198 106.014 63.5498 105.424ZM62.5498 100.694C63.0398 99.0842 63.3598 98.8042 65.5498 97.9642C66.3385 97.6207 67.1896 97.4434 68.0498 97.4434C68.9101 97.4434 69.7612 97.6207 70.5498 97.9642C71.8498 98.3842 71.1498 97.2642 69.7098 96.5942C68.4198 95.9642 66.7098 96.0742 63.9298 96.8442C63.2426 96.9658 62.6142 97.3094 62.1409 97.8224C61.6677 98.3354 61.3757 98.9894 61.3098 99.6842C60.9198 102.184 61.8698 102.894 62.5298 100.694H62.5498ZM61.9998 94.8742C63.1898 94.3842 63.3998 94.3842 64.3798 94.8742C65.8198 95.5742 66.5498 95.5442 68.7598 94.7042C69.6811 94.2909 70.6963 94.1321 71.6998 94.2442C72.6998 94.4242 72.7498 94.3842 72.6998 93.6142C72.6298 93.0942 72.3798 92.8142 72.0698 92.8842C71.7598 92.9542 70.5998 93.1642 69.4398 93.3342C68.5863 93.459 67.7526 93.6943 66.9598 94.0342C66.6398 94.2842 66.0798 94.1742 65.0998 93.6842C63.4198 92.8142 62.9998 92.7742 61.6998 93.4742C61.1533 93.7551 60.5604 93.9347 59.9498 94.0042C58.9998 94.0042 58.1598 94.9142 58.8298 95.1542C59.883 95.4739 61.019 95.3736 61.9998 94.8742ZM67.1198 92.6042C67.7519 92.0811 68.2751 91.4389 68.6598 90.7142C69.0123 89.9745 69.5715 89.3528 70.2698 88.9242C70.6498 88.7842 70.8998 88.5342 70.7898 88.3642C70.3398 87.6642 69.1098 88.1142 67.7898 89.4442C67.2995 89.9915 66.7339 90.4662 66.1098 90.8542C65.2998 90.8542 64.8498 89.5542 64.8498 87.0342C64.9127 85.6657 64.6737 84.3001 64.1498 83.0342C63.5198 81.7042 63.5198 81.7042 64.2498 80.9342C65.0127 80.0461 65.5207 78.9679 65.7198 77.8142C65.7198 77.1542 64.8098 77.5342 64.1498 78.5542C63.1498 80.0242 62.2898 80.1942 58.6098 79.7042C56.8298 79.4942 54.5198 79.2842 53.4298 79.2842C51.7098 79.2842 51.4298 79.3542 50.4298 80.2842L49.4298 81.3742L51.5298 81.1242C53.6698 80.9142 60.7098 81.7242 61.8998 82.3842C62.5298 82.7042 63.0498 84.0742 63.4398 86.2442C63.5534 86.6535 63.5508 87.0863 63.4325 87.4943C63.3142 87.9022 63.0848 88.2692 62.7698 88.5542C61.7198 89.7742 61.6198 90.4142 62.4198 90.4142C63.1487 90.6666 63.8092 91.0842 64.3498 91.6342C65.8598 93.0542 66.1398 93.1242 67.1598 92.6042H67.1198ZM44.4898 84.0942C44.0582 83.5691 43.6953 82.9911 43.4098 82.3742C42.9498 81.2842 42.4598 81.1142 42.1498 81.9142C41.8398 82.7142 42.2898 83.5642 43.6498 84.7942C44.6498 85.6342 44.9498 85.7942 45.0198 85.3542C45.0189 85.1196 44.9716 84.8876 44.8806 84.6713C44.7897 84.4551 44.6569 84.259 44.4898 84.0942ZM81.5898 84.1942L83.4398 82.4442L81.5098 83.3242C78.9598 84.4742 75.3898 84.5442 74.2298 83.4942C73.9263 83.2339 73.6663 82.9267 73.4598 82.5842C74.0327 82.504 74.6154 82.5277 75.1798 82.6542C76.6602 82.8042 78.1552 82.6126 79.5498 82.0942C80.5517 81.839 81.5188 81.4629 82.4298 80.9742C82.5298 80.7942 81.2998 80.7642 79.5198 80.9042C76.4984 81.0813 73.4673 80.8219 70.5198 80.1342C69.8932 79.6694 69.4084 79.0392 69.1198 78.3142L68.3898 76.6642L68.2498 78.0342C68.1098 79.7442 68.9098 80.9742 70.9098 81.9142C71.7098 82.3042 72.3398 82.9142 72.3798 83.1842C72.3798 83.9842 72.9698 84.4042 75.1798 85.1842C78.5398 86.3342 79.4498 86.1842 81.5898 84.1842V84.1942ZM58.0798 84.8942C58.8779 84.5205 59.7332 84.2839 60.6098 84.1942C61.5198 84.1942 61.9698 83.5342 61.1298 83.4642C57.7979 83.2787 54.4574 83.3121 51.1298 83.5642C50.0498 83.9542 50.5398 84.6542 51.6898 84.4042C52.3911 84.2872 53.1102 84.4526 53.6898 84.8642C54.9998 85.7342 56.2298 85.7742 58.0798 84.8942ZM27.4698 55.1842L18.4698 53.9242V52.9242C18.5669 50.5362 18.8478 48.1592 19.3098 45.8142C21.1248 46.0895 22.9165 46.5007 24.6698 47.0442C27.5098 47.8142 32.1698 49.0442 35.0398 49.7342C39.0398 50.7842 40.1898 51.2042 40.1898 51.6642C40.0341 52.5965 39.7862 53.511 39.4498 54.3942C38.5398 56.9842 39.7298 56.8742 27.4698 55.1842ZM23.1998 51.9742C23.7298 51.3742 23.7998 51.0242 23.5198 49.9742C23.2398 48.9242 23.0598 48.6742 22.1098 48.5742C20.8198 48.4342 20.1098 49.1642 20.1098 50.5742C20.1198 52.5642 21.9398 53.3742 23.1998 51.9742ZM89.3298 49.0642C88.0998 46.8942 87.6398 45.7742 87.9198 45.6342C88.7598 45.1842 110.3 38.9842 110.48 39.1842C110.55 40.376 110.503 41.5716 110.34 42.7542L110.06 46.1142L101.13 49.1842C96.2198 50.8842 91.9998 52.2842 91.6698 52.2842C91.3398 52.2842 90.3798 50.9242 89.3298 49.0642ZM109.25 43.3242C110.58 42.1342 109.57 40.3242 107.96 41.0442C107.74 41.1483 107.548 41.3029 107.399 41.4954C107.251 41.688 107.15 41.913 107.105 42.152C107.06 42.391 107.073 42.6372 107.141 42.8705C107.21 43.1038 107.333 43.3175 107.5 43.4942C108.06 44.0542 108.48 44.0242 109.25 43.3242ZM27.9298 46.4042C24.2498 45.4542 24.2498 45.4042 24.3598 44.4042C24.5415 43.4798 24.8232 42.5778 25.1998 41.7142L25.9298 39.9942L24.5998 37.2942C24.0548 36.3206 23.6539 35.273 23.4098 34.1842C23.6598 33.5542 36.7498 25.5342 38.4098 25.0742C39.2011 24.8663 39.9248 24.4562 40.5098 23.8842C41.6565 22.9901 42.9135 22.2473 44.2498 21.6742C46.0098 20.8342 47.9698 19.7842 48.6998 19.3642C49.2327 18.9913 49.8694 18.7953 50.5198 18.8042C51.6098 19.2242 51.1498 20.6942 49.1898 22.8042C46.6401 25.804 44.4207 29.0695 42.5698 32.5442C41.5073 34.5745 39.878 36.2524 37.8798 37.3742C37.4639 37.5732 37.0973 37.8621 36.8068 38.2201C36.5162 38.5781 36.3089 38.9962 36.1998 39.4442C36.0105 40.2182 35.7144 40.962 35.3198 41.6542C34.7588 42.7438 34.3163 43.8903 33.9998 45.0742C33.2498 47.8742 33.4298 47.8442 27.9298 46.4042ZM93.4598 41.3242C93.0221 40.4179 92.6479 39.4824 92.3398 38.5242C91.8098 36.9442 91.3398 36.0342 90.8698 35.9342C90.3998 35.8342 89.8698 35.1642 89.5698 34.4242C88.9398 33.2342 88.6898 33.0642 86.8698 32.7142C84.1689 32.1689 81.636 30.9899 79.4798 29.2742C77.8138 27.9819 75.8316 27.16 73.7398 26.8942C70.5198 26.2342 69.6798 25.6342 70.7998 24.8342C71.5698 24.2742 78.6098 23.4942 80.2498 23.7742C81.3698 23.9842 81.7998 23.8442 83.5498 22.6942C85.2998 21.5442 85.4398 21.3242 84.7398 21.2242C83.8647 21.2397 82.9988 21.4055 82.1798 21.7142L80.4298 22.3442L78.5398 20.2442C76.8308 18.422 75.0284 16.6897 73.1398 15.0542C70.8998 13.1342 69.6098 11.7642 69.6098 11.3142C69.6098 10.6842 69.6798 10.6842 70.7998 11.1342C71.9858 11.7249 73.1316 12.393 74.2298 13.1342C77.4198 15.3042 82.6398 18.3542 83.1598 18.3542C83.2659 18.3613 83.3708 18.3297 83.4554 18.2654C83.5399 18.201 83.5983 18.1083 83.6198 18.0042C83.6198 17.5842 78.9598 12.2942 74.7898 8.00423C73.7135 7.00378 72.7933 5.84759 72.0598 4.57423C72.0598 3.83423 73.2098 3.83423 74.4398 4.57423C76.1898 5.69423 84.8398 12.2842 85.3298 12.8442C85.8198 13.4042 86.7698 13.6442 86.7698 13.1542C86.7698 12.2842 79.3098 6.01423 76.2998 4.33423C74.4398 3.28423 73.8098 2.44423 74.4098 1.84423C75.0098 1.24423 84.1798 6.15423 87.4098 9.05423C88.7398 10.2542 89.3398 11.6842 88.4998 11.6842C88.4093 11.6911 88.3242 11.7302 88.26 11.7944C88.1958 11.8586 88.1567 11.9437 88.1498 12.0342C88.1498 12.2442 88.7398 12.3842 89.5198 12.3842C90.1594 12.3237 90.7976 12.5137 91.2998 12.9142C92.1098 13.8542 92.4198 12.9142 91.9698 11.1242C91.4849 9.48092 90.8936 7.87086 90.1998 6.30423C88.7998 3.01423 88.5898 1.88423 89.3298 1.88423C90.0698 1.88423 90.8998 2.73423 92.8998 6.09423C95.2862 9.91668 97.0925 14.0719 98.2598 18.4242C99.0998 21.8142 99.2598 26.4242 98.7098 28.2642C98.5338 28.685 98.4681 29.1436 98.5188 29.5969C98.5696 30.0501 98.7351 30.4829 98.9998 30.8542C99.9998 32.8542 102.36 38.9842 102.18 39.1242C102 39.2642 100.18 39.8242 97.9098 40.4842C94.9998 41.3242 93.6698 41.6042 93.4598 41.3242ZM20.2198 26.5142C15.8098 12.6742 16.3398 10.4042 21.5498 20.6242C23.4498 24.3042 24.5498 26.1242 24.8498 25.8442C24.9898 25.7442 24.8498 24.9342 24.4998 24.0542C23.8998 22.4842 23.8998 22.4842 24.9198 20.6942C27.2298 16.5242 29.3998 13.4442 30.0298 13.4442C30.6376 13.638 31.1511 14.0517 31.4698 14.6042C32.7016 16.1169 34.0099 17.5654 35.3898 18.9442C37.0998 20.7342 38.3898 22.3742 38.3898 22.5842C38.2985 22.7547 38.1734 22.9047 38.0221 23.0251C37.8708 23.1454 37.6964 23.2336 37.5098 23.2842C36.5998 23.6042 34.7398 22.6942 32.4298 20.7642C31.859 20.2516 31.2394 19.7961 30.5798 19.4042C30.1898 19.4042 29.3498 21.8142 29.5798 22.3442C29.8898 23.1142 30.4598 23.0442 30.6698 22.2042C30.7698 21.8142 30.9098 21.5042 31.0198 21.5042C31.5398 21.5042 35.3198 24.4142 35.0798 24.6242C34.8398 24.8342 25.7998 29.9742 22.2898 31.9042C21.4254 30.1795 20.7321 28.3742 20.2198 26.5142ZM38.1898 20.4542C37.5878 19.8681 37.0787 19.1937 36.6798 18.4542C36.6798 17.9642 38.6798 16.2742 39.3098 16.2742C39.9398 16.2742 41.3098 19.9242 41.1698 20.7642C41.01 21.1578 40.7255 21.488 40.3598 21.7042C39.7298 22.0942 39.5198 21.9942 38.1898 20.4542ZM34.2298 15.7542C33.8853 15.3255 33.6149 14.8422 33.4298 14.3242C34.1845 13.8231 35.0105 13.4388 35.8798 13.1842C37.1698 12.6542 39.5598 11.5342 41.1298 10.6942C45.6498 8.31423 45.5798 9.50423 40.9898 13.4642C38.1198 15.9142 36.4398 17.0042 35.5598 17.0042C35.3198 16.9542 34.7198 16.4242 34.2298 15.7542Z" fill="#96918A"/>
<path d="M54.4799 113.234C54.0199 112.984 53.8499 112.424 53.8099 111.234C53.8191 110.442 53.7249 109.652 53.5299 108.884C53.3199 108.394 53.5299 107.884 54.1599 107.064C54.8587 106.225 55.2157 105.154 55.1599 104.064C55.1698 103.042 55.3454 102.029 55.6799 101.064L56.2099 99.874L57.4999 101.874C58.5211 103.661 60.0976 105.065 61.9899 105.874C63.5999 106.614 63.7399 107.034 62.3399 107.034C60.7599 107.034 57.7499 107.804 57.9599 108.154C59.2548 108.377 60.5753 108.411 61.8799 108.254C64.8799 108.114 65.4499 108.154 64.7499 108.464C59.6399 110.814 57.4299 111.964 56.5899 112.774C55.4599 113.724 55.3499 113.754 54.4799 113.234ZM79.4099 110.984C78.0783 110.382 76.7126 109.857 75.3199 109.414C73.2499 108.714 72.0599 108.114 72.0599 107.804C72.0599 107.494 72.0599 107.314 72.1599 107.314C72.2599 107.314 74.0199 107.804 76.2299 108.364C77.582 108.8 78.9764 109.092 80.3899 109.234C80.7399 108.884 80.0799 107.974 79.1699 107.624C78.1162 107.291 77.0401 107.034 75.9499 106.854L73.6999 106.504L75.6999 105.504C77.003 104.863 78.1343 103.92 78.9999 102.754C79.4359 102.11 79.9649 101.533 80.5699 101.044C81.0736 101.775 81.4646 102.577 81.7299 103.424C82.4999 105.424 82.5699 106.014 82.2599 106.644C81.9811 107.307 81.9079 108.039 82.0499 108.744C82.2199 109.834 82.1199 110.254 81.5499 110.814C80.6699 111.654 80.5699 111.654 79.4099 110.984ZM67.3999 107.764C66.7999 107.204 67.2999 106.964 69.0799 106.964C70.5499 106.964 71.0099 107.064 71.0099 107.484C71.0099 107.904 70.5899 108.014 69.3299 108.014C68.6762 108.067 68.0186 107.982 67.3999 107.764Z" fill="#BFBEBE"/>
<path d="M61.6901 104.504C60.457 103.871 59.4532 102.867 58.8201 101.634C56.9055 98.5308 54.3647 95.8607 51.3601 93.7943C49.8658 92.8631 48.5791 91.6343 47.5801 90.1843C46.7701 88.8943 46.2801 88.4343 45.6501 88.4343C44.3501 88.4343 43.1301 87.2143 41.8001 84.5143C41.29 83.5998 40.8681 82.6388 40.5401 81.6443C40.5401 80.9043 42.3901 79.4043 44.3901 78.4943C46.8401 77.3743 48.6601 77.0243 54.5501 76.4943C60.1201 76.0743 61.8701 75.6543 65.4001 73.8943L68.0001 72.6043L66.1001 74.3543C64.3901 75.8943 64.2801 76.1043 65.0001 76.1843C67.5201 76.1843 71.0601 73.9043 72.3501 71.3443L73.0001 70.0443L73.5601 71.0443C75.2501 74.3043 84.2801 80.2943 87.4701 80.2943C88.0014 80.3661 88.4939 80.6123 88.8701 80.9943C89.5401 81.6543 89.5401 81.7643 89.0501 82.7443C88.4501 83.9043 88.3801 84.4943 88.8301 84.4943C89.2801 84.4943 90.6201 82.2543 90.6201 81.3743C90.6201 80.8843 90.8301 80.6443 91.3201 80.6443C92.1601 80.6443 92.2001 81.2743 91.4601 83.0243C90.7201 84.7743 89.2901 86.2443 88.1001 86.2443C87.3301 86.2443 86.9401 86.5643 86.2101 87.7543C85.0994 89.7224 83.4095 91.3006 81.3701 92.2743C79.9401 93.0043 79.4501 93.3943 79.7601 93.6043C79.966 93.6907 80.1869 93.7352 80.4101 93.7352C80.6333 93.7352 80.8543 93.6907 81.0601 93.6043C82.1801 93.1843 82.2201 93.1843 82.2201 93.9543C82.2201 95.1143 79.7601 99.5243 78.2201 101.104C75.5901 103.764 70.7201 105.554 65.8901 105.554C64.4119 105.686 62.9322 105.317 61.6901 104.504ZM62.6001 100.584C63.3001 98.5843 65.4001 97.4343 68.2101 97.5843C69.0711 97.6525 69.9244 97.7963 70.7601 98.0143C71.7601 98.4643 71.4301 97.5143 70.2401 96.7843C68.8401 95.9443 67.3301 95.9043 64.6301 96.6443C62.1801 97.3443 61.2001 98.3943 61.2001 100.284C61.2001 102.544 61.9001 102.684 62.6001 100.584ZM62.0001 94.8743C63.1901 94.3843 63.4001 94.3843 64.3801 94.8743C64.9929 95.2113 65.6808 95.388 66.3801 95.388C67.0794 95.388 67.7674 95.2113 68.3801 94.8743C69.2987 94.5282 70.2688 94.3389 71.2501 94.3143C72.6101 94.3143 72.7501 94.3143 72.6501 93.5743C72.5801 93.1243 72.3301 92.8443 72.0201 92.9443C71.7101 93.0443 70.8601 93.1243 70.0901 93.2243C69.1804 93.3266 68.2807 93.5039 67.4001 93.7543C67.0083 93.9001 66.5883 93.9542 66.1723 93.9126C65.7563 93.871 65.3553 93.7348 65.0001 93.5143C63.4901 92.8143 62.9001 92.8143 61.6001 93.5143C61.1595 93.7836 60.6448 93.9061 60.1301 93.8643C59.5401 93.6543 58.3101 94.6043 58.6201 95.0543C58.9301 95.5043 60.6201 95.5143 62.0901 94.9143L62.0001 94.8743ZM68.5201 91.0643C69.0876 90.2317 69.7598 89.4755 70.5201 88.8143C70.9701 88.5343 71.0101 88.4643 70.5201 88.0843C69.8501 87.5243 68.9801 87.9743 67.7501 89.4443C66.7501 90.5343 65.6501 90.8143 65.1601 90.0743C64.9326 89.0643 64.8385 88.0288 64.8801 86.9943C64.9267 85.6686 64.6986 84.3476 64.2101 83.1143C63.5801 81.8443 63.5801 81.8443 64.4601 80.9043C65.3401 79.9643 66.0001 78.1843 65.5401 77.5043C65.4001 77.2643 64.8401 77.6443 64.0401 78.6243L62.7401 80.0943L58.5401 79.7143C56.2601 79.4643 53.8101 79.2543 53.1101 79.2243C52.4347 79.228 51.7707 79.3988 51.1774 79.7216C50.5841 80.0445 50.08 80.5092 49.7101 81.0743C49.4001 81.5643 49.5701 81.6043 51.1501 81.3243C52.2764 81.1629 53.4182 81.1394 54.5501 81.2543C56.9369 81.4933 59.31 81.8538 61.6601 82.3343C63.2301 82.7543 63.9301 87.7343 62.6001 88.9243C61.8001 89.6543 61.6901 90.5043 62.3901 90.5043C63.0906 90.7726 63.725 91.1887 64.2501 91.7243C66.1401 93.4443 66.8401 93.3343 68.5601 91.0643H68.5201ZM45.2001 85.3143C44.9578 84.8096 44.6873 84.3188 44.3901 83.8443C44.0523 83.3383 43.7483 82.8105 43.4801 82.2643C42.9501 81.3243 42.1501 81.3943 42.0101 82.3343C41.9401 82.8943 42.3601 83.6043 43.4101 84.6543C44.9201 86.1843 45.5801 86.4343 45.2001 85.3143ZM81.4101 84.0843C83.8301 81.9743 83.9301 81.3143 81.5901 82.7843C80.4467 83.3965 79.167 83.7095 77.8701 83.6943C75.6001 83.8343 75.2501 83.7643 74.3701 83.0243L73.3701 82.1843H75.7601C77.2534 82.1667 78.7372 81.9447 80.1701 81.5243C83.1701 80.5243 83.1101 80.1243 79.9901 80.4043C77.2601 80.6443 71.2701 80.0843 70.1501 79.4943C69.7399 79.165 69.4599 78.7008 69.3601 78.1843C69.2699 77.6548 69.0423 77.1583 68.7001 76.7443C68.2801 76.4343 68.2101 76.6043 68.2101 77.9043C68.2101 79.7543 69.1501 80.9843 71.1501 81.8243C71.9501 82.1743 72.4101 82.5943 72.4101 83.0143C72.4101 83.6843 72.9301 84.0143 75.5601 84.9443C78.1901 85.8743 79.5201 85.6943 81.4101 84.0843ZM57.6301 85.0843C58.4174 84.7514 59.239 84.5066 60.0801 84.3543C60.8901 84.2143 61.5501 83.9643 61.5501 83.7943C61.5501 83.3743 61.7301 83.4043 56.4701 83.3343C51.9201 83.2643 50.1001 83.5143 50.5201 84.1743C50.9819 84.455 51.5224 84.5778 52.0601 84.5243C52.7611 84.5275 53.4496 84.71 54.0601 85.0543C54.5988 85.3743 55.212 85.5473 55.8384 85.5561C56.4649 85.5649 57.0827 85.4091 57.6301 85.1043V85.0843ZM34.0001 56.0343C32.4601 55.7943 28.3201 55.2343 24.8201 54.7743L18.4101 53.9343V53.0543C18.5793 50.601 18.8731 48.1578 19.2901 45.7343C19.2901 45.7343 21.7001 46.2643 24.5801 47.0343L35.0001 49.7343C38.0001 50.5043 40.1501 51.2343 40.1501 51.4843C39.9777 52.4088 39.7438 53.3209 39.4501 54.2143C38.6101 56.8443 38.8901 56.7743 34.0001 56.0343ZM23.0801 52.0343C24.3701 50.8443 23.6401 48.4343 21.9501 48.4343C20.2601 48.4343 19.3601 50.6043 20.6201 52.2143C20.9744 52.5094 21.4274 52.6591 21.8877 52.6332C22.3481 52.6072 22.7814 52.4074 23.1001 52.0743L23.0801 52.0343ZM90.8301 51.5543C90.5901 51.0943 89.7101 49.6643 88.9401 48.2943C87.6801 46.1643 87.6101 45.8043 88.1001 45.5643C89.2201 45.0743 110.34 39.0143 110.48 39.1543C110.551 40.3119 110.514 41.4736 110.37 42.6243C110.2 45.2443 110.02 46.0143 109.57 46.1943C108.06 46.8243 91.8801 52.3243 91.6401 52.3243C91.4001 52.3243 91.1101 51.9743 90.8301 51.5543ZM109.36 43.3543C109.522 43.1921 109.646 42.9957 109.723 42.7795C109.799 42.5634 109.826 42.3328 109.803 42.1047C109.779 41.8766 109.704 41.6568 109.584 41.4612C109.464 41.2656 109.302 41.0993 109.11 40.9743C107.82 40.1743 106.45 42.2043 107.43 43.4243C108 44.0543 108.66 44.0543 109.36 43.3543ZM29.3301 46.6843C27.8901 46.3043 26.1401 45.8443 25.4101 45.6843L24.1501 45.3643L24.6001 43.6843C24.8501 42.7743 25.2701 41.5543 25.4801 40.9943C25.8601 40.0443 25.7901 39.6943 24.6401 37.4143C24.1218 36.4585 23.6997 35.4536 23.3801 34.4143C23.3801 33.8143 36.0901 25.9343 38.5401 25.0243C39.345 24.7996 40.0808 24.3767 40.6801 23.7943C40.7801 23.4843 42.5001 22.5043 44.4601 21.5543C46.0122 20.8408 47.5274 20.0498 49.0001 19.1843C49.9101 18.5943 50.0001 18.5943 50.5801 19.1843C51.3501 19.9243 51.2401 20.0943 47.8801 24.2643C46.3978 26.1819 45.0607 28.2075 43.8801 30.3243C41.8201 34.1443 40.0701 36.2043 37.9701 37.3243C36.7001 37.9943 36.3501 38.3243 36.1801 39.3943C36.0205 40.132 35.7472 40.8405 35.3701 41.4943C34.8444 42.5648 34.4128 43.679 34.0801 44.8243C33.1801 47.6643 33.1501 47.6643 29.3301 46.6843ZM92.9301 39.9943C92.6201 39.1543 92.1601 37.8543 91.9301 37.0843C91.7001 36.3143 91.1901 35.6543 90.7401 35.5843C90.4543 35.4622 90.1956 35.2843 89.9793 35.0611C89.763 34.8379 89.5933 34.5738 89.4801 34.2843C88.9501 33.2043 88.7001 33.0643 86.2501 32.5343C84.0544 32.02 81.9903 31.0527 80.1901 29.6943C77.3901 27.8743 76.3101 27.3843 74.1901 26.9343C72.7501 26.6143 71.2801 26.3043 70.9701 26.1943C70.0601 25.9143 70.2001 25.0443 71.2101 24.6543C74.2118 24.0071 77.2807 23.7251 80.3501 23.8143C81.2601 23.9843 81.9001 23.8143 83.4401 22.8643C84.1832 22.4878 84.859 21.9912 85.4401 21.3943C85.4401 20.9743 83.0901 21.2943 81.6901 21.8843L80.5701 22.3443L78.3301 19.8943C76.5959 18.0727 74.7702 16.3405 72.8601 14.7043C71.6564 13.7831 70.5862 12.6994 69.6801 11.4843C69.6801 10.6443 70.8301 10.9643 72.8301 12.2943C73.8301 12.9943 76.5401 14.6343 78.7501 15.9643C84.4201 19.3343 84.9801 19.1943 81.5501 15.1943C80.3901 13.8343 77.7701 10.9943 75.7701 8.89431C72.0601 5.00431 71.4601 3.99431 72.9301 3.99431C73.6701 3.99431 85.0201 12.1143 85.5801 13.0643C85.8901 13.5543 86.8401 13.5543 86.8401 13.0643C86.8401 12.1943 79.5501 6.06431 76.2301 4.17431C74.4401 3.17431 73.9101 2.38431 74.5101 1.78431C75.1101 1.18431 85.5401 7.00431 88.0001 9.56431C88.8801 10.5043 89.0001 10.7543 88.6001 11.3443C88.0001 12.3443 88.0401 12.3943 89.3401 12.3943C90.0186 12.4062 90.6816 12.5996 91.2601 12.9543C91.7201 13.2743 92.1701 13.4443 92.2601 13.3443C92.6101 12.9543 91.6301 9.34431 90.2601 6.19431C88.7501 2.73431 88.5801 1.88431 89.3201 1.88431C90.0601 1.88431 90.8201 2.73431 92.9201 6.26431C95.2796 9.97027 97.0538 14.0178 98.1801 18.2643C99.0501 21.6943 99.0901 22.8143 98.6301 29.2643C99.0123 31.0654 99.5995 32.8168 100.38 34.4843C101.086 35.943 101.603 37.4853 101.92 39.0743C99.3474 40.079 96.6991 40.8782 94.0001 41.4643C93.7001 41.4643 93.2501 40.8343 92.9301 39.9943ZM21.8701 31.4143C21.5201 30.8543 18.1201 19.4743 17.6001 17.1643C16.9301 14.3543 17.2801 13.5143 18.4401 15.1643C18.8201 15.7243 20.2901 18.3243 21.6601 20.8743C23.0301 23.4243 24.2901 25.7143 24.4601 25.8743C25.0601 26.5443 25.1601 25.7743 24.6401 24.5143C24.3609 23.912 24.1722 23.2718 24.0801 22.6143C25.6491 19.492 27.4369 16.4845 29.4301 13.6143C29.8901 13.1943 31.0801 13.9943 31.9901 15.3643C33.1225 16.8558 34.3768 18.2506 35.7401 19.5343C37.2401 21.0043 38.4401 22.4343 38.3701 22.6843C37.9101 24.0443 34.9001 23.0343 32.0601 20.5143C30.3801 19.0743 30.3801 19.0743 30.0601 19.8843C29.4301 21.5943 29.3601 22.0843 29.6401 22.5743C29.9201 23.0643 30.7301 22.7843 30.7301 22.0543C30.7301 21.7743 30.8001 21.5643 30.9101 21.5643C32.3414 22.3921 33.682 23.3674 34.9101 24.4743C34.9801 24.7843 22.9101 31.7243 22.3301 31.7243C22.2329 31.718 22.139 31.686 22.0582 31.6315C21.9774 31.5771 21.9125 31.5021 21.8701 31.4143ZM38.1201 20.2443C37.5611 19.6639 37.0773 19.0155 36.6801 18.3143C37.3988 17.4154 38.3255 16.7049 39.3801 16.2443C39.9801 16.2443 41.3801 20.4843 40.9901 21.1143C40.3601 22.1843 39.5901 21.8843 38.1201 20.2443ZM34.3001 15.7543C33.8501 15.0943 33.5701 14.3943 33.6701 14.2143C34.2371 13.8056 34.8648 13.4884 35.5301 13.2743C36.4401 12.9243 38.7201 11.8743 40.5301 10.9643C41.6875 10.3256 42.8793 9.75142 44.1001 9.24431C45.8901 9.24431 38.3601 16.1743 35.9101 16.7743C35.2801 16.9143 35.0001 16.7343 34.3001 15.7543Z" fill="#BFBEBE"/>
<path d="M54.6898 113.335C54.3091 112.803 54.0998 112.168 54.0898 111.515C53.9991 110.667 53.8588 109.826 53.6698 108.995C53.4598 108.225 53.6698 107.805 54.3698 106.895C54.6754 106.63 54.9051 106.288 55.0351 105.905C55.1652 105.522 55.1909 105.111 55.1098 104.715C55.0216 103.767 55.141 102.812 55.4598 101.915L56.0498 100.165L56.7898 101.165C58.8498 103.855 60.0098 104.945 61.5898 105.755L63.3398 106.595L62.1798 106.835C56.5098 107.925 56.3698 108.555 61.8298 108.275C65.2598 108.065 65.4698 108.095 64.3498 108.555C60.8898 109.915 57.7298 111.555 56.6798 112.555C55.4598 113.745 55.2798 113.815 54.6798 113.395L54.6898 113.335ZM79.0598 110.745C77.7364 110.15 76.381 109.629 74.9998 109.185C73.3798 108.665 72.0898 108.035 72.0898 107.825C72.0898 107.335 74.9998 107.895 78.4998 109.085C80.4198 109.715 80.4998 109.715 80.4998 109.085C80.4998 108.085 79.5898 107.585 76.7198 106.955L74.0198 106.355L75.7098 105.555C76.9476 104.858 78.0597 103.959 78.9998 102.895L80.6098 101.045L81.3798 102.965C82.0449 104.447 82.2671 106.089 82.0198 107.695C82.0184 108.743 81.9112 109.788 81.6998 110.815C81.3398 111.405 80.2198 111.375 79.0598 110.745ZM67.7498 107.805C67.1598 107.175 67.6098 106.925 69.1898 107.035C70.0998 107.105 70.8298 107.315 70.8298 107.485C70.8298 107.905 68.1398 108.185 67.7498 107.805ZM62.4298 104.825C60.8187 104.094 59.506 102.834 58.7098 101.255C56.7491 98.3852 54.3223 95.8638 51.5298 93.7948C49.7333 92.681 48.2419 91.138 47.1898 89.3048C46.9798 88.7148 46.5298 88.4348 45.4798 88.2548C43.9298 88.0148 43.3698 87.4148 41.7998 84.3048C40.5398 81.8148 40.6098 80.9348 42.1098 79.7848C44.8375 78.1122 47.9206 77.105 51.1098 76.8448C56.8498 76.8448 62.3498 75.7248 65.7098 73.8448L67.2898 72.9648L65.5698 74.5448C64.5698 75.3848 63.8898 76.1548 63.9998 76.2648C64.6352 76.2994 65.2723 76.2387 65.8898 76.0848C68.318 75.6141 70.4669 74.215 71.8798 72.1848L72.9998 70.6048L74.2998 72.2848C76.6498 75.3348 83.6498 79.8148 86.7698 80.2848C88.7698 80.5648 89.3998 81.4048 88.8698 83.0248C88.0598 85.5048 89.4298 84.8748 90.5198 82.2848C91.1098 80.8148 92.0198 80.1848 92.0198 81.2848C92.0198 83.1448 89.6098 86.3948 88.2398 86.3948C86.8698 86.3948 86.7298 86.6448 85.6098 88.5648C84.4313 90.4531 82.679 91.9145 80.6098 92.7348C79.9798 92.9448 79.4498 93.2648 79.4498 93.4348C79.4498 93.9948 80.3298 94.1348 81.3098 93.7848C82.5698 93.2948 82.5398 93.7148 81.0298 96.7848C78.7498 101.515 75.5998 103.925 70.0998 105.085C66.6298 105.825 64.0998 105.755 62.4698 104.875L62.4298 104.825ZM62.5998 100.625C62.9498 99.3948 63.2298 99.0848 64.8098 98.3448C65.5799 97.9089 66.4345 97.6431 67.316 97.5655C68.1974 97.4879 69.0853 97.6002 69.9198 97.8948C71.3598 98.4148 71.7098 98.0348 70.7298 97.0448C70.0598 96.4148 69.5398 96.2748 67.5798 96.2748C64.9098 96.2748 62.0798 97.1848 61.5198 98.2748C61.0731 99.488 61.024 100.812 61.3798 102.055C61.7598 102.655 62.2198 102.125 62.5998 100.625ZM67.9998 95.0548C69.0836 94.673 70.2136 94.4376 71.3598 94.3548C72.8698 94.3548 73.3598 93.8248 72.6598 93.0948C72.3098 92.7048 71.8898 92.6748 70.9798 92.9548C70.2145 93.1708 69.4248 93.2884 68.6298 93.3048C68.1596 93.2673 67.6906 93.3907 67.2998 93.6548C66.9898 94.1748 65.7898 94.0748 64.8498 93.4448C63.9098 92.8148 63.8498 92.8848 60.5398 93.5848C58.7198 93.9648 58.0498 94.5248 58.6098 95.0848C58.9998 95.4748 60.2298 95.4048 62.7798 94.8748C63.4951 94.715 64.2444 94.8292 64.8798 95.1948C65.2227 95.3637 65.5565 95.5506 65.8798 95.7548L67.9498 95.0548H67.9998ZM67.8998 91.8648C68.3498 91.2748 69.2298 90.2148 69.8198 89.5548C70.4098 88.8948 70.8698 88.1848 70.8198 88.0148C70.4298 87.3848 69.5898 87.7348 68.0898 89.0948C66.3998 90.6448 66.0898 90.7448 65.3198 89.9748C64.9298 89.5848 64.8298 88.9748 64.9698 87.4148C65.1681 86.1499 64.9726 84.8547 64.4098 83.7048L63.6698 82.0248L64.5498 81.0248C65.4198 80.0248 66.0498 77.7348 65.5498 77.2848C65.4398 77.1448 64.7098 77.7348 64.0098 78.5748L62.6798 80.1148L58.8598 79.6948C56.7598 79.4848 54.3398 79.2048 53.4698 79.1048C52.9524 78.9784 52.4103 78.9964 51.9025 79.1569C51.3946 79.3173 50.9406 79.6141 50.5898 80.0148C50.0786 80.3847 49.6296 80.8336 49.2598 81.3448C50.1429 81.5613 51.059 81.6088 51.9598 81.4848C54.7998 81.3048 60.5398 81.9748 61.6298 82.4848C62.4998 82.9448 63.2698 84.8648 63.2698 86.6548C63.3152 87.5916 62.9881 88.5084 62.3598 89.2048C61.4898 90.2048 61.4498 90.2948 62.0798 90.4348C62.8146 90.7529 63.4907 91.1924 64.0798 91.7348C65.7498 93.2648 66.8398 93.3048 67.9298 91.8648H67.8998ZM45.4398 85.8048C45.3172 85.3025 45.0773 84.8364 44.7398 84.4448C44.2654 83.84 43.8875 83.1653 43.6198 82.4448C43.1998 81.1848 42.1798 81.1848 41.9998 82.3748C41.9298 82.9348 42.3498 83.6348 43.3998 84.6848C44.9998 86.3348 45.4398 86.5748 45.4398 85.8048ZM58.7498 84.6848C59.0298 84.6848 59.8698 84.4748 60.6098 84.3748C61.6098 84.1948 61.8698 84.0548 61.6098 83.7048C61.1298 83.1848 51.9998 83.0448 50.9998 83.5648C49.9998 84.0848 50.2998 84.5648 51.6998 84.5648C52.6274 84.6186 53.535 84.8565 54.3698 85.2648C55.6298 85.8948 55.7998 85.8948 56.9898 85.4048C57.5624 85.1319 58.15 84.8915 58.7498 84.6848ZM81.7498 84.3048C83.8798 82.4748 83.7498 81.9848 81.4298 83.1848C79.3598 84.1848 75.8298 84.4748 74.6398 83.7048C73.4498 82.9348 73.5498 82.6148 75.5098 82.7048C77.2298 82.8448 82.5098 81.5448 82.5098 81.0248C80.6944 80.7064 78.8524 80.5658 77.0098 80.6048C74.882 80.661 72.7548 80.4731 70.6698 80.0448C70.0768 79.587 69.5976 78.9983 69.2698 78.3248C68.5298 76.7548 67.9398 76.8248 68.0398 78.4648C68.0635 79.251 68.3231 80.0119 68.785 80.6486C69.247 81.2853 69.8897 81.7682 70.6298 82.0348C70.9993 82.156 71.3395 82.3529 71.6288 82.6128C71.918 82.8728 72.15 83.1902 72.3098 83.5448C72.5598 84.2448 73.0798 84.5948 74.6998 85.1548C75.8564 85.5413 77.0548 85.7897 78.2698 85.8948C79.6898 85.9448 80.0798 85.7348 81.7998 84.3048H81.7498ZM27.6798 55.1848C22.5998 54.4448 18.3998 53.7848 18.2598 53.6748C18.2101 52.2946 18.2804 50.9128 18.4698 49.5448C18.8598 46.2548 18.9998 45.6848 19.4698 45.8248C19.7798 45.9348 24.3698 47.1248 29.6598 48.5248C34.9498 49.9248 39.4298 51.1548 39.5698 51.2948C39.7098 51.4348 39.5698 52.6548 39.1198 54.0648C38.4498 56.1648 38.2398 56.5448 37.6098 56.5148C37.2098 56.4548 32.7298 55.8648 27.6798 55.1848ZM23.3798 52.0248C24.2898 50.2448 23.0998 47.8648 21.5198 48.3148C21.1553 48.4128 20.8218 48.6023 20.5509 48.8651C20.2799 49.1279 20.0805 49.4555 19.9714 49.8168C19.8623 50.1782 19.8471 50.5614 19.9273 50.9302C20.0075 51.299 20.1805 51.6413 20.4298 51.9248C21.1298 52.8848 22.8498 52.9548 23.3798 52.0048V52.0248ZM89.5698 49.1848C88.8758 48.1521 88.321 47.0325 87.9198 45.8548C88.1298 45.6148 110.37 39.0648 110.48 39.2048C110.504 41.4432 110.255 43.6763 109.74 45.8548C109.43 46.2448 92.3698 52.3748 91.5998 52.3748C90.8268 51.3759 90.1473 50.3081 89.5698 49.1848ZM109.5 43.4748C109.778 43.0274 109.888 42.4957 109.81 41.9748C109.67 40.6748 108.13 40.3948 107.33 41.5548C106.21 43.0748 108.31 44.8948 109.5 43.4248V43.4748ZM28.5198 46.3748C27.1663 46.0612 25.831 45.674 24.5198 45.2148C24.3098 44.9648 24.7998 42.9748 25.5198 41.2148C25.9398 40.2148 25.8698 39.8848 24.6498 37.2848C24.1257 36.2869 23.758 35.2143 23.5598 34.1048C23.9798 33.4348 37.3198 25.4548 38.6898 25.0348C39.4196 24.8689 40.0883 24.5017 40.6198 23.9748C41.9531 22.9417 43.3989 22.0628 44.9298 21.3548C47.0498 20.2748 48.9998 19.1848 49.3598 18.9848C49.4301 18.9058 49.5164 18.8426 49.6129 18.7993C49.7094 18.756 49.814 18.7337 49.9198 18.7337C50.0255 18.7337 50.1301 18.756 50.2266 18.7993C50.3231 18.8426 50.4094 18.9058 50.4798 18.9848C51.3598 19.7248 51.1498 20.2848 49.3298 22.3148C46.8642 25.1753 44.7399 28.3131 42.9998 31.6648C42.147 33.5377 40.8027 35.1447 39.1098 36.3148C37.8898 37.2248 36.6598 38.1348 36.4498 38.3148C36.1346 38.6996 35.9742 39.188 35.9998 39.6848C36.0094 40.2094 35.8241 40.7189 35.4798 41.1148C34.8431 42.1561 34.3709 43.2894 34.0798 44.4748C33.5898 46.1248 32.9898 47.4748 32.7498 47.3848C32.5098 47.2948 30.6098 46.9348 28.5398 46.3848L28.5198 46.3748ZM92.5098 38.6248C91.7798 36.5648 91.2898 35.6848 90.7298 35.4748C90.1686 35.1858 89.7057 34.7369 89.3998 34.1848C88.8698 33.1348 88.3998 32.8948 84.7398 32.0848C83.087 31.4941 81.5278 30.669 80.1098 29.6348C78.2631 28.1551 76.0715 27.1677 73.7398 26.7648C72.6055 26.5454 71.4838 26.2649 70.3798 25.9248C70.2698 25.8548 70.3098 25.5748 70.3798 25.2948C70.6598 24.5948 71.9198 24.3448 77.2798 24.0948C81.8698 23.8848 82.0498 23.8548 83.8298 22.6948C84.8298 22.0348 85.6198 21.3348 85.4798 21.1548C85.2298 20.7348 83.4798 21.0548 82.0798 21.7848C80.6798 22.5148 80.0798 22.1748 78.8598 20.4548C77.259 18.6727 75.5383 17.0022 73.7098 15.4548C69.9998 12.1848 68.9998 10.9948 69.9998 10.9948C70.5898 10.9948 72.1698 11.9048 75.8798 14.2848C80.9598 17.5848 83.1998 18.7748 83.4798 18.3548C83.6198 18.1448 83.4798 17.5448 83.0998 17.0248C82.2198 15.7548 76.2298 9.18477 73.9998 6.93477C71.9998 5.07477 71.7598 4.44477 72.5998 4.13477C73.4398 3.82477 74.1698 4.37477 80.4398 9.13477C83.5998 11.4848 86.3298 13.4448 86.4998 13.4448C88.2898 13.4448 82.0198 7.66477 76.6598 4.44477C74.1898 2.97477 73.4898 1.88477 74.9298 1.88477C75.9298 1.88477 81.7298 5.00477 85.1598 7.38477C88.0998 9.45477 89.2198 10.7848 88.5498 11.4548C87.8798 12.1248 88.1298 12.3948 89.3598 12.3948C89.9417 12.3794 90.5108 12.5668 90.9698 12.9248C91.2254 13.2182 91.5827 13.404 91.9698 13.4448C92.8498 13.4448 92.2198 10.6148 90.4698 6.51477C89.8357 5.17929 89.3009 3.79888 88.8698 2.38477C88.8698 1.64477 89.7098 1.78477 90.5198 2.69477C92.658 5.70696 94.519 8.9067 96.0798 12.2548C98.4998 17.5448 99.6598 24.7648 98.6398 28.1248C98.2898 29.2748 98.3598 29.6948 99.3798 32.0448C101.58 37.1948 102.18 39.0448 101.72 39.1948C100.53 39.6448 94.2298 41.4648 93.9098 41.4648C93.5898 41.4648 92.9998 40.1848 92.5098 38.6248ZM20.2598 26.1848C15.8798 12.2748 16.2598 10.8048 21.5498 20.8248C22.7498 23.0248 23.9398 25.1648 24.2198 25.5548C25.0598 26.6748 25.2198 25.9348 24.5698 24.0748L23.9998 22.3048L26.4898 18.3048C29.8498 12.9048 29.8498 12.9048 31.4298 14.8648C32.1298 15.7448 33.9798 17.7748 35.5898 19.3848C36.6418 20.3721 37.6055 21.4495 38.4698 22.6048C38.4698 22.7848 38.0498 23.0248 37.5598 23.1348C36.3598 23.4448 34.7898 22.6748 32.5598 20.6448C31.5598 19.7748 30.5598 19.1448 30.4198 19.2448C29.778 20.166 29.4581 21.2732 29.5098 22.3948C29.7898 23.1648 30.6998 23.0248 30.8398 22.2248C30.9498 21.5948 31.1598 21.6648 33.1498 22.9948C33.8925 23.4358 34.5952 23.941 35.2498 24.5048C34.9698 24.7448 23.0998 31.3248 22.6098 31.5048C22.1198 31.6848 21.7298 30.7448 20.2598 26.1848ZM38.0498 20.0648L36.5398 18.2848L37.7698 17.2848C38.233 16.8456 38.7808 16.5053 39.3798 16.2848C39.5898 16.2848 40.1198 17.3448 40.5698 18.6348C41.3098 20.8748 41.3098 20.9848 40.6798 21.4348C39.7698 22.0648 39.6998 22.0248 38.0498 20.0648ZM34.3698 15.7248C33.8498 14.9848 33.5698 14.3548 33.7398 14.1848C34.6377 13.7198 35.5627 13.3091 36.5098 12.9548C38.2032 12.2776 39.853 11.4961 41.4498 10.6148C45.5498 8.36477 45.2698 9.66477 40.7798 13.3748C38.2998 15.4748 36.1198 16.9548 35.4898 16.9548C35.0647 16.595 34.6883 16.1815 34.3698 15.7248Z" fill="#F4E4CC"/>
<path d="M54.8301 113.334C54.3401 113.234 54.2001 112.844 54.2001 111.514C54.2001 110.514 54.0601 109.694 53.8501 109.584C53.2201 109.204 53.5001 107.804 54.3701 106.964C55.0701 106.294 55.2101 105.844 55.1801 104.364C55.1737 103.344 55.3393 102.33 55.6701 101.364L56.1601 100.134L56.8601 101.134C58.0237 103.015 59.6218 104.589 61.5201 105.724L63.1301 106.534L61.0301 106.954C58.0301 107.544 57.6601 107.654 57.9101 108.074C58.0501 108.284 59.4101 108.354 61.6901 108.214C64.4601 108.034 65.0501 108.074 64.3501 108.384C59.4801 110.594 57.6601 111.574 56.6101 112.454C56.1279 112.931 55.5026 113.237 54.8301 113.324V113.334ZM79.3401 110.884C78.0169 110.209 76.6344 109.656 75.2101 109.234C71.9901 108.234 70.9701 107.414 73.3901 107.804C74.8194 108.066 76.2345 108.4 77.6301 108.804C79.2001 109.264 80.5701 109.544 80.6301 109.364C81.2601 108.364 78.8801 107.054 75.8001 106.704L74.0401 106.494L75.6201 105.694C76.7963 105.008 77.873 104.163 78.8201 103.184C79.3434 102.532 79.9295 101.932 80.5701 101.394C80.9565 101.97 81.2627 102.596 81.4801 103.254C82.1101 104.824 82.1801 105.464 81.9401 107.844C81.7301 110.044 81.5501 110.674 80.9401 111.064C80.3301 111.454 80.1501 111.404 79.3401 110.884ZM67.7201 107.694C67.6101 107.524 68.1701 107.314 69.0101 107.244C70.6201 107.064 71.1101 107.174 70.8301 107.694C70.5501 108.214 68.0001 108.114 67.7201 107.694ZM27.6801 55.1842C22.6801 54.4442 18.4001 53.7842 18.2601 53.6742C18.2104 52.2941 18.2807 50.9122 18.4701 49.5442C18.8601 46.2542 19.0001 45.6842 19.4701 45.8242C19.7801 45.9342 24.3701 47.1642 29.6601 48.5242C34.9501 49.8842 39.4301 51.1542 39.5701 51.2942C39.7101 51.4342 39.5701 52.6542 39.1201 54.0642C38.4501 56.1642 38.2401 56.5442 37.6101 56.5142C37.2101 56.4542 32.7301 55.8642 27.6801 55.1842ZM23.3801 52.0242C23.7019 51.506 23.8395 50.8943 23.7705 50.2882C23.7015 49.6821 23.4301 49.1169 23.0001 48.6842C21.9401 47.9442 21.4501 47.9842 20.6101 48.8242C20.2011 49.2245 19.9593 49.765 19.9333 50.3366C19.9073 50.9083 20.0991 51.4685 20.4701 51.9042C21.1301 52.8842 22.8501 52.9542 23.3801 52.0042V52.0242ZM89.5701 49.1842C88.9175 48.128 88.3651 47.0132 87.9201 45.8542C87.9901 45.7542 92.4101 44.4242 97.6601 42.8542L108.94 39.5642L110.58 39.0742L110.37 42.0742C110.311 43.2663 110.147 44.4509 109.88 45.6142C109.67 45.9942 92.5101 52.3042 91.6401 52.3042C90.8502 51.3341 90.1569 50.2891 89.5701 49.1842ZM109.5 43.4742C109.778 43.0268 109.888 42.4952 109.81 41.9742C109.67 40.6442 108.1 40.3942 107.29 41.5842C106.59 42.5842 106.59 42.7442 107.29 43.4042C107.427 43.5613 107.597 43.6876 107.786 43.7747C107.976 43.8618 108.182 43.9078 108.391 43.9097C108.599 43.9116 108.806 43.8693 108.997 43.7856C109.188 43.702 109.36 43.5788 109.5 43.4242V43.4742Z" fill="white"/>
</svg>
