<svg width="129" height="129" viewBox="0 0 129 129" fill="none" xmlns="http://www.w3.org/2000/svg">
<path d="M56.813 127.717C54.91 127.491 52.914 127.198 52.379 127.065C51.5917 126.879 50.7998 126.712 50.004 126.565C49.0952 126.389 48.1935 126.178 47.301 125.933C43.156 124.744 42.859 124.647 39.734 123.369C36.859 122.198 31.562 119.46 29.75 118.214C29.254 117.869 28.79 117.592 28.719 117.592C28.649 117.592 27.489 116.777 26.141 115.78C17.571 109.437 11.137 101.737 6.488 92.2525C5.688 90.6235 5.035 89.1785 5.035 89.0425C5.035 88.9085 4.891 88.5375 4.715 88.2255C4.352 87.5765 3.835 86.1785 3.418 84.7335C3.23871 84.1195 3.03014 83.5145 2.793 82.9205C2.598 82.4605 2.441 81.9005 2.441 81.6745C2.441 81.4475 2.246 80.7095 2.008 80.0295C1.77 79.3545 1.578 78.5575 1.578 78.2595C1.578 77.9635 1.391 76.9395 1.16 75.9835C0.598 73.6235 0 67.5105 0 64.0845C0 60.6625 0.598 54.5495 1.16 52.1905C1.39 51.2335 1.578 50.1905 1.578 49.8705C1.578 49.5495 1.723 48.9205 1.898 48.4705C2.078 48.0225 2.308 47.2175 2.414 46.6825C2.524 46.1475 2.774 45.2255 2.977 44.6275L3.567 42.9015C4 41.6085 4.402 40.5145 4.594 40.0885C4.704 39.8505 5.133 38.8785 5.551 37.9285C6.227 36.3935 7.676 33.4985 8.523 31.9835C8.832 31.4285 8.949 31.2445 10.621 28.6315C13.27 24.4835 17.797 19.3225 22.011 15.6435C23.496 14.3465 28.457 10.5805 28.68 10.5805C28.742 10.5805 29.21 10.2995 29.723 9.9555C31.07 9.0535 32.391 8.2875 34.113 7.4245C34.7311 7.11879 35.3433 6.80107 35.949 6.4715C36.234 6.3075 36.769 6.0615 39.516 4.8315C40.121 4.5615 40.773 4.3155 42.652 3.6585C43.066 3.5145 43.898 3.2095 44.492 2.9865C45.09 2.7645 45.793 2.5805 46.055 2.5805C46.313 2.5805 46.992 2.4005 47.563 2.1785C48.133 1.9555 49.168 1.7015 49.867 1.6155C50.563 1.5335 51.488 1.3385 51.922 1.1855C52.352 1.0375 53.532 0.8455 54.543 0.7605C55.8607 0.641452 57.1748 0.486394 58.484 0.2955C61.172 -0.0985 67.016 -0.0985 69.676 0.2955C70.9324 0.475794 72.1931 0.624175 73.457 0.7405C74.41 0.8195 75.625 1.0185 76.16 1.1825C76.695 1.3425 77.621 1.5425 78.215 1.6155C78.809 1.6945 79.809 1.9405 80.437 2.1665C81.067 2.3965 81.781 2.5805 82.027 2.5805C82.273 2.5805 82.781 2.7175 83.152 2.8895C83.527 3.0575 84.32 3.3385 84.918 3.5145C85.512 3.6945 86.531 4.0495 87.188 4.3115C87.84 4.5725 88.715 4.9165 89.133 5.0725C89.903 5.3625 95.593 8.2095 96.367 8.6945C102.648 12.6115 105.879 15.1705 110.223 19.6585C115.461 25.0725 118.938 30.2285 122.477 37.8185C122.727 38.3545 123.109 39.1475 123.328 39.5765C123.543 40.0105 123.723 40.5185 123.723 40.7065C123.723 40.8965 123.903 41.4665 124.125 41.9755C124.727 43.3585 125.242 44.9325 125.485 46.1355C125.605 46.7255 125.828 47.4555 125.98 47.7565C126.133 48.0565 126.312 48.8195 126.383 49.4445C126.453 50.0685 126.66 51.0925 126.836 51.7135C127.856 55.2445 128.363 65.6475 127.746 70.2485C127.563 71.6155 127.356 73.2685 127.286 73.9205C127.168 75.0375 126.578 77.9245 126.074 79.8655L125.554 81.9205C124.574 85.8775 122.152 91.5145 119.195 96.7295C118.023 98.7995 114.094 104.397 113.352 105.053C113.285 105.111 112.953 105.504 112.617 105.917C112.281 106.335 111.203 107.502 110.227 108.51C105.926 112.951 102.457 115.698 96.367 119.479C95.645 119.928 89.52 122.921 88.375 123.385C87.781 123.623 86.789 124.025 86.172 124.275C85.559 124.522 84.875 124.729 84.66 124.733C84.445 124.736 83.879 124.928 83.402 125.159C82.926 125.389 82.32 125.581 82.051 125.585C81.785 125.589 81.008 125.777 80.324 126.003C79.641 126.233 78.691 126.479 78.214 126.552C77.738 126.627 76.719 126.831 75.945 127.003C75.172 127.174 72.835 127.51 70.758 127.748C66.1248 128.289 61.4438 128.278 56.813 127.717ZM61.516 115.217C61.816 114.983 62.125 114.518 62.207 114.19C62.387 113.467 91.441 55.2205 91.988 54.4905C92.449 53.8735 92.492 52.8855 92.07 52.5375C91.848 52.3505 89.066 52.2915 81.64 52.3035C76.07 52.3155 71.387 52.3195 71.234 52.3155C71.008 52.3075 70.961 48.5855 70.984 32.6435C71 21.8265 70.949 12.8775 70.871 12.7535C70.793 12.6275 70.488 12.5265 70.191 12.5265C69.773 12.5265 69.578 12.7065 69.321 13.3345C68.836 14.5025 67.496 17.1545 60.973 29.8195C59.6181 32.4478 58.2664 35.0778 56.918 37.7095C55.762 39.9715 53.938 43.5225 52.871 45.5995C49.999 51.1827 47.133 56.7691 44.273 62.3585C39.34 71.9945 38.743 73.1435 38.531 73.3975C38.121 73.8935 37.898 75.0375 38.129 75.4675C38.339 75.8615 38.758 75.8775 49.172 75.8615C55.125 75.8545 60.035 75.8855 60.086 75.9315C60.223 76.0725 60.172 113.242 60.031 114.128C59.938 114.71 60 115.018 60.266 115.284C60.726 115.744 60.852 115.741 61.516 115.217Z" fill="#049688"/>
</svg>
