<svg width="129" height="128" viewBox="0 0 129 128" fill="none" xmlns="http://www.w3.org/2000/svg">
<path d="M75.5 0.299805C74.6 0.299805 73.7 0.499805 72.9 0.799805C74.6 1.8998 75.5 3.3998 76 5.0998C76 5.2998 76.1 5.4998 76.1 5.6998C76.1 5.8998 76.2 6.0998 76.2 6.2998C76.3 9.1998 75.4 9.5998 74.8 11.2998C73.8 13.4998 74.1 15.8998 75.3 17.7998C75.4 17.9998 75.5 18.2998 75.7 18.4998C74.4 10.0998 81.4 8.89981 82.7 6.2998C82.8 3.9998 80.9 2.4998 79.4 1.3998C77.9 0.499805 76.7 0.299805 75.5 0.299805ZM86 2.0998C85.9 2.8998 86 2.6998 85.9 3.0998C85.9 3.3998 85.9 3.6998 85.8 3.9998C85.7 4.2998 85.7 4.4998 85.6 4.7998C85.5 5.0998 85.4 5.2998 85.3 5.5998C85.2 5.7998 85.1 5.9998 85 6.2998C84.9 6.3998 84.8 6.5998 84.7 6.6998C84.6 6.7998 84.6 6.8998 84.5 6.9998C84.3 7.1998 84.2 7.4998 84 7.6998L83.4 8.2998C83.2 8.4998 83 8.6998 82.8 8.7998C82.1 9.2998 81.3 9.6998 80.6 10.1998C80.4 10.3998 80.1 10.4998 79.9 10.6998C79.7 10.8998 79.5 10.9998 79.3 11.1998L78.7 11.7998C78.5 11.9998 78.3 12.1998 78.2 12.4998C78 12.6998 77.9 12.9998 77.7 13.1998C77.6 13.4998 77.5 13.6998 77.3 13.9998C77.2 14.2998 77.1 14.4998 77 14.7998C76.9 15.0998 76.8 15.3998 76.8 15.5998C76.8 15.6998 76.8 15.8998 76.7 15.9998C76.7 16.0998 76.7 16.2998 76.6 16.3998V17.7998C76.6 18.0998 76.6 18.2998 76.7 18.5998C76.7 18.8998 76.8 19.0998 76.9 19.3998C77 19.6998 77.1 19.8998 77.2 20.1998C77.3 20.3998 77.4 20.4998 77.4 20.6998L69.8 17.7998C68.5 17.3998 67.3 17.0998 66 16.7998C65.3 16.5998 64.6 16.4998 63.9 16.2998C61.9 15.8998 59.9 15.5998 57.9 15.3998H57.7C55.7 15.1998 53.8 15.0998 51.8 15.0998C50.3 15.0998 48.9 15.1998 47.5 15.2998C45.5 15.3998 43.5 15.6998 41.5 15.9998L40 16.2998C39 16.4998 38 16.6998 37 16.9998C36.5 17.0998 36 17.2998 35.5 17.3998C35 17.5998 34.5 17.7998 34.1 17.9998C33.7 18.1998 33.4 18.2998 33 18.4998C32.9 18.4998 32.9 18.4998 32.8 18.5998C32.5 18.7998 32.2 18.8998 31.9 19.0998C31.8 19.0998 31.7 19.1998 31.7 19.1998C31.3 19.3998 31 19.5998 30.7 19.6998C30.5 19.7998 30.2 19.8998 30 19.9998C29.9 20.0998 29.8 20.0998 29.7 20.1998C29.4 20.3998 29.1 20.4998 28.8 20.6998C28.5 20.8998 28.2 20.9998 28 21.1998C27.8 21.3998 27.5 21.4998 27.3 21.6998C27.3 21.6998 27.2 21.6998 27.2 21.7998C27 21.8998 26.8 22.0998 26.6 22.2998L26.5 22.3998C26.3 22.4998 26.2 22.6998 26 22.7998C25.9 22.7998 25.9 22.8998 25.8 22.8998C25.6 22.9998 25.5 23.1998 25.3 23.2998C25.3 23.3998 25.2 23.3998 25.2 23.3998L24.6 23.9998L24.5 24.0998L23.9 24.6998C23.9 24.6998 23.9 24.7998 23.8 24.7998L23.3 25.2998C23.2 25.3998 23.1 25.3998 23.1 25.4998L22.5 26.0998C22.5 26.1998 22.4 26.1998 22.4 26.2998L21.6 27.0998L21.5 27.1998C21 27.7998 20.4 28.2998 19.8 28.7998C19.2 29.2998 18.6 29.7998 17.9 30.2998C17.2 30.7998 16.6 31.1998 15.9 31.5998C15.2 31.9998 14.5 32.2998 13.8 32.5998C13.1 32.8998 12.4 33.1998 11.7 33.3998C10.3 33.6998 8.9 34.2998 7.7 34.3998C7.7 33.8998 7.4 33.9998 7.1 33.9998C6.8 34.0998 6.5 34.0998 6.3 34.1998C6 34.2998 5.8 34.3998 5.5 34.4998C5.2 34.5998 5 34.6998 4.7 34.8998C4.5 35.0998 4.2 35.1998 4 35.3998C3.8 35.5998 3.5 35.7998 3.3 35.9998C3.1 36.1998 2.8 36.3998 2.6 36.5998C2.4 36.7998 2.2 36.9998 2 37.2998C1.8 37.5998 1.6 37.7998 1.5 38.0998C1.3 38.2998 1.2 38.5998 1 38.8998C0.9 39.1998 0.7 39.4998 0.6 39.7998L0.3 40.6998C0.2 40.9998 0.2 41.1998 0.1 41.4998V41.5998C0 41.8998 0 42.2998 0 42.4998C0.1 42.3998 0.1 42.5998 0.1 42.7998V43.1998C0.1 43.3998 0.2 43.5998 0.2 43.7998C0.3 43.9998 0.3 44.1998 0.4 44.3998C0.5 44.5998 0.6 44.7998 0.8 44.9998C0.9 45.1998 1.1 45.3998 1.2 45.5998C1.4 45.7998 1.6 45.9998 1.8 46.0998C2 46.2998 2.2 46.4998 2.4 46.5998C3.2 47.2998 3.4 47.4998 4.4 48.0998C4.6 48.1998 4.7 48.2998 4.9 48.3998H5V48.5998C5 48.8998 5.1 49.0998 5.2 49.3998C5.3 49.6998 5.4 49.9998 5.5 50.1998L5.8 50.7998C5.8 50.8998 5.9 50.8998 5.9 50.9998C6 51.2998 6.2 51.4998 6.3 51.6998C6.5 51.8998 6.6 52.1998 6.8 52.3998L7.4 52.9998L8 53.5998H8.1C8.3 53.7998 8.5 53.8998 8.7 54.0998C8.9 54.2998 9.2 54.3998 9.4 54.4998C9.6 54.5998 9.9 54.7998 10.2 54.8998C10.4 54.9998 10.6 55.0998 10.9 55.0998C10.9 55.0998 11 55.0998 11 55.1998C11.1 55.1998 11.3 55.2998 11.4 55.2998C11.3 57.0998 11.3 58.7998 11.5 59.3998C11.8 60.0998 13.3 57.9998 14.7 55.6998C14.5 57.9998 14.4 60.6998 14.7 61.4998C15.1 62.2998 17 59.6998 18.8 56.8998C42.2 51.4998 63.6 67.6998 65.9 90.5998C65.5 86.9998 61.1 84.9998 59 85.4998C58 87.8998 56.3 91.0998 53.6 92.9998C53.8 90.7998 53.7 88.5998 53.3 86.3998C52.6 89.3998 51.2 92.2998 49.2 94.6998C46.1 94.8998 42.9 93.3998 41.3 91.0998C41.2 90.9998 41.1 90.7998 41 90.6998C40.9 90.4998 40.8 90.1998 40.7 89.9998C40.6 89.7998 40.5 89.4998 40.5 89.2998V88.5998V88.0998C40.5 87.8998 40.6 87.5998 40.7 87.3998C40.8 87.1998 40.8 86.8998 40.9 86.6998C41 86.4998 41.1 86.1998 41.3 85.9998C41.9 84.3998 41.9 83.0998 40.8 82.3998L40.2 82.0998C40.1 82.0998 39.9 81.9998 39.8 81.9998C39.7 81.9998 39.6 81.8998 39.5 81.8998C39.3 81.7998 39 81.7998 38.8 81.6998C38.6 81.5998 38.3 81.5998 38.1 81.5998C37.9 81.5998 37.6 81.4998 37.4 81.4998H36.9C36.6 81.4998 36.4 81.4998 36.2 81.5998C36 81.5998 35.7 81.6998 35.5 81.6998C35.3 81.7998 35 81.7998 34.8 81.8998C34.6 81.9998 34.4 82.0998 34.1 82.1998L33.5 82.4998C25.8 87.4998 30.4 99.2998 35.6 102.7C33.6 103.1 31.6 103.5 31 103.9L30.9 104C32.3 104.9 33.8 105.6 35.4 106.2C37.5 106.9 39.8 107.5 40.8 107.8C43.5 108.4 46.3 108.6 49.1 108.4C63.7 107.4 75.7 96.1998 77.9 81.5998C78 81.8998 78 82.1998 78.1 82.4998C78.2 83.0998 78.3 83.6998 78.4 84.3998C78.5 84.6998 78.5 84.9998 78.5 85.2998V85.3998C78.5 85.6998 78.6 85.9998 78.6 86.2998C78.6 86.6998 78.7 86.9998 78.7 87.3998V91.5998C78.7 91.8998 78.6 92.0998 78.6 92.3998V92.6998C78.6 92.9998 78.5 93.2998 78.5 93.6998C78.4 93.9998 78.4 94.2998 78.3 94.5998V94.6998C78.2 94.9998 78.2 95.2998 78.1 95.5998V95.6998C78 95.9998 78 96.2998 77.9 96.5998V96.6998L77.6 97.5998V97.6998C77.5 97.9998 77.4 98.3998 77.3 98.6998C77.2 98.9998 77.1 99.2998 76.9 99.6998C76.8 99.9998 76.7 100.4 76.5 100.7C76.4 101 76.2 101.3 76.1 101.7C76 102 75.8 102.3 75.7 102.6C75.7 102.7 75.6 102.8 75.6 102.8C75.6 102.8 75.6 102.9 75.5 102.9C73.4 107.2 70.2 111 66.2 114C65.9 114.2 65.7 114.4 65.4 114.6C65.3 114.7 65.2 114.7 65.2 114.8C65 115 64.7 115.1 64.5 115.3L64.6 115.5C65.1 115.4 65.5 115.4 66 115.3C66.9 115.2 67.7 115 68.6 114.8C68.8 114.8 69.1 114.7 69.3 114.6C69.5 114.6 69.6 114.5 69.8 114.5C70 114.5 70.3 114.4 70.5 114.4C70.7 114.3 70.9 114.3 71.1 114.2C74.4 113.4 77.6 112.3 80.7 111C75.4 118.2 68.4 124 60.2 127.8C64 127.5 67.8 126.9 71.5 125.8C84.8 121.9 96 112.9 102.7 100.8C101.3 108.4 98.3 115.7 93.8 122.1C97 120 99.9 117.5 102.6 114.8C110 107.1 114.9 97.1998 116.5 86.6998C117.6 91.8998 118 97.2998 117.5 102.6C141.4 69.2998 119.5 34.7998 110.3 25.6998C110.3 25.5998 110.2 25.5998 110.2 25.4998C110.2 25.8998 110.2 26.2998 110.1 26.6998C110 27.4998 109.9 28.1998 109.8 28.8998C109.6 29.5998 109.4 30.3998 109.2 31.0998C109 31.7998 108.7 32.4998 108.4 33.1998C108.1 33.8998 107.8 34.5998 107.4 35.1998C107 35.7998 106.6 36.4998 106.2 37.0998C105.8 37.6998 105.3 38.2998 104.8 38.8998C104.3 39.4998 103.8 39.9998 103.2 40.5998C102.9 40.8998 102.6 41.1998 102.2 41.3998C101.9 41.5998 101.7 41.7998 101.4 42.0998C100.8 42.5998 100.2 42.9998 99.5 43.3998C98.9 43.7998 98.2 44.1998 97.5 44.4998L95.4 45.3998C94.7 45.6998 94 45.8998 93.3 46.0998C92.6 46.2998 91.8 46.4998 91.1 46.5998C90.3 46.6998 89.6 46.7998 88.9 46.8998C88.4 46.8998 87.8 46.9998 87.3 46.9998C86.5 46.9998 85.8 46.8998 85.1 46.8998C84.3 46.7998 83.6 46.6998 82.9 46.5998C82.1 46.4998 81.4 46.2998 80.7 45.9998C81.4 45.8998 82.2 45.8998 82.9 45.6998C83.7 45.5998 84.4 45.3998 85.1 45.1998C85.8 44.9998 86.6 44.7998 87.2 44.4998L89.3 43.5998C90 43.2998 90.6 42.8998 91.3 42.4998C91.9 42.0998 92.6 41.5998 93.2 41.1998C93.8 40.6998 94.4 40.1998 94.9 39.6998C95.5 39.1998 96 38.5998 96.5 38.0998C97 37.4998 97.5 36.8998 97.9 36.2998C98 36.1998 98 36.0998 98.1 35.9998C98.4 35.4998 98.8 34.8998 99.1 34.3998C99.5 33.6998 99.8 33.0998 100.1 32.3998C100.4 31.6998 100.7 30.9998 100.9 30.2998L101.5 28.1998C101.6 27.3998 101.8 26.6998 101.8 25.9998C101.9 25.1998 101.9 24.4998 101.9 23.7998C101.9 23.2998 101.9 22.6998 101.8 22.1998C101.7 21.3998 101.6 20.6998 101.5 19.9998C101.4 19.1998 101.2 18.4998 101 17.7998C100.8 17.0998 100.5 16.3998 100.3 15.6998C100 14.9998 99.7 14.2998 99.4 13.6998C99 12.9998 98.7 12.3998 98.3 11.6998C97.9 11.0998 97.4 10.4998 97 9.8998C96.5 9.2998 96 8.7998 95.5 8.1998C95.2 7.8998 94.9 7.5998 94.6 7.3998C93.1 6.1998 91.6 5.1998 90 4.1998C89.8 4.0998 89.6 3.9998 89.3 3.8998C88 2.7998 87 2.4998 86 2.0998Z" fill="#DF234F"/>
</svg>
