<svg width="128" height="129" viewBox="0 0 128 129" fill="none" xmlns="http://www.w3.org/2000/svg">
<path d="M47.3049 126.082C31.1839 121.855 18.6019 112.426 9.24187 97.5539C5.80087 92.0899 5.74188 90.1599 8.90188 86.3039C11.2849 83.3939 11.4219 83.3639 16.8949 84.6289C21.2889 85.6399 22.8979 86.6209 24.5429 89.2809C27.7379 94.4489 37.4449 103.148 43.2889 106.078C61.3359 115.125 83.3239 111.398 97.4839 96.8939C100.566 93.7419 103.711 89.6559 104.473 87.8119C105.234 85.9719 106.207 84.4649 106.633 84.4649C107.059 84.4649 108.301 86.4409 109.391 88.8549L111.367 93.2449L116.582 92.6289C122.672 91.9059 122.676 92.0779 116.688 101.101C108.965 112.734 94.1679 122.879 79.5079 126.59C70.9019 128.77 56.6989 128.543 47.3049 126.082Z" fill="#6DE1FA"/>
<path d="M48.023 81.144C39.75 71.101 32 60.957 30.797 58.594L28.605 54.304L37.48 45.387L46.352 36.465H80.582L89.512 45.445L98.445 54.425L96.039 58.512C93.137 63.437 64.844 99.269 63.797 99.347C63.391 99.375 56.293 91.183 48.023 81.144Z" fill="#FE405F"/>
<path d="M111.156 84.992C109.062 80.679 108.926 79.57 109.992 75.347C110.652 72.722 110.988 66.32 110.742 61.117C110.363 53.23 109.734 50.535 106.942 44.863C100.422 31.617 89.6318 22.445 76.3518 18.847L69.4448 16.98L72.2268 13.332C74.9688 9.73803 74.9798 9.62903 73.1908 5.87503C72.1908 3.78103 71.6328 1.81203 71.9488 1.49503C73.1018 0.341026 85.0198 3.69903 92.6798 7.34103C103.638 12.551 115.536 24.371 120.923 35.399C128.009 49.911 129.669 64.802 125.864 79.677C124.692 84.27 123.61 88.126 123.466 88.243C123.321 88.364 121.024 88.774 118.36 89.161L113.524 89.864L111.156 84.992Z" fill="#97F0FF"/>
<path d="M3.32809 85.336C-0.792906 74.496 -0.866906 55.816 3.16809 43.933C11.4181 19.633 33.7731 2.148 58.6681 0.523L66.6681 0L69.1131 4.394L71.5631 8.789L68.6291 12.871C65.8991 16.668 65.1561 17.035 57.8631 18.168C47.0271 19.855 39.1131 23.863 31.3911 31.59C18.3321 44.648 14.5901 60.445 19.9061 80.09C20.5361 82.422 20.3481 82.586 17.7661 81.957L12.4801 80.672C10.5311 80.199 9.44509 80.894 7.19509 84.058L4.36009 88.047L3.32809 85.336Z" fill="#40DAF4"/>
</svg>
