<svg width="128" height="128" viewBox="0 0 128 128" fill="none" xmlns="http://www.w3.org/2000/svg">
<path d="M119.838 16.9361C105.553 -0.075882 77.336 -5.11788 56.942 5.69612L21.113 24.6961C16.266 27.2251 12.107 30.5671 8.90096 34.5101C5.69496 38.4531 3.51396 42.9091 2.49696 47.5931C2.04383 49.6951 1.81323 51.8389 1.80896 53.9891C1.83096 59.8201 3.54896 65.5601 6.81596 70.7191C3.75296 74.5911 1.66196 78.9391 0.669959 83.5011C-0.346151 88.2692 -0.203837 93.2114 1.08496 97.9131C2.37496 102.646 4.78696 107.117 8.18096 111.065C22.465 128.076 50.745 133.118 71.076 122.305L106.868 103.304C111.712 100.772 115.866 97.4261 119.064 93.4791C122.261 89.5321 124.431 85.0721 125.434 80.3861C125.894 78.2791 126.125 76.1421 126.122 74.0001C126.113 68.1801 124.417 62.4491 121.177 57.2911C124.239 53.4221 126.33 49.0781 127.324 44.5201C127.768 42.4111 127.994 40.2751 128 38.1341C128.002 30.5391 125.148 23.1341 119.838 16.9561V16.9361Z" fill="#FF3E00"/>
<path d="M53.44 112.667C51.0867 113.171 48.6867 113.426 46.28 113.427C41.685 113.428 37.158 112.502 33.087 110.727C29.017 108.953 25.524 106.384 22.908 103.24C19.714 99.5241 17.998 95.0691 18.001 90.5001C18.0029 89.2121 18.1369 87.9277 18.401 86.6671C18.6159 85.7185 18.9052 84.7883 19.266 83.8851L19.942 82.1771L21.769 83.3331C26.012 85.9241 30.753 87.8971 35.789 89.1671L37.117 89.5001L36.992 90.6041V91.1771C36.989 92.5581 37.506 93.9071 38.469 95.0311C39.247 95.9891 40.295 96.7751 41.521 97.3191C42.7767 97.87 44.1328 98.1549 45.504 98.1561C46.2279 98.1585 46.9498 98.0818 47.657 97.9271C48.4243 97.76 49.1657 97.4902 49.861 97.1251L85.651 78.0311C86.724 77.4651 87.608 76.6821 88.219 75.7551C88.829 74.8281 89.147 73.7871 89.143 72.7291C89.133 71.3481 88.603 70.0041 87.628 68.8851C86.838 67.9391 85.784 67.1671 84.557 66.6331C83.3006 66.094 81.9471 65.8183 80.58 65.8231C79.8561 65.821 79.1341 65.8981 78.427 66.0531C77.6631 66.2163 76.9259 66.4859 76.237 66.8541L62.592 74.1041C60.2957 75.3071 57.8501 76.2003 55.319 76.7601C52.979 77.2621 50.574 77.5181 48.158 77.5201C43.564 77.5201 39.039 76.5941 34.969 74.8221C30.899 73.0501 27.405 70.4841 24.786 67.3441C21.596 63.6261 19.88 59.1721 19.879 54.6041C19.881 53.3191 20.015 52.0371 20.279 50.7711C20.892 47.9551 22.2 45.2761 24.123 42.9041C26.045 40.5311 28.539 38.5171 31.446 36.9901L67.274 18.0001C69.522 16.8101 71.974 15.9101 74.547 15.3331C76.887 14.8341 79.292 14.5831 81.707 14.5831C86.312 14.5731 90.851 15.4931 94.935 17.2641C99.019 19.0341 102.525 21.6041 105.154 24.7501C108.325 28.4771 110.019 32.9341 109.999 37.5001C109.997 38.7918 109.862 40.0798 109.598 41.3441C109.383 42.2924 109.094 43.2222 108.734 44.1251L108.058 45.8331L106.231 44.7191C101.991 42.1241 97.249 40.1511 92.211 38.8851L90.883 38.5421L91.008 37.4371V36.8651C91.008 35.4801 90.492 34.1301 89.531 33.0001C88.742 32.0551 87.691 31.2841 86.465 30.7501C85.2111 30.2108 83.86 29.9341 82.495 29.9371C81.7783 29.9501 81.0651 30.0409 80.368 30.2081C79.599 30.3686 78.8571 30.6386 78.165 31.0101L42.337 50.0001C41.487 50.4411 40.7355 51.05 40.128 51.7901C39.5614 52.481 39.1648 53.2951 38.97 54.1671C38.8818 54.5293 38.8272 54.8989 38.807 55.2711C38.806 56.6491 39.322 57.9931 40.284 59.1151C41.072 60.0601 42.124 60.8321 43.349 61.3651C44.6029 61.9044 45.954 62.1808 47.319 62.1771C48.0429 62.1793 48.7649 62.1021 49.472 61.9471C50.2407 61.7851 50.9827 61.5155 51.676 61.1461L65.346 53.8541C67.6413 52.649 70.0872 51.7558 72.619 51.1981C74.9724 50.6943 77.3723 50.4396 79.779 50.4381C84.375 50.4381 88.902 51.3631 92.974 53.1351C97.046 54.9071 100.543 57.4741 103.164 60.6151C106.354 64.3321 108.07 68.7861 108.071 73.3551C108.074 74.6541 107.936 75.9511 107.658 77.2291C107.049 80.0461 105.741 82.7261 103.819 85.0991C101.896 87.4711 99.401 89.4841 96.491 91.0101L60.726 110C58.4269 111.209 55.977 112.106 53.441 112.667H53.44Z" fill="white"/>
</svg>
