<svg width="128" height="128" viewBox="0 0 128 128" fill="none" xmlns="http://www.w3.org/2000/svg">
<path d="M121.172 62.8787C121.172 28.8307 94.6989 1.23071 62.0369 1.23071C29.3789 1.23071 2.8999 28.8307 2.8999 62.8787C2.8999 96.9267 29.3779 124.53 62.0359 124.53C94.6979 124.53 121.171 96.9267 121.171 62.8787H121.172Z" fill="white"/>
<path d="M53.3402 127.517C39.4302 125.056 27.4982 118.705 17.6372 108.511C9.25024 99.8428 3.47724 88.9287 0.853238 76.7637C-0.283762 71.5078 -0.283762 56.4767 0.853238 51.2238C2.62924 43.0008 6.07524 34.8358 10.7762 27.7148C13.8902 23.0007 23.0042 13.8887 27.7162 10.7737C34.8392 6.07375 43.0092 2.62375 51.2302 0.85275C56.4832 -0.28425 71.5162 -0.28425 76.7732 0.85275C89.5802 3.61775 100.225 9.40075 109.41 18.5857C118.597 27.7717 124.38 38.4137 127.149 51.2248C128.282 56.4767 128.282 71.5078 127.149 76.7647C124.38 89.5707 118.597 100.213 109.41 109.399C100.372 118.44 89.8602 124.211 77.2632 127.049C72.7962 128.058 58.0252 128.346 53.3402 127.517ZM64.9072 114.745C64.9072 110.551 64.8452 110.248 64.0002 110.248C63.1622 110.248 63.0962 110.536 63.1312 114.145C63.1742 118.409 63.4742 119.717 64.3422 119.429C64.7432 119.297 64.9072 117.938 64.9072 114.745ZM58.1502 116.19C59.3422 114.994 59.6922 114.27 59.6922 112.981C59.6922 111.665 59.5322 111.346 58.9292 111.462C58.5122 111.54 58.0102 112.222 57.8152 112.969C57.6212 113.717 56.8152 114.873 56.0322 115.539C54.6142 116.735 54.5602 117.731 55.9072 117.731C56.2932 117.731 57.3012 117.034 58.1502 116.19ZM73.0932 117.237C73.2602 116.968 72.7542 116.201 71.9712 115.539C71.1852 114.873 70.3822 113.717 70.1882 112.969C69.9892 112.222 69.4872 111.54 69.0702 111.462C68.4702 111.346 68.3102 111.665 68.3102 112.981C68.3102 115.59 72.0532 118.923 73.0932 117.237ZM52.4332 109.091C52.4332 108.83 51.7992 108.269 51.0232 107.845C45.9692 105.076 40.0382 100.669 36.7432 97.2347C30.3102 90.5247 27.4132 83.8467 27.3432 75.5567C27.2952 70.0167 28.0082 67.1268 30.7072 61.9518C33.3162 56.9478 36.3382 53.1717 44.6572 44.5308C53.9442 34.8778 56.0822 32.3307 57.6952 28.9977C58.8432 26.6307 58.9952 25.7667 59.1552 20.7627C59.3542 14.5477 58.9752 10.2567 58.2282 10.2567C57.8892 10.2567 57.8272 11.8687 58.0182 15.4907C58.6412 27.0827 56.4882 30.6807 43.1262 40.3717C33.9242 47.0457 29.7022 50.6717 26.5132 54.6357C21.9952 60.2458 19.9932 65.1017 19.4952 71.6857C18.2882 87.5537 28.3432 101.315 46.0852 108.071C49.9992 109.558 52.4332 109.952 52.4332 109.091ZM83.1332 107.806C89.2312 105.263 93.8692 102.191 98.2432 97.7987C104.91 91.0977 107.682 84.8317 108.099 75.5567C108.461 67.4227 106.697 62.0418 101.662 55.9468C98.2122 51.7738 94.5002 48.7868 84.4882 42.1368C71.0182 33.1838 67.8552 29.6207 67.8552 23.3907C67.8552 21.7327 68.1552 19.3848 68.5172 18.1737C69.1402 16.1057 69.1252 14.6807 68.4972 16.3118C67.9062 17.8577 66.5502 17.1488 65.8222 14.9017L65.1222 12.7497L65.3862 14.7897C66.3282 22.0317 66.4462 25.0657 66.0282 31.4047C65.4642 39.9747 64.4122 45.8317 61.5182 56.4808C58.6482 67.0527 58.1312 70.8848 58.4892 78.9567C58.7892 85.7817 59.7432 90.8867 61.9632 97.5498C64.0232 103.733 64.4082 104.204 68.1982 105.174C70.2812 105.707 72.2562 106.607 73.8252 107.74C75.3012 108.807 76.7772 109.5 77.6062 109.515C78.3542 109.527 80.8432 108.76 83.1322 107.806H83.1332ZM81.7622 104.73C81.1972 104.165 81.4622 103.682 83.6742 101.237C90.6442 93.5427 93.7682 85.5957 93.8572 75.3307C93.9202 68.3378 92.3742 63.7038 87.6572 56.7378C85.5272 53.5877 78.0232 45.7298 74.3942 42.8448C71.7342 40.7308 68.9962 37.1248 68.5092 35.0848C68.0152 33.0168 69.4012 33.5618 71.0052 36.0648C71.7922 37.2918 73.4982 39.0948 74.7952 40.0688C76.0912 41.0458 79.9272 43.9038 83.3192 46.4238C94.9832 55.0947 100.178 62.4897 101.342 72.0957C102.02 77.6517 100.945 83.3957 98.2352 88.7297C95.4232 94.2547 90.2982 100.275 85.9092 103.207C83.2062 105.01 82.3532 105.322 81.7622 104.73ZM58.9252 105.314C59.0582 104.971 57.8892 102.779 56.3322 100.439C52.2042 94.2477 50.4082 90.8327 48.7342 85.9847C47.3202 81.8997 47.2422 81.3437 47.2302 75.1017C47.2152 65.6707 48.2352 62.6798 55.7202 50.2518C62.7772 38.5338 63.7352 33.9938 62.9402 15.9657C62.6522 9.50575 62.3292 4.12775 62.2202 4.01575C61.4762 3.27175 61.3162 5.18775 61.5932 11.6858C62.1382 24.6257 61.3012 31.8328 58.5752 37.7478C56.7172 41.7738 54.6372 44.8228 49.0452 51.7498C41.2572 61.3868 39.0602 66.4997 39.0992 74.8757C39.1302 80.6187 39.9052 84.1507 42.2262 89.0607C44.7382 94.3807 49.3612 99.7497 55.1562 104.072C57.8232 106.066 58.5472 106.303 58.9262 105.314H58.9252Z" fill="#212178"/>
</svg>
