<svg width="128" height="128" viewBox="0 0 128 128" fill="none" xmlns="http://www.w3.org/2000/svg">
<path d="M66.3325 70.0321C66.5725 65.7901 68.6595 62.0451 71.8175 59.3981C74.9115 56.7961 79.0655 55.2051 83.6265 55.2051C88.1635 55.2051 92.3165 56.7951 95.4065 59.3981C98.5695 62.0451 100.644 65.7901 100.892 70.0321C101.132 74.3821 99.3685 78.4421 96.2865 81.4491C93.1285 84.4991 88.6595 86.4261 83.6265 86.4261C78.5895 86.4261 74.1005 84.5111 70.9625 81.4491C67.8685 78.4431 66.1095 74.4051 66.3565 70.0521L66.3325 70.0321Z" fill="#235785"/>
<path d="M39.2453 79.0021C39.2733 80.6621 39.8093 83.8921 40.6053 86.4061C42.2873 91.7421 45.1423 96.6791 49.0953 101.005C53.1573 105.47 58.1693 109.06 63.9453 111.615C70.0183 114.285 76.6103 115.652 83.4503 115.652C90.2903 115.643 96.8823 114.252 102.954 111.55C108.73 108.968 113.744 105.382 117.804 100.893C121.778 96.5191 124.624 91.5861 126.295 86.2461C127.132 83.5937 127.667 80.8554 127.89 78.0831C128.098 75.3931 128.01 72.6781 127.627 69.9631C126.878 64.7318 125.032 59.7178 122.21 55.2491C119.636 51.0991 116.294 47.4891 112.32 44.4361L112.332 44.4321L72.3773 13.9261C72.3413 13.8981 72.3093 13.8701 72.2733 13.8461C69.6543 11.8441 65.2293 11.8521 62.3633 13.8541C59.4493 15.8851 59.1133 19.2391 61.7073 21.3501L61.6953 21.3581L78.3773 34.8421L27.5883 34.8931H27.5203C23.3233 34.8971 19.2813 37.6321 18.4903 41.1061C17.6703 44.6271 20.5253 47.5661 24.9023 47.5661L24.8943 47.5821L50.6303 47.5341L4.58028 82.5241C4.52428 82.5681 4.46028 82.6121 4.40428 82.6561C0.0692825 85.9501 -1.32972 91.4461 1.40028 94.9001C4.17828 98.4221 10.0663 98.4461 14.4473 94.9201L39.5053 74.5101C39.5053 74.5101 39.1373 77.2681 39.1693 78.9071L39.2453 79.0021ZM103.805 88.2211C98.6373 93.4491 91.3893 96.4311 83.5783 96.4311C75.7473 96.4431 68.4993 93.5131 63.3303 88.2891C60.8043 85.7301 58.9533 82.8161 57.8023 79.6981C56.6771 76.63 56.2431 73.3513 56.5313 70.0961C56.8049 66.9201 57.7519 63.8387 59.3093 61.0571C60.8163 58.3431 62.8993 55.8771 65.4493 53.7901C70.4823 49.7321 76.8693 47.5101 83.5493 47.5101C90.2583 47.5021 96.6463 49.6841 101.679 53.7461C104.229 55.8211 106.304 58.2751 107.819 60.9891C109.38 63.7705 110.326 66.8541 110.593 70.0321C110.877 73.2859 110.443 76.5624 109.322 79.6301C108.175 82.7721 106.32 85.6861 103.789 88.2451L103.805 88.2211Z" fill="#E87500"/>
</svg>
