<svg width="129" height="128" viewBox="0 0 129 128" fill="none" xmlns="http://www.w3.org/2000/svg">
<path d="M82.0036 88.5C80.1036 88.5 78.3036 88.1 76.5036 87.3C72.5036 85.6 69.1036 82.3 66.2036 77.9C67.0036 76.5 67.7036 75 68.4036 73.5C71.2036 66.9 72.6036 59.6 72.7036 52.4V51.6C72.7036 48.8 72.3036 45.9 71.3036 43.3C70.2036 40.2 68.4036 37.2 65.6036 36C65.1036 35.8 64.5036 35.7 64.0036 35.7C60.4036 29 60.3036 22.7 64.0036 16.6H64.2036C68.5036 16.6 72.8036 18 76.5036 20.3C86.5036 26.7 91.5036 39 91.6036 51.2V51.6H91.7036C91.6036 64.5 88.5036 77.6 82.0036 88.5ZM59.8036 108.7C50.5036 112.5 39.6036 112.3 30.4036 108C19.8036 103.1 11.6036 93.4 6.60357 82.5C-1.99643 63.7 -2.19643 41.3 6.00357 22.3C12.1036 24.7 17.5036 20.9 17.5036 20.9C17.5036 20.9 17.5036 26.9 23.3036 29.9C17.4036 43.8 17.5036 60.4 23.5036 74C26.4036 80.5 30.8036 86.6 36.8036 90.1C39.0036 91.3 41.4036 92.1 43.8036 92.4C48.1036 99 53.6036 104.7 59.8036 108.7Z" fill="url(#paint0_linear_3_7466)"/>
<path opacity="0.3" fill-rule="evenodd" clip-rule="evenodd" d="M82.0034 88.5C80.1034 88.5 78.3034 88.1 76.5034 87.3C72.5034 85.6 69.1034 82.3 66.2034 77.9C67.0034 76.5 67.7034 75 68.4034 73.5C69.3034 71.5 70.0034 69.5 70.6034 67.4C72.0034 62.6 90.2034 68.7 87.5034 76.7C86.0034 80.8 84.2034 84.8 82.0034 88.5ZM59.8034 108.7C50.5034 112.5 39.6034 112.3 30.4034 108C19.8034 103.1 30.7034 86.5 36.8034 89.9C39.0034 91.1 41.3034 91.9 43.8034 92.2C48.1034 99 53.6034 104.7 59.8034 108.7Z" fill="url(#paint1_linear_3_7466)"/>
<path d="M36.4038 51.7V51.2999C36.5038 39.0999 41.5038 26.7 51.5038 20.4C55.2038 18.1 59.5038 16.7 63.8038 16.7H64.0038V35.7999C63.5038 35.7999 62.9038 35.8999 62.4038 36.0999C59.6038 37.2999 57.8038 40.4 56.7038 43.4C55.7038 46.1 55.3038 48.9 55.3038 51.7V52.5C55.4038 59.7 56.7038 66.9 59.6038 73.5C62.7038 81 67.8038 87.7999 75.0038 90.8999C80.4038 93.2999 86.4038 92.7 91.3038 89.8999C97.4038 86.4999 101.804 80.3999 104.604 73.7999C110.604 60.2 110.704 43.7 104.804 29.7C110.604 26.7 110.604 20.7 110.604 20.7C110.604 20.7 116.004 24.5999 122.104 22.0999C130.204 41.0999 130.004 63.5999 121.504 82.2999C116.504 93.2999 108.404 102.9 97.7038 107.8C88.2038 112.2 77.1038 112.3 67.6038 108.2C59.0038 104.7 52.0038 98 47.0038 90.2C39.8038 78.9 36.4038 65.2 36.4038 51.7Z" fill="url(#paint2_linear_3_7466)"/>
<defs>
<linearGradient id="paint0_linear_3_7466" x1="0.00210543" y1="64.0007" x2="62.541" y2="64.0007" gradientUnits="userSpaceOnUse">
<stop stop-color="#00D2E6"/>
<stop offset="1" stop-color="#2ECCAA"/>
</linearGradient>
<linearGradient id="paint1_linear_3_7466" x1="38.9984" y1="96.7448" x2="72.1718" y2="75.6005" gradientUnits="userSpaceOnUse">
<stop stop-opacity="0"/>
<stop offset="0.514"/>
<stop offset="1" stop-opacity="0"/>
</linearGradient>
<linearGradient id="paint2_linear_3_7466" x1="128.004" y1="64.0006" x2="65.5712" y2="64.0006" gradientUnits="userSpaceOnUse">
<stop stop-color="#1FA385"/>
<stop offset="1" stop-color="#2ECCAA"/>
</linearGradient>
</defs>
</svg>
